<?xml version="1.0" encoding="UTF-8" standalone="no"?>
<!-- Created with Digital by H.Neemann -->
<!-- created: Fri Nov 21 16:59:00 BRT 2025 -->

<svg
   xmlns:svg="http://www.w3.org/2000/svg"
   xmlns="http://www.w3.org/2000/svg"
   width="45.75mm"
   height="26.25mm"
   viewBox="628 249 305 175">
<g stroke-linecap="square">
<path d="M 730,295 L 750,295" stroke="#000000" stroke-width="2.0" fill="none"/>
<path d="M 730,395 L 750,395" stroke="#000000" stroke-width="2.0" fill="none"/>
<path d="M 640,260 L 640,320 L 720,320" stroke="#0000b2" stroke-width="4.0" fill="none"/>
<path d="M 760,320 L 860,320 L 860,360 L 900,360" stroke="#0000b2" stroke-width="4.0" fill="none"/>
<path d="M 640,320 L 640,420 L 720,420" stroke="#0000b2" stroke-width="4.0" fill="none"/>
<path d="M 760,420 L 860,420 L 860,360" stroke="#0000b2" stroke-width="4.0" fill="none"/>
<path d="M 740,315 L 740,295" stroke-dasharray="4.0,4.0" stroke="#000000" stroke-width="1.0" fill="none"/>
<path d="M 740,415 L 740,395" stroke-dasharray="4.0,4.0" stroke="#000000" stroke-width="1.0" fill="none"/>
<path d="M 720,320 L 756,310" stroke="#000000" stroke-width="4.0" fill="none"/>
<path d="M 720,420 L 756,410" stroke="#000000" stroke-width="4.0" fill="none"/>
<path d="M 640,254 L 640,260" stroke="#000000" stroke-width="4.0" fill="none"/>
<g>
<circle cx="640.0" cy="320.0" r="4.0" stroke="#0000b2" stroke-width="4.0" fill="#0000b2" />
<circle cx="860.0" cy="360.0" r="4.0" stroke="#0000b2" stroke-width="4.0" fill="#0000b2" />
</g>
<g>
<circle cx="720.0" cy="320.0" r="2.0" stroke="#b20000" stroke-width="4.0" fill="#b20000" />
<circle cx="760.0" cy="320.0" r="2.0" stroke="#b20000" stroke-width="4.0" fill="#b20000" />
</g>
<g>
<circle cx="720.0" cy="420.0" r="2.0" stroke="#b20000" stroke-width="4.0" fill="#b20000" />
<circle cx="760.0" cy="420.0" r="2.0" stroke="#b20000" stroke-width="4.0" fill="#b20000" />
</g>
<g>
<circle cx="916.0" cy="360.0" r="15.0" stroke="#000000" stroke-width="4.0" fill="#000000" />
<circle cx="916.0" cy="360.0" r="13.0" stroke="#ff0000" stroke-width="0.0" fill="#ff0000" />
<circle cx="900.0" cy="360.0" r="2.0" stroke="#0000b2" stroke-width="4.0" fill="#0000b2" />
</g>
<g>
<path d="M 630,264 L 640,251 L 650,264" stroke="#000000" stroke-width="4.0" fill="none"/>
<circle cx="640.0" cy="260.0" r="2.0" stroke="#b20000" stroke-width="4.0" fill="#b20000" />
</g>
</g>
</svg>