<?xml version="1.0" encoding="UTF-8" standalone="no"?>
<!-- Created with Digital by H.Neemann -->
<!-- created: Fri Nov 21 17:29:20 BRT 2025 -->

<svg
   xmlns:svg="http://www.w3.org/2000/svg"
   xmlns="http://www.w3.org/2000/svg"
   width="42.75mm"
   height="23.25mm"
   viewBox="708 229 285 155">
<g stroke-linecap="square">
<path d="M 730,295 L 750,295" stroke="#000000" stroke-width="2.0" fill="none"/>
<path d="M 760,320 L 860,320 L 960,320" stroke="#0000b2" stroke-width="4.0" fill="none"/>
<path d="M 720,320 L 720,380" stroke="#0000b2" stroke-width="4.0" fill="none"/>
<path d="M 860,280 L 860,320" stroke="#0000b2" stroke-width="4.0" fill="none"/>
<path d="M 740,315 L 740,295" stroke-dasharray="4.0,4.0" stroke="#000000" stroke-width="1.0" fill="none"/>
<path d="M 710,380 L 730,380" stroke="#000000" stroke-width="6.0" fill="none"/>
<path d="M 720,320 L 756,310" stroke="#000000" stroke-width="4.0" fill="none"/>
<path d="M 860,254 L 860,234" stroke="#000000" stroke-width="4.0" fill="none"/>
<g>
<circle cx="860.0" cy="320.0" r="4.0" stroke="#0000b2" stroke-width="4.0" fill="#0000b2" />
</g>
<g>
<circle cx="720.0" cy="320.0" r="2.0" stroke="#b20000" stroke-width="4.0" fill="#b20000" />
<circle cx="760.0" cy="320.0" r="2.0" stroke="#b20000" stroke-width="4.0" fill="#b20000" />
</g>
<g>
<circle cx="976.0" cy="320.0" r="15.0" stroke="#000000" stroke-width="4.0" fill="#000000" />
<circle cx="976.0" cy="320.0" r="13.0" stroke="#ff0000" stroke-width="0.0" fill="#ff0000" />
<circle cx="960.0" cy="320.0" r="2.0" stroke="#0000b2" stroke-width="4.0" fill="#0000b2" />
</g>
<g>
<path d="M 853,279 L 853,254 L 867,254 L 867,279 Z" stroke="#000000" stroke-width="4.0" fill="none"/>
<path d="M 850,244 L 860,231 L 870,244" stroke="#000000" stroke-width="4.0" fill="none"/>
<circle cx="860.0" cy="280.0" r="2.0" stroke="#b20000" stroke-width="4.0" fill="#b20000" />
</g>
<g>
<circle cx="720.0" cy="380.0" r="2.0" stroke="#b20000" stroke-width="4.0" fill="#b20000" />
</g>
</g>
</svg>