<?xml version="1.0" encoding="UTF-8" standalone="no"?>
<!-- Created with Digital by H.Neemann -->
<!-- created: Fri Nov 21 17:49:19 BRT 2025 -->

<svg
   xmlns:svg="http://www.w3.org/2000/svg"
   xmlns="http://www.w3.org/2000/svg"
   width="76.95mm"
   height="35.25mm"
   viewBox="508 229 513 235">
<g stroke-linecap="square">
<path d="M 730,295 L 750,295" stroke="#000000" stroke-width="2.0" fill="none"/>
<path d="M 630,295 L 650,295" stroke="#000000" stroke-width="2.0" fill="none"/>
<path d="M 630,395 L 650,395" stroke="#000000" stroke-width="2.0" fill="none"/>
<path d="M 730,395 L 750,395" stroke="#000000" stroke-width="2.0" fill="none"/>
<path d="M 760,320 L 800,320 L 860,320 L 960,320" stroke="#0000b2" stroke-width="4.0" fill="none"/>
<path d="M 660,320 L 720,320" stroke="#0000b2" stroke-width="4.0" fill="none"/>
<path d="M 660,420 L 720,420" stroke="#0000b2" stroke-width="4.0" fill="none"/>
<path d="M 760,420 L 800,420 L 800,320" stroke="#0000b2" stroke-width="4.0" fill="none"/>
<path d="M 620,320 L 520,320 L 520,420 L 620,420" stroke="#0000b2" stroke-width="4.0" fill="none"/>
<path d="M 520,420 L 520,460" stroke="#0000b2" stroke-width="4.0" fill="none"/>
<path d="M 860,280 L 860,320" stroke="#0000b2" stroke-width="4.0" fill="none"/>
<path d="M 740,315 L 740,295" stroke-dasharray="4.0,4.0" stroke="#000000" stroke-width="1.0" fill="none"/>
<path d="M 640,315 L 640,295" stroke-dasharray="4.0,4.0" stroke="#000000" stroke-width="1.0" fill="none"/>
<path d="M 640,415 L 640,395" stroke-dasharray="4.0,4.0" stroke="#000000" stroke-width="1.0" fill="none"/>
<path d="M 740,415 L 740,395" stroke-dasharray="4.0,4.0" stroke="#000000" stroke-width="1.0" fill="none"/>
<path d="M 510,460 L 530,460" stroke="#000000" stroke-width="6.0" fill="none"/>
<path d="M 720,320 L 756,310" stroke="#000000" stroke-width="4.0" fill="none"/>
<path d="M 860,254 L 860,234" stroke="#000000" stroke-width="4.0" fill="none"/>
<path d="M 620,320 L 656,310" stroke="#000000" stroke-width="4.0" fill="none"/>
<path d="M 620,420 L 656,410" stroke="#000000" stroke-width="4.0" fill="none"/>
<path d="M 720,420 L 756,410" stroke="#000000" stroke-width="4.0" fill="none"/>
<g>
<circle cx="800.0" cy="320.0" r="4.0" stroke="#0000b2" stroke-width="4.0" fill="#0000b2" />
<circle cx="860.0" cy="320.0" r="4.0" stroke="#0000b2" stroke-width="4.0" fill="#0000b2" />
<circle cx="520.0" cy="420.0" r="4.0" stroke="#0000b2" stroke-width="4.0" fill="#0000b2" />
</g>
<g>
<text text-anchor="middle" x="740.0" y="337.5" fill="#808080" style="font-size:18px">B</text>
<circle cx="720.0" cy="320.0" r="2.0" stroke="#b20000" stroke-width="4.0" fill="#b20000" />
<circle cx="760.0" cy="320.0" r="2.0" stroke="#b20000" stroke-width="4.0" fill="#b20000" />
</g>
<g>
<circle cx="976.0" cy="320.0" r="15.0" stroke="#000000" stroke-width="4.0" fill="#000000" />
<circle cx="976.0" cy="320.0" r="13.0" stroke="#ff0000" stroke-width="0.0" fill="#ff0000" />
<text text-anchor="start" x="1005.0" y="329.0" fill="#000000" style="font-size:24px">Z</text>
<circle cx="960.0" cy="320.0" r="2.0" stroke="#0000b2" stroke-width="4.0" fill="#0000b2" />
</g>
<g>
<path d="M 853,279 L 853,254 L 867,254 L 867,279 Z" stroke="#000000" stroke-width="4.0" fill="none"/>
<path d="M 850,244 L 860,231 L 870,244" stroke="#000000" stroke-width="4.0" fill="none"/>
<circle cx="860.0" cy="280.0" r="2.0" stroke="#b20000" stroke-width="4.0" fill="#b20000" />
</g>
<g>
<circle cx="520.0" cy="460.0" r="2.0" stroke="#b20000" stroke-width="4.0" fill="#b20000" />
</g>
<g>
<text text-anchor="middle" x="640.0" y="337.5" fill="#808080" style="font-size:18px">A</text>
<circle cx="620.0" cy="320.0" r="2.0" stroke="#b20000" stroke-width="4.0" fill="#b20000" />
<circle cx="660.0" cy="320.0" r="2.0" stroke="#b20000" stroke-width="4.0" fill="#b20000" />
</g>
<g>
<text text-anchor="middle" x="640.0" y="437.5" fill="#808080" style="font-size:18px">C</text>
<circle cx="620.0" cy="420.0" r="2.0" stroke="#b20000" stroke-width="4.0" fill="#b20000" />
<circle cx="660.0" cy="420.0" r="2.0" stroke="#b20000" stroke-width="4.0" fill="#b20000" />
</g>
<g>
<text text-anchor="middle" x="740.0" y="437.5" fill="#808080" style="font-size:18px">D</text>
<circle cx="720.0" cy="420.0" r="2.0" stroke="#b20000" stroke-width="4.0" fill="#b20000" />
<circle cx="760.0" cy="420.0" r="2.0" stroke="#b20000" stroke-width="4.0" fill="#b20000" />
</g>
</g>
</svg>