<?xml version="1.0" encoding="UTF-8" standalone="no"?>
<!-- Created with Digital by H.Neemann -->
<!-- created: Fri Nov 21 18:54:16 BRT 2025 -->

<svg
   xmlns:svg="http://www.w3.org/2000/svg"
   xmlns="http://www.w3.org/2000/svg"
   width="90.45mm"
   height="36.15mm"
   viewBox="397 223 603 241">
<g stroke-linecap="square">
<path d="M 760,315 L 760,320" stroke="#000000" stroke-width="2.0" fill="none"/>
<path d="M 660,315 L 660,320" stroke="#000000" stroke-width="2.0" fill="none"/>
<path d="M 760,415 L 760,420" stroke="#000000" stroke-width="2.0" fill="none"/>
<path d="M 660,415 L 660,420" stroke="#000000" stroke-width="2.0" fill="none"/>
<path d="M 680,320 L 740,320" stroke="#0000b2" stroke-width="4.0" fill="none"/>
<path d="M 780,320 L 820,320 L 860,320 L 940,320" stroke="#0000b2" stroke-width="4.0" fill="none"/>
<path d="M 460,240 L 740,240 L 740,300" stroke="#0000b2" stroke-width="4.0" fill="none"/>
<path d="M 680,420 L 740,420" stroke="#0000b2" stroke-width="4.0" fill="none"/>
<path d="M 780,420 L 820,420 L 820,320" stroke="#0000b2" stroke-width="4.0" fill="none"/>
<path d="M 460,340 L 740,340 L 740,400" stroke="#0000b2" stroke-width="4.0" fill="none"/>
<path d="M 460,280 L 640,280 L 640,300" stroke="#0000b2" stroke-width="4.0" fill="none"/>
<path d="M 460,380 L 640,380 L 640,400" stroke="#0000b2" stroke-width="4.0" fill="none"/>
<path d="M 640,320 L 520,320 L 520,420 L 640,420" stroke="#0000b2" stroke-width="4.0" fill="none"/>
<path d="M 520,420 L 520,460" stroke="#0000b2" stroke-width="4.0" fill="none"/>
<path d="M 860,280 L 860,320" stroke="#0000b2" stroke-width="4.0" fill="none"/>
<path d="M 510,460 L 530,460" stroke="#000000" stroke-width="6.0" fill="none"/>
<path d="M 860,254 L 860,234" stroke="#000000" stroke-width="4.0" fill="none"/>
<path d="M 765,308 L 755,308" stroke="#000000" stroke-width="4.0" fill="none"/>
<path d="M 780,301 L 740,301" stroke="#000000" stroke-width="4.0" fill="none"/>
<path d="M 665,308 L 655,308" stroke="#000000" stroke-width="4.0" fill="none"/>
<path d="M 680,301 L 640,301" stroke="#000000" stroke-width="4.0" fill="none"/>
<path d="M 765,408 L 755,408" stroke="#000000" stroke-width="4.0" fill="none"/>
<path d="M 780,401 L 740,401" stroke="#000000" stroke-width="4.0" fill="none"/>
<path d="M 665,408 L 655,408" stroke="#000000" stroke-width="4.0" fill="none"/>
<path d="M 680,401 L 640,401" stroke="#000000" stroke-width="4.0" fill="none"/>
<g>
<circle cx="820.0" cy="320.0" r="4.0" stroke="#0000b2" stroke-width="4.0" fill="#0000b2" />
<circle cx="860.0" cy="320.0" r="4.0" stroke="#0000b2" stroke-width="4.0" fill="#0000b2" />
<circle cx="520.0" cy="420.0" r="4.0" stroke="#0000b2" stroke-width="4.0" fill="#0000b2" />
</g>
<g>
<path d="M 853,279 L 853,254 L 867,254 L 867,279 Z" stroke="#000000" stroke-width="4.0" fill="none"/>
<path d="M 850,244 L 860,231 L 870,244" stroke="#000000" stroke-width="4.0" fill="none"/>
<circle cx="860.0" cy="280.0" r="2.0" stroke="#b20000" stroke-width="4.0" fill="#b20000" />
</g>
<g>
<circle cx="520.0" cy="460.0" r="2.0" stroke="#b20000" stroke-width="4.0" fill="#b20000" />
</g>
<g>
<path d="M 780,320 L 780,308 L 775,308" stroke="#000000" stroke-width="4.0" fill="none"/>
<path d="M 740,320 L 740,308 L 745,308" stroke="#000000" stroke-width="4.0" fill="none"/>
<path d="M 760,312 L 762,317 L 758,317 Z" stroke="#000000" stroke-width="2.0" fill="#000000" fill-opacity="1.0"/>
<circle cx="740.0" cy="300.0" r="2.0" stroke="#0000b2" stroke-width="4.0" fill="#0000b2" />
<circle cx="780.0" cy="320.0" r="2.0" stroke="#b20000" stroke-width="4.0" fill="#b20000" />
<circle cx="740.0" cy="320.0" r="2.0" stroke="#b20000" stroke-width="4.0" fill="#b20000" />
</g>
<g>
<path d="M 680,320 L 680,308 L 675,308" stroke="#000000" stroke-width="4.0" fill="none"/>
<path d="M 640,320 L 640,308 L 645,308" stroke="#000000" stroke-width="4.0" fill="none"/>
<path d="M 660,312 L 662,317 L 658,317 Z" stroke="#000000" stroke-width="2.0" fill="#000000" fill-opacity="1.0"/>
<circle cx="640.0" cy="300.0" r="2.0" stroke="#0000b2" stroke-width="4.0" fill="#0000b2" />
<circle cx="680.0" cy="320.0" r="2.0" stroke="#b20000" stroke-width="4.0" fill="#b20000" />
<circle cx="640.0" cy="320.0" r="2.0" stroke="#b20000" stroke-width="4.0" fill="#b20000" />
</g>
<g>
<path d="M 780,420 L 780,408 L 775,408" stroke="#000000" stroke-width="4.0" fill="none"/>
<path d="M 740,420 L 740,408 L 745,408" stroke="#000000" stroke-width="4.0" fill="none"/>
<path d="M 760,412 L 762,417 L 758,417 Z" stroke="#000000" stroke-width="2.0" fill="#000000" fill-opacity="1.0"/>
<circle cx="740.0" cy="400.0" r="2.0" stroke="#0000b2" stroke-width="4.0" fill="#0000b2" />
<circle cx="780.0" cy="420.0" r="2.0" stroke="#b20000" stroke-width="4.0" fill="#b20000" />
<circle cx="740.0" cy="420.0" r="2.0" stroke="#b20000" stroke-width="4.0" fill="#b20000" />
</g>
<g>
<path d="M 680,420 L 680,408 L 675,408" stroke="#000000" stroke-width="4.0" fill="none"/>
<path d="M 640,420 L 640,408 L 645,408" stroke="#000000" stroke-width="4.0" fill="none"/>
<path d="M 660,412 L 662,417 L 658,417 Z" stroke="#000000" stroke-width="2.0" fill="#000000" fill-opacity="1.0"/>
<circle cx="640.0" cy="400.0" r="2.0" stroke="#0000b2" stroke-width="4.0" fill="#0000b2" />
<circle cx="680.0" cy="420.0" r="2.0" stroke="#b20000" stroke-width="4.0" fill="#b20000" />
<circle cx="640.0" cy="420.0" r="2.0" stroke="#b20000" stroke-width="4.0" fill="#b20000" />
</g>
<g>
<path d="M 429,225 L 459,225 L 459,255 L 429,255 Z" stroke="#000000" stroke-width="4.0" fill="none"/>
<circle cx="444.0" cy="240.0" r="9.0" stroke="#000000" stroke-width="4.0" fill="none" />
<text text-anchor="end" x="415.0" y="249.0" fill="#000000" style="font-size:24px"><tspan style="font-style:italic;">B</tspan></text>
<circle cx="460.0" cy="240.0" r="2.0" stroke="#b20000" stroke-width="4.0" fill="#b20000" />
</g>
<g>
<path d="M 429,265 L 459,265 L 459,295 L 429,295 Z" stroke="#000000" stroke-width="4.0" fill="none"/>
<circle cx="444.0" cy="280.0" r="9.0" stroke="#000000" stroke-width="4.0" fill="none" />
<text text-anchor="end" x="415.0" y="289.0" fill="#000000" style="font-size:24px"><tspan style="font-style:italic;">A</tspan></text>
<circle cx="460.0" cy="280.0" r="2.0" stroke="#b20000" stroke-width="4.0" fill="#b20000" />
</g>
<g>
<path d="M 429,325 L 459,325 L 459,355 L 429,355 Z" stroke="#000000" stroke-width="4.0" fill="none"/>
<circle cx="444.0" cy="340.0" r="9.0" stroke="#000000" stroke-width="4.0" fill="none" />
<text text-anchor="end" x="415.0" y="349.0" fill="#000000" style="font-size:24px"><tspan style="font-style:italic;">D</tspan></text>
<circle cx="460.0" cy="340.0" r="2.0" stroke="#b20000" stroke-width="4.0" fill="#b20000" />
</g>
<g>
<path d="M 429,365 L 459,365 L 459,395 L 429,395 Z" stroke="#000000" stroke-width="4.0" fill="none"/>
<circle cx="444.0" cy="380.0" r="9.0" stroke="#000000" stroke-width="4.0" fill="none" />
<text text-anchor="end" x="415.0" y="389.0" fill="#000000" style="font-size:24px"><tspan style="font-style:italic;">C</tspan></text>
<circle cx="460.0" cy="380.0" r="2.0" stroke="#b20000" stroke-width="4.0" fill="#b20000" />
</g>
<g>
<circle cx="956.0" cy="320.0" r="9.0" stroke="#000000" stroke-width="4.0" fill="none" />
<circle cx="956.0" cy="320.0" r="15.0" stroke="#000000" stroke-width="4.0" fill="none" />
<text text-anchor="start" x="985.0" y="329.0" fill="#000000" style="font-size:24px"><tspan style="font-style:italic;">Z</tspan></text>
<circle cx="940.0" cy="320.0" r="2.0" stroke="#0000b2" stroke-width="4.0" fill="#0000b2" />
</g>
</g>
</svg>