<?xml version="1.0" encoding="UTF-8" standalone="no"?>
<!-- Created with Digital by H.Neemann -->
<!-- created: Sat Nov 22 19:36:38 BRT 2025 -->

<svg
   xmlns:svg="http://www.w3.org/2000/svg"
   xmlns="http://www.w3.org/2000/svg"
   width="112.95mm"
   height="120.15mm"
   viewBox="687 123 753 801">
<g stroke-linecap="square">
<path d="M 1021,140 L 1021,149" stroke="#000000" stroke-width="4.0" fill="none"/>
<path d="M 1021,220 L 1021,211" stroke="#000000" stroke-width="4.0" fill="none"/>
<path d="M 1021,240 L 1021,249" stroke="#000000" stroke-width="4.0" fill="none"/>
<path d="M 1021,320 L 1021,311" stroke="#000000" stroke-width="4.0" fill="none"/>
<path d="M 1021,340 L 1021,349" stroke="#000000" stroke-width="4.0" fill="none"/>
<path d="M 1021,420 L 1021,411" stroke="#000000" stroke-width="4.0" fill="none"/>
<path d="M 1021,440 L 1021,449" stroke="#000000" stroke-width="4.0" fill="none"/>
<path d="M 1021,520 L 1021,511" stroke="#000000" stroke-width="4.0" fill="none"/>
<path d="M 1021,540 L 1021,549" stroke="#000000" stroke-width="4.0" fill="none"/>
<path d="M 1021,620 L 1021,611" stroke="#000000" stroke-width="4.0" fill="none"/>
<path d="M 1021,640 L 1021,649" stroke="#000000" stroke-width="4.0" fill="none"/>
<path d="M 1021,720 L 1021,711" stroke="#000000" stroke-width="4.0" fill="none"/>
<path d="M 1021,740 L 1021,749" stroke="#000000" stroke-width="4.0" fill="none"/>
<path d="M 1021,820 L 1021,811" stroke="#000000" stroke-width="4.0" fill="none"/>
<path d="M 1021,840 L 1021,849" stroke="#000000" stroke-width="4.0" fill="none"/>
<path d="M 1021,920 L 1021,911" stroke="#000000" stroke-width="4.0" fill="none"/>
<path d="M 1221,460 L 1221,509" stroke="#000000" stroke-width="4.0" fill="none"/>
<path d="M 1221,620 L 1221,571" stroke="#000000" stroke-width="4.0" fill="none"/>
<path d="M 1100,580 L 1140,580 L 1140,560 L 1220,560 L 1224,560" stroke="#0000b2" stroke-width="4.0" fill="none"/>
<path d="M 760,260 L 820,260 L 820,200 L 940,200 L 1000,200" stroke="#0000b2" stroke-width="4.0" fill="none"/>
<path d="M 960,160 L 960,260 L 1000,260" stroke="#0000b2" stroke-width="4.0" fill="none"/>
<path d="M 940,800 L 940,900 L 1020,900" stroke="#0000b2" stroke-width="4.0" fill="none"/>
<path d="M 980,740 L 980,840 L 1020,840" stroke="#0000b2" stroke-width="4.0" fill="none"/>
<path d="M 760,200 L 800,200 L 800,160 L 960,160 L 1000,160" stroke="#0000b2" stroke-width="4.0" fill="none"/>
<path d="M 1100,780 L 1180,780 L 1180,600 L 1220,600" stroke="#0000b2" stroke-width="4.0" fill="none"/>
<path d="M 760,780 L 780,780 L 780,920 L 1020,920" stroke="#0000b2" stroke-width="4.0" fill="none"/>
<path d="M 760,140 L 980,140 L 1000,140" stroke="#0000b2" stroke-width="4.0" fill="none"/>
<path d="M 940,300 L 940,400 L 1000,400" stroke="#0000b2" stroke-width="4.0" fill="none"/>
<path d="M 760,720 L 800,720 L 800,820 L 1020,820" stroke="#0000b2" stroke-width="4.0" fill="none"/>
<path d="M 960,560 L 960,660 L 1000,660" stroke="#0000b2" stroke-width="4.0" fill="none"/>
<path d="M 760,660 L 820,660 L 820,720 L 1020,720" stroke="#0000b2" stroke-width="4.0" fill="none"/>
<path d="M 1100,280 L 1180,280 L 1180,480 L 1220,480" stroke="#0000b2" stroke-width="4.0" fill="none"/>
<path d="M 760,600 L 840,600 L 840,620 L 1020,620" stroke="#0000b2" stroke-width="4.0" fill="none"/>
<path d="M 1300,540 L 1380,540" stroke="#0000b2" stroke-width="4.0" fill="none"/>
<path d="M 980,440 L 980,540 L 1000,540" stroke="#0000b2" stroke-width="4.0" fill="none"/>
<path d="M 760,540 L 900,540 L 900,520 L 1020,520" stroke="#0000b2" stroke-width="4.0" fill="none"/>
<path d="M 1100,480 L 1140,480 L 1140,520 L 1220,520 L 1224,520" stroke="#0000b2" stroke-width="4.0" fill="none"/>
<path d="M 760,480 L 880,480 L 880,420 L 1020,420" stroke="#0000b2" stroke-width="4.0" fill="none"/>
<path d="M 940,700 L 940,800 L 1020,800" stroke="#0000b2" stroke-width="4.0" fill="none"/>
<path d="M 760,420 L 860,420 L 860,320 L 1020,320" stroke="#0000b2" stroke-width="4.0" fill="none"/>
<path d="M 1100,680 L 1160,680 L 1160,580 L 1220,580" stroke="#0000b2" stroke-width="4.0" fill="none"/>
<path d="M 960,260 L 960,360 L 1020,360" stroke="#0000b2" stroke-width="4.0" fill="none"/>
<path d="M 760,360 L 840,360 L 840,220 L 1020,220" stroke="#0000b2" stroke-width="4.0" fill="none"/>
<path d="M 940,200 L 940,300 L 1000,300" stroke="#0000b2" stroke-width="4.0" fill="none"/>
<path d="M 1100,880 L 1200,880 L 1200,620 L 1220,620" stroke="#0000b2" stroke-width="4.0" fill="none"/>
<path d="M 980,140 L 980,240 L 1020,240" stroke="#0000b2" stroke-width="4.0" fill="none"/>
<path d="M 1100,180 L 1200,180 L 1200,460 L 1220,460" stroke="#0000b2" stroke-width="4.0" fill="none"/>
<path d="M 940,400 L 940,500 L 1000,500" stroke="#0000b2" stroke-width="4.0" fill="none"/>
<path d="M 1100,380 L 1160,380 L 1160,500 L 1220,500" stroke="#0000b2" stroke-width="4.0" fill="none"/>
<path d="M 1020,460 L 960,460 L 960,560 L 1000,560" stroke="#0000b2" stroke-width="4.0" fill="none"/>
<path d="M 1020,860 L 960,860 L 960,760 L 1020,760" stroke="#0000b2" stroke-width="4.0" fill="none"/>
<path d="M 960,360 L 960,460" stroke="#0000b2" stroke-width="4.0" fill="none"/>
<path d="M 960,660 L 960,760" stroke="#0000b2" stroke-width="4.0" fill="none"/>
<path d="M 1020,600 L 940,600 L 940,700 L 1020,700" stroke="#0000b2" stroke-width="4.0" fill="none"/>
<path d="M 940,500 L 940,600" stroke="#0000b2" stroke-width="4.0" fill="none"/>
<path d="M 1000,340 L 980,340 L 980,440 L 1020,440" stroke="#0000b2" stroke-width="4.0" fill="none"/>
<path d="M 1020,640 L 980,640 L 980,740 L 1000,740" stroke="#0000b2" stroke-width="4.0" fill="none"/>
<path d="M 980,240 L 980,340" stroke="#0000b2" stroke-width="4.0" fill="none"/>
<path d="M 980,540 L 980,640" stroke="#0000b2" stroke-width="4.0" fill="none"/>
<g>
<circle cx="980.0" cy="640.0" r="4.0" stroke="#0000b2" stroke-width="4.0" fill="#0000b2" />
<circle cx="960.0" cy="260.0" r="4.0" stroke="#0000b2" stroke-width="4.0" fill="#0000b2" />
<circle cx="940.0" cy="200.0" r="4.0" stroke="#0000b2" stroke-width="4.0" fill="#0000b2" />
<circle cx="960.0" cy="460.0" r="4.0" stroke="#0000b2" stroke-width="4.0" fill="#0000b2" />
<circle cx="980.0" cy="140.0" r="4.0" stroke="#0000b2" stroke-width="4.0" fill="#0000b2" />
<circle cx="940.0" cy="400.0" r="4.0" stroke="#0000b2" stroke-width="4.0" fill="#0000b2" />
<circle cx="980.0" cy="340.0" r="4.0" stroke="#0000b2" stroke-width="4.0" fill="#0000b2" />
<circle cx="960.0" cy="660.0" r="4.0" stroke="#0000b2" stroke-width="4.0" fill="#0000b2" />
<circle cx="940.0" cy="600.0" r="4.0" stroke="#0000b2" stroke-width="4.0" fill="#0000b2" />
<circle cx="980.0" cy="540.0" r="4.0" stroke="#0000b2" stroke-width="4.0" fill="#0000b2" />
<circle cx="960.0" cy="160.0" r="4.0" stroke="#0000b2" stroke-width="4.0" fill="#0000b2" />
<circle cx="940.0" cy="800.0" r="4.0" stroke="#0000b2" stroke-width="4.0" fill="#0000b2" />
<circle cx="980.0" cy="740.0" r="4.0" stroke="#0000b2" stroke-width="4.0" fill="#0000b2" />
<circle cx="960.0" cy="360.0" r="4.0" stroke="#0000b2" stroke-width="4.0" fill="#0000b2" />
<circle cx="940.0" cy="300.0" r="4.0" stroke="#0000b2" stroke-width="4.0" fill="#0000b2" />
<circle cx="960.0" cy="560.0" r="4.0" stroke="#0000b2" stroke-width="4.0" fill="#0000b2" />
<circle cx="980.0" cy="240.0" r="4.0" stroke="#0000b2" stroke-width="4.0" fill="#0000b2" />
<circle cx="940.0" cy="500.0" r="4.0" stroke="#0000b2" stroke-width="4.0" fill="#0000b2" />
<circle cx="980.0" cy="440.0" r="4.0" stroke="#0000b2" stroke-width="4.0" fill="#0000b2" />
<circle cx="960.0" cy="760.0" r="4.0" stroke="#0000b2" stroke-width="4.0" fill="#0000b2" />
<circle cx="940.0" cy="700.0" r="4.0" stroke="#0000b2" stroke-width="4.0" fill="#0000b2" />
</g>
<g>
<path d="M 729,125 L 759,125 L 759,155 L 729,155 Z" stroke="#000000" stroke-width="4.0" fill="none"/>
<circle cx="744.0" cy="140.0" r="9.0" stroke="#000000" stroke-width="4.0" fill="none" />
<text text-anchor="end" x="715.0" y="149.0" fill="#000000" style="font-size:24px"><tspan style="font-style:italic;">S<tspan style="font-size:80%;baseline-shift:sub;">0</tspan></tspan></text>
<circle cx="760.0" cy="140.0" r="2.0" stroke="#b20000" stroke-width="4.0" fill="#b20000" />
</g>
<g>
<path d="M 729,185 L 759,185 L 759,215 L 729,215 Z" stroke="#000000" stroke-width="4.0" fill="none"/>
<circle cx="744.0" cy="200.0" r="9.0" stroke="#000000" stroke-width="4.0" fill="none" />
<text text-anchor="end" x="715.0" y="209.0" fill="#000000" style="font-size:24px"><tspan style="font-style:italic;">S<tspan style="font-size:80%;baseline-shift:sub;">1</tspan></tspan></text>
<circle cx="760.0" cy="200.0" r="2.0" stroke="#b20000" stroke-width="4.0" fill="#b20000" />
</g>
<g>
<path d="M 729,245 L 759,245 L 759,275 L 729,275 Z" stroke="#000000" stroke-width="4.0" fill="none"/>
<circle cx="744.0" cy="260.0" r="9.0" stroke="#000000" stroke-width="4.0" fill="none" />
<text text-anchor="end" x="715.0" y="269.0" fill="#000000" style="font-size:24px"><tspan style="font-style:italic;">S<tspan style="font-size:80%;baseline-shift:sub;">2</tspan></tspan></text>
<circle cx="760.0" cy="260.0" r="2.0" stroke="#b20000" stroke-width="4.0" fill="#b20000" />
</g>
<g>
<path d="M 729,345 L 759,345 L 759,375 L 729,375 Z" stroke="#000000" stroke-width="4.0" fill="none"/>
<circle cx="744.0" cy="360.0" r="9.0" stroke="#000000" stroke-width="4.0" fill="none" />
<text text-anchor="end" x="715.0" y="369.0" fill="#000000" style="font-size:24px"><tspan style="font-style:italic;">A<tspan style="font-size:80%;baseline-shift:sub;">0</tspan></tspan></text>
<circle cx="760.0" cy="360.0" r="2.0" stroke="#b20000" stroke-width="4.0" fill="#b20000" />
</g>
<g>
<path d="M 729,405 L 759,405 L 759,435 L 729,435 Z" stroke="#000000" stroke-width="4.0" fill="none"/>
<circle cx="744.0" cy="420.0" r="9.0" stroke="#000000" stroke-width="4.0" fill="none" />
<text text-anchor="end" x="715.0" y="429.0" fill="#000000" style="font-size:24px"><tspan style="font-style:italic;">A<tspan style="font-size:80%;baseline-shift:sub;">1</tspan></tspan></text>
<circle cx="760.0" cy="420.0" r="2.0" stroke="#b20000" stroke-width="4.0" fill="#b20000" />
</g>
<g>
<path d="M 729,465 L 759,465 L 759,495 L 729,495 Z" stroke="#000000" stroke-width="4.0" fill="none"/>
<circle cx="744.0" cy="480.0" r="9.0" stroke="#000000" stroke-width="4.0" fill="none" />
<text text-anchor="end" x="715.0" y="489.0" fill="#000000" style="font-size:24px"><tspan style="font-style:italic;">A<tspan style="font-size:80%;baseline-shift:sub;">2</tspan></tspan></text>
<circle cx="760.0" cy="480.0" r="2.0" stroke="#b20000" stroke-width="4.0" fill="#b20000" />
</g>
<g>
<path d="M 729,525 L 759,525 L 759,555 L 729,555 Z" stroke="#000000" stroke-width="4.0" fill="none"/>
<circle cx="744.0" cy="540.0" r="9.0" stroke="#000000" stroke-width="4.0" fill="none" />
<text text-anchor="end" x="715.0" y="549.0" fill="#000000" style="font-size:24px"><tspan style="font-style:italic;">A<tspan style="font-size:80%;baseline-shift:sub;">3</tspan></tspan></text>
<circle cx="760.0" cy="540.0" r="2.0" stroke="#b20000" stroke-width="4.0" fill="#b20000" />
</g>
<g>
<path d="M 729,585 L 759,585 L 759,615 L 729,615 Z" stroke="#000000" stroke-width="4.0" fill="none"/>
<circle cx="744.0" cy="600.0" r="9.0" stroke="#000000" stroke-width="4.0" fill="none" />
<text text-anchor="end" x="715.0" y="609.0" fill="#000000" style="font-size:24px"><tspan style="font-style:italic;">A<tspan style="font-size:80%;baseline-shift:sub;">4</tspan></tspan></text>
<circle cx="760.0" cy="600.0" r="2.0" stroke="#b20000" stroke-width="4.0" fill="#b20000" />
</g>
<g>
<path d="M 729,645 L 759,645 L 759,675 L 729,675 Z" stroke="#000000" stroke-width="4.0" fill="none"/>
<circle cx="744.0" cy="660.0" r="9.0" stroke="#000000" stroke-width="4.0" fill="none" />
<text text-anchor="end" x="715.0" y="669.0" fill="#000000" style="font-size:24px"><tspan style="font-style:italic;">A<tspan style="font-size:80%;baseline-shift:sub;">5</tspan></tspan></text>
<circle cx="760.0" cy="660.0" r="2.0" stroke="#b20000" stroke-width="4.0" fill="#b20000" />
</g>
<g>
<path d="M 729,705 L 759,705 L 759,735 L 729,735 Z" stroke="#000000" stroke-width="4.0" fill="none"/>
<circle cx="744.0" cy="720.0" r="9.0" stroke="#000000" stroke-width="4.0" fill="none" />
<text text-anchor="end" x="715.0" y="729.0" fill="#000000" style="font-size:24px"><tspan style="font-style:italic;">A<tspan style="font-size:80%;baseline-shift:sub;">6</tspan></tspan></text>
<circle cx="760.0" cy="720.0" r="2.0" stroke="#b20000" stroke-width="4.0" fill="#b20000" />
</g>
<g>
<path d="M 729,765 L 759,765 L 759,795 L 729,795 Z" stroke="#000000" stroke-width="4.0" fill="none"/>
<circle cx="744.0" cy="780.0" r="9.0" stroke="#000000" stroke-width="4.0" fill="none" />
<text text-anchor="end" x="715.0" y="789.0" fill="#000000" style="font-size:24px"><tspan style="font-style:italic;">A<tspan style="font-size:80%;baseline-shift:sub;">7</tspan></tspan></text>
<circle cx="760.0" cy="780.0" r="2.0" stroke="#b20000" stroke-width="4.0" fill="#b20000" />
</g>
<g>
<path d="M 1070,210 L 1021,210 L 1021,150 L 1070,150 C 1080,150 1100,160 1099,180 C 1099,200 1080,210 1070,210 Z" stroke="#000000" stroke-width="4.0" fill="none"/>
<circle cx="1010.0" cy="140.0" r="8.0" stroke="#000000" stroke-width="4.0" fill="none" />
<circle cx="1010.0" cy="160.0" r="8.0" stroke="#000000" stroke-width="4.0" fill="none" />
<circle cx="1010.0" cy="200.0" r="8.0" stroke="#000000" stroke-width="4.0" fill="none" />
<circle cx="1000.0" cy="140.0" r="2.0" stroke="#0000b2" stroke-width="4.0" fill="#0000b2" />
<circle cx="1000.0" cy="160.0" r="2.0" stroke="#0000b2" stroke-width="4.0" fill="#0000b2" />
<circle cx="1000.0" cy="200.0" r="2.0" stroke="#0000b2" stroke-width="4.0" fill="#0000b2" />
<circle cx="1020.0" cy="220.0" r="2.0" stroke="#0000b2" stroke-width="4.0" fill="#0000b2" />
<circle cx="1100.0" cy="180.0" r="2.0" stroke="#b20000" stroke-width="4.0" fill="#b20000" />
</g>
<g>
<path d="M 1070,310 L 1021,310 L 1021,250 L 1070,250 C 1080,250 1100,260 1099,280 C 1099,300 1080,310 1070,310 Z" stroke="#000000" stroke-width="4.0" fill="none"/>
<circle cx="1010.0" cy="260.0" r="8.0" stroke="#000000" stroke-width="4.0" fill="none" />
<circle cx="1010.0" cy="300.0" r="8.0" stroke="#000000" stroke-width="4.0" fill="none" />
<circle cx="1020.0" cy="240.0" r="2.0" stroke="#0000b2" stroke-width="4.0" fill="#0000b2" />
<circle cx="1000.0" cy="260.0" r="2.0" stroke="#0000b2" stroke-width="4.0" fill="#0000b2" />
<circle cx="1000.0" cy="300.0" r="2.0" stroke="#0000b2" stroke-width="4.0" fill="#0000b2" />
<circle cx="1020.0" cy="320.0" r="2.0" stroke="#0000b2" stroke-width="4.0" fill="#0000b2" />
<circle cx="1100.0" cy="280.0" r="2.0" stroke="#b20000" stroke-width="4.0" fill="#b20000" />
</g>
<g>
<path d="M 1070,410 L 1021,410 L 1021,350 L 1070,350 C 1080,350 1100,360 1099,380 C 1099,400 1080,410 1070,410 Z" stroke="#000000" stroke-width="4.0" fill="none"/>
<circle cx="1010.0" cy="340.0" r="8.0" stroke="#000000" stroke-width="4.0" fill="none" />
<circle cx="1010.0" cy="400.0" r="8.0" stroke="#000000" stroke-width="4.0" fill="none" />
<circle cx="1000.0" cy="340.0" r="2.0" stroke="#0000b2" stroke-width="4.0" fill="#0000b2" />
<circle cx="1020.0" cy="360.0" r="2.0" stroke="#0000b2" stroke-width="4.0" fill="#0000b2" />
<circle cx="1000.0" cy="400.0" r="2.0" stroke="#0000b2" stroke-width="4.0" fill="#0000b2" />
<circle cx="1020.0" cy="420.0" r="2.0" stroke="#0000b2" stroke-width="4.0" fill="#0000b2" />
<circle cx="1100.0" cy="380.0" r="2.0" stroke="#b20000" stroke-width="4.0" fill="#b20000" />
</g>
<g>
<path d="M 1070,510 L 1021,510 L 1021,450 L 1070,450 C 1080,450 1100,460 1099,480 C 1099,500 1080,510 1070,510 Z" stroke="#000000" stroke-width="4.0" fill="none"/>
<circle cx="1010.0" cy="500.0" r="8.0" stroke="#000000" stroke-width="4.0" fill="none" />
<circle cx="1020.0" cy="440.0" r="2.0" stroke="#0000b2" stroke-width="4.0" fill="#0000b2" />
<circle cx="1020.0" cy="460.0" r="2.0" stroke="#0000b2" stroke-width="4.0" fill="#0000b2" />
<circle cx="1000.0" cy="500.0" r="2.0" stroke="#0000b2" stroke-width="4.0" fill="#0000b2" />
<circle cx="1020.0" cy="520.0" r="2.0" stroke="#0000b2" stroke-width="4.0" fill="#0000b2" />
<circle cx="1100.0" cy="480.0" r="2.0" stroke="#b20000" stroke-width="4.0" fill="#b20000" />
</g>
<g>
<path d="M 1070,610 L 1021,610 L 1021,550 L 1070,550 C 1080,550 1100,560 1099,580 C 1099,600 1080,610 1070,610 Z" stroke="#000000" stroke-width="4.0" fill="none"/>
<circle cx="1010.0" cy="540.0" r="8.0" stroke="#000000" stroke-width="4.0" fill="none" />
<circle cx="1010.0" cy="560.0" r="8.0" stroke="#000000" stroke-width="4.0" fill="none" />
<circle cx="1000.0" cy="540.0" r="2.0" stroke="#0000b2" stroke-width="4.0" fill="#0000b2" />
<circle cx="1000.0" cy="560.0" r="2.0" stroke="#0000b2" stroke-width="4.0" fill="#0000b2" />
<circle cx="1020.0" cy="600.0" r="2.0" stroke="#0000b2" stroke-width="4.0" fill="#0000b2" />
<circle cx="1020.0" cy="620.0" r="2.0" stroke="#0000b2" stroke-width="4.0" fill="#0000b2" />
<circle cx="1100.0" cy="580.0" r="2.0" stroke="#b20000" stroke-width="4.0" fill="#b20000" />
</g>
<g>
<path d="M 1070,710 L 1021,710 L 1021,650 L 1070,650 C 1080,650 1100,660 1099,680 C 1099,700 1080,710 1070,710 Z" stroke="#000000" stroke-width="4.0" fill="none"/>
<circle cx="1010.0" cy="660.0" r="8.0" stroke="#000000" stroke-width="4.0" fill="none" />
<circle cx="1020.0" cy="640.0" r="2.0" stroke="#0000b2" stroke-width="4.0" fill="#0000b2" />
<circle cx="1000.0" cy="660.0" r="2.0" stroke="#0000b2" stroke-width="4.0" fill="#0000b2" />
<circle cx="1020.0" cy="700.0" r="2.0" stroke="#0000b2" stroke-width="4.0" fill="#0000b2" />
<circle cx="1020.0" cy="720.0" r="2.0" stroke="#0000b2" stroke-width="4.0" fill="#0000b2" />
<circle cx="1100.0" cy="680.0" r="2.0" stroke="#b20000" stroke-width="4.0" fill="#b20000" />
</g>
<g>
<path d="M 1070,810 L 1021,810 L 1021,750 L 1070,750 C 1080,750 1100,760 1099,780 C 1099,800 1080,810 1070,810 Z" stroke="#000000" stroke-width="4.0" fill="none"/>
<circle cx="1010.0" cy="740.0" r="8.0" stroke="#000000" stroke-width="4.0" fill="none" />
<circle cx="1000.0" cy="740.0" r="2.0" stroke="#0000b2" stroke-width="4.0" fill="#0000b2" />
<circle cx="1020.0" cy="760.0" r="2.0" stroke="#0000b2" stroke-width="4.0" fill="#0000b2" />
<circle cx="1020.0" cy="800.0" r="2.0" stroke="#0000b2" stroke-width="4.0" fill="#0000b2" />
<circle cx="1020.0" cy="820.0" r="2.0" stroke="#0000b2" stroke-width="4.0" fill="#0000b2" />
<circle cx="1100.0" cy="780.0" r="2.0" stroke="#b20000" stroke-width="4.0" fill="#b20000" />
</g>
<g>
<path d="M 1070,910 L 1021,910 L 1021,850 L 1070,850 C 1080,850 1100,860 1099,880 C 1099,900 1080,910 1070,910 Z" stroke="#000000" stroke-width="4.0" fill="none"/>
<circle cx="1020.0" cy="840.0" r="2.0" stroke="#0000b2" stroke-width="4.0" fill="#0000b2" />
<circle cx="1020.0" cy="860.0" r="2.0" stroke="#0000b2" stroke-width="4.0" fill="#0000b2" />
<circle cx="1020.0" cy="900.0" r="2.0" stroke="#0000b2" stroke-width="4.0" fill="#0000b2" />
<circle cx="1020.0" cy="920.0" r="2.0" stroke="#0000b2" stroke-width="4.0" fill="#0000b2" />
<circle cx="1100.0" cy="880.0" r="2.0" stroke="#b20000" stroke-width="4.0" fill="#b20000" />
</g>
<g>
<path d="M 1250,570 L 1220,570 C 1230,554 1230,526 1220,510 L 1240,510 C 1270,510 1290,520 1300,540 C 1290,560 1270,570 1250,570 Z" stroke="#000000" stroke-width="4.0" fill="none"/>
<circle cx="1220.0" cy="460.0" r="2.0" stroke="#0000b2" stroke-width="4.0" fill="#0000b2" />
<circle cx="1220.0" cy="480.0" r="2.0" stroke="#0000b2" stroke-width="4.0" fill="#0000b2" />
<circle cx="1220.0" cy="500.0" r="2.0" stroke="#0000b2" stroke-width="4.0" fill="#0000b2" />
<circle cx="1220.0" cy="520.0" r="2.0" stroke="#0000b2" stroke-width="4.0" fill="#0000b2" />
<circle cx="1220.0" cy="560.0" r="2.0" stroke="#0000b2" stroke-width="4.0" fill="#0000b2" />
<circle cx="1220.0" cy="580.0" r="2.0" stroke="#0000b2" stroke-width="4.0" fill="#0000b2" />
<circle cx="1220.0" cy="600.0" r="2.0" stroke="#0000b2" stroke-width="4.0" fill="#0000b2" />
<circle cx="1220.0" cy="620.0" r="2.0" stroke="#0000b2" stroke-width="4.0" fill="#0000b2" />
<circle cx="1300.0" cy="540.0" r="2.0" stroke="#b20000" stroke-width="4.0" fill="#b20000" />
</g>
<g>
<circle cx="1396.0" cy="540.0" r="9.0" stroke="#000000" stroke-width="4.0" fill="none" />
<circle cx="1396.0" cy="540.0" r="15.0" stroke="#000000" stroke-width="4.0" fill="none" />
<text text-anchor="start" x="1425.0" y="549.0" fill="#000000" style="font-size:24px"><tspan style="font-style:italic;">Z</tspan></text>
<circle cx="1380.0" cy="540.0" r="2.0" stroke="#0000b2" stroke-width="4.0" fill="#0000b2" />
</g>
<g>
<path d="M 1290,750 L 1370,750 L 1370,790 L 1290,790 Z" stroke="#b4ffb4" stroke-width="0.0" fill="#b4ffb4" fill-opacity="0.7843137254901961"/>
<path d="M 1290,750 L 1370,750 L 1370,790 L 1290,790 Z" stroke="#000000" stroke-width="2.0" fill="none"/>
<text text-anchor="middle" x="1330.0" y="779.0" fill="#000000" style="font-size:24px">Test</text>
<text text-anchor="middle" x="1330.0" y="740.0" fill="#000000" style="font-size:24px">t8x256</text>
</g>
<g>
<path d="M 1290,650 L 1370,650 L 1370,690 L 1290,690 Z" stroke="#b4ffb4" stroke-width="0.0" fill="#b4ffb4" fill-opacity="0.7843137254901961"/>
<path d="M 1290,650 L 1370,650 L 1370,690 L 1290,690 Z" stroke="#000000" stroke-width="2.0" fill="none"/>
<text text-anchor="middle" x="1330.0" y="679.0" fill="#000000" style="font-size:24px">Test</text>
<text text-anchor="middle" x="1330.0" y="640.0" fill="#000000" style="font-size:24px">t8x9</text>
</g>
</g>
</svg>