<?xml version="1.0" encoding="UTF-8" standalone="no"?>
<!-- Created with Digital by H.Neemann -->
<!-- created: Sat Nov 22 19:58:37 BRT 2025 -->

<svg
   xmlns:svg="http://www.w3.org/2000/svg"
   xmlns="http://www.w3.org/2000/svg"
   width="112.95mm"
   height="104.85mm"
   viewBox="687 123 753 699">
<g stroke-linecap="square">
<path d="M 945,351 L 935,351" stroke="#000000" stroke-width="4.0" fill="none"/>
<path d="M 960,341 L 920,341" stroke="#000000" stroke-width="4.0" fill="none"/>
<path d="M 945,411 L 935,411" stroke="#000000" stroke-width="4.0" fill="none"/>
<path d="M 960,401 L 920,401" stroke="#000000" stroke-width="4.0" fill="none"/>
<path d="M 945,471 L 935,471" stroke="#000000" stroke-width="4.0" fill="none"/>
<path d="M 960,461 L 920,461" stroke="#000000" stroke-width="4.0" fill="none"/>
<path d="M 945,531 L 935,531" stroke="#000000" stroke-width="4.0" fill="none"/>
<path d="M 960,521 L 920,521" stroke="#000000" stroke-width="4.0" fill="none"/>
<path d="M 945,591 L 935,591" stroke="#000000" stroke-width="4.0" fill="none"/>
<path d="M 960,581 L 920,581" stroke="#000000" stroke-width="4.0" fill="none"/>
<path d="M 945,651 L 935,651" stroke="#000000" stroke-width="4.0" fill="none"/>
<path d="M 960,641 L 920,641" stroke="#000000" stroke-width="4.0" fill="none"/>
<path d="M 945,711 L 935,711" stroke="#000000" stroke-width="4.0" fill="none"/>
<path d="M 960,701 L 920,701" stroke="#000000" stroke-width="4.0" fill="none"/>
<path d="M 945,771 L 935,771" stroke="#000000" stroke-width="4.0" fill="none"/>
<path d="M 960,761 L 920,761" stroke="#000000" stroke-width="4.0" fill="none"/>
<path d="M 1065,351 L 1055,351" stroke="#000000" stroke-width="4.0" fill="none"/>
<path d="M 1080,341 L 1040,341" stroke="#000000" stroke-width="4.0" fill="none"/>
<path d="M 1065,471 L 1055,471" stroke="#000000" stroke-width="4.0" fill="none"/>
<path d="M 1080,461 L 1040,461" stroke="#000000" stroke-width="4.0" fill="none"/>
<path d="M 1065,591 L 1055,591" stroke="#000000" stroke-width="4.0" fill="none"/>
<path d="M 1080,581 L 1040,581" stroke="#000000" stroke-width="4.0" fill="none"/>
<path d="M 1065,711 L 1055,711" stroke="#000000" stroke-width="4.0" fill="none"/>
<path d="M 1080,701 L 1040,701" stroke="#000000" stroke-width="4.0" fill="none"/>
<path d="M 1185,351 L 1175,351" stroke="#000000" stroke-width="4.0" fill="none"/>
<path d="M 1200,341 L 1160,341" stroke="#000000" stroke-width="4.0" fill="none"/>
<path d="M 1185,591 L 1175,591" stroke="#000000" stroke-width="4.0" fill="none"/>
<path d="M 1200,581 L 1160,581" stroke="#000000" stroke-width="4.0" fill="none"/>
<path d="M 800,140 L 800,160 L 900,160 L 900,380 L 920,380 L 920,400" stroke="#0000b2" stroke-width="4.0" fill="none"/>
<path d="M 760,480 L 920,480" stroke="#0000b2" stroke-width="4.0" fill="none"/>
<path d="M 960,480 L 980,480 L 1040,480" stroke="#0000b2" stroke-width="4.0" fill="none"/>
<path d="M 1080,480 L 1100,480 L 1100,360" stroke="#0000b2" stroke-width="4.0" fill="none"/>
<path d="M 760,260 L 800,260 L 820,260" stroke="#0000b2" stroke-width="4.0" fill="none"/>
<path d="M 860,260 L 1120,260 L 1120,320 L 1160,320 L 1160,340" stroke="#0000b2" stroke-width="4.0" fill="none"/>
<path d="M 760,420 L 920,420" stroke="#0000b2" stroke-width="4.0" fill="none"/>
<path d="M 960,420 L 980,420 L 980,360" stroke="#0000b2" stroke-width="4.0" fill="none"/>
<path d="M 760,200 L 800,200 L 820,200" stroke="#0000b2" stroke-width="4.0" fill="none"/>
<path d="M 860,200 L 1000,200 L 1000,320 L 1040,320 L 1040,340" stroke="#0000b2" stroke-width="4.0" fill="none"/>
<path d="M 760,360 L 920,360" stroke="#0000b2" stroke-width="4.0" fill="none"/>
<path d="M 960,360 L 980,360 L 1040,360" stroke="#0000b2" stroke-width="4.0" fill="none"/>
<path d="M 1080,360 L 1100,360 L 1160,360" stroke="#0000b2" stroke-width="4.0" fill="none"/>
<path d="M 1200,360 L 1220,360 L 1220,540 L 1380,540" stroke="#0000b2" stroke-width="4.0" fill="none"/>
<path d="M 880,820 L 880,680 L 920,680 L 920,700" stroke="#0000b2" stroke-width="4.0" fill="none"/>
<path d="M 1020,820 L 1020,680 L 1040,680 L 1040,700" stroke="#0000b2" stroke-width="4.0" fill="none"/>
<path d="M 760,140 L 800,140 L 820,140" stroke="#0000b2" stroke-width="4.0" fill="none"/>
<path d="M 860,140 L 880,140 L 880,320 L 920,320 L 920,340" stroke="#0000b2" stroke-width="4.0" fill="none"/>
<path d="M 760,780 L 920,780" stroke="#0000b2" stroke-width="4.0" fill="none"/>
<path d="M 960,780 L 980,780 L 980,720" stroke="#0000b2" stroke-width="4.0" fill="none"/>
<path d="M 760,720 L 920,720" stroke="#0000b2" stroke-width="4.0" fill="none"/>
<path d="M 960,720 L 980,720 L 1040,720" stroke="#0000b2" stroke-width="4.0" fill="none"/>
<path d="M 1080,720 L 1100,720 L 1100,600" stroke="#0000b2" stroke-width="4.0" fill="none"/>
<path d="M 1000,820 L 1000,560 L 1040,560 L 1040,580" stroke="#0000b2" stroke-width="4.0" fill="none"/>
<path d="M 760,660 L 920,660" stroke="#0000b2" stroke-width="4.0" fill="none"/>
<path d="M 960,660 L 980,660 L 980,600" stroke="#0000b2" stroke-width="4.0" fill="none"/>
<path d="M 900,380 L 900,500 L 920,500 L 920,520" stroke="#0000b2" stroke-width="4.0" fill="none"/>
<path d="M 760,600 L 920,600" stroke="#0000b2" stroke-width="4.0" fill="none"/>
<path d="M 960,600 L 980,600 L 1040,600" stroke="#0000b2" stroke-width="4.0" fill="none"/>
<path d="M 1080,600 L 1100,600 L 1160,600" stroke="#0000b2" stroke-width="4.0" fill="none"/>
<path d="M 1200,600 L 1220,600 L 1220,540" stroke="#0000b2" stroke-width="4.0" fill="none"/>
<path d="M 800,260 L 800,280 L 1140,280 L 1140,560 L 1160,560 L 1160,580" stroke="#0000b2" stroke-width="4.0" fill="none"/>
<path d="M 760,540 L 920,540" stroke="#0000b2" stroke-width="4.0" fill="none"/>
<path d="M 960,540 L 980,540 L 980,480" stroke="#0000b2" stroke-width="4.0" fill="none"/>
<path d="M 800,200 L 800,220 L 1020,220 L 1020,440 L 1040,440 L 1040,460" stroke="#0000b2" stroke-width="4.0" fill="none"/>
<path d="M 1120,320 L 1120,820" stroke="#0000b2" stroke-width="4.0" fill="none"/>
<path d="M 920,760 L 920,740 L 900,740 L 900,620 L 920,620 L 920,640" stroke="#0000b2" stroke-width="4.0" fill="none"/>
<path d="M 900,740 L 900,820" stroke="#0000b2" stroke-width="4.0" fill="none"/>
<path d="M 900,500 L 900,620" stroke="#0000b2" stroke-width="4.0" fill="none"/>
<path d="M 1000,320 L 1000,560" stroke="#0000b2" stroke-width="4.0" fill="none"/>
<path d="M 920,580 L 920,560 L 880,560 L 880,440 L 920,440 L 920,460" stroke="#0000b2" stroke-width="4.0" fill="none"/>
<path d="M 880,560 L 880,680" stroke="#0000b2" stroke-width="4.0" fill="none"/>
<path d="M 880,320 L 880,440" stroke="#0000b2" stroke-width="4.0" fill="none"/>
<path d="M 1140,560 L 1140,820" stroke="#0000b2" stroke-width="4.0" fill="none"/>
<path d="M 1020,440 L 1020,680" stroke="#0000b2" stroke-width="4.0" fill="none"/>
<path d="M 924,346 L 956,346" stroke="#000000" stroke-width="2.0" fill="none"/>
<path d="M 940,358 L 940,363" stroke="#000000" stroke-width="2.0" fill="none"/>
<path d="M 924,406 L 956,406" stroke="#000000" stroke-width="2.0" fill="none"/>
<path d="M 940,418 L 940,423" stroke="#000000" stroke-width="2.0" fill="none"/>
<path d="M 924,466 L 956,466" stroke="#000000" stroke-width="2.0" fill="none"/>
<path d="M 940,478 L 940,483" stroke="#000000" stroke-width="2.0" fill="none"/>
<path d="M 924,526 L 956,526" stroke="#000000" stroke-width="2.0" fill="none"/>
<path d="M 940,538 L 940,543" stroke="#000000" stroke-width="2.0" fill="none"/>
<path d="M 924,586 L 956,586" stroke="#000000" stroke-width="2.0" fill="none"/>
<path d="M 940,598 L 940,603" stroke="#000000" stroke-width="2.0" fill="none"/>
<path d="M 924,646 L 956,646" stroke="#000000" stroke-width="2.0" fill="none"/>
<path d="M 940,658 L 940,663" stroke="#000000" stroke-width="2.0" fill="none"/>
<path d="M 924,706 L 956,706" stroke="#000000" stroke-width="2.0" fill="none"/>
<path d="M 940,718 L 940,723" stroke="#000000" stroke-width="2.0" fill="none"/>
<path d="M 924,766 L 956,766" stroke="#000000" stroke-width="2.0" fill="none"/>
<path d="M 940,778 L 940,783" stroke="#000000" stroke-width="2.0" fill="none"/>
<path d="M 1044,346 L 1076,346" stroke="#000000" stroke-width="2.0" fill="none"/>
<path d="M 1060,358 L 1060,363" stroke="#000000" stroke-width="2.0" fill="none"/>
<path d="M 1044,466 L 1076,466" stroke="#000000" stroke-width="2.0" fill="none"/>
<path d="M 1060,478 L 1060,483" stroke="#000000" stroke-width="2.0" fill="none"/>
<path d="M 1044,586 L 1076,586" stroke="#000000" stroke-width="2.0" fill="none"/>
<path d="M 1060,598 L 1060,603" stroke="#000000" stroke-width="2.0" fill="none"/>
<path d="M 1044,706 L 1076,706" stroke="#000000" stroke-width="2.0" fill="none"/>
<path d="M 1060,718 L 1060,723" stroke="#000000" stroke-width="2.0" fill="none"/>
<path d="M 1164,346 L 1196,346" stroke="#000000" stroke-width="2.0" fill="none"/>
<path d="M 1180,358 L 1180,363" stroke="#000000" stroke-width="2.0" fill="none"/>
<path d="M 1164,586 L 1196,586" stroke="#000000" stroke-width="2.0" fill="none"/>
<path d="M 1180,598 L 1180,603" stroke="#000000" stroke-width="2.0" fill="none"/>
<g>
<circle cx="980.0" cy="480.0" r="4.0" stroke="#0000b2" stroke-width="4.0" fill="#0000b2" />
<circle cx="880.0" cy="320.0" r="4.0" stroke="#0000b2" stroke-width="4.0" fill="#0000b2" />
<circle cx="1000.0" cy="320.0" r="4.0" stroke="#0000b2" stroke-width="4.0" fill="#0000b2" />
<circle cx="1120.0" cy="320.0" r="4.0" stroke="#0000b2" stroke-width="4.0" fill="#0000b2" />
<circle cx="800.0" cy="260.0" r="4.0" stroke="#0000b2" stroke-width="4.0" fill="#0000b2" />
<circle cx="900.0" cy="740.0" r="4.0" stroke="#0000b2" stroke-width="4.0" fill="#0000b2" />
<circle cx="800.0" cy="200.0" r="4.0" stroke="#0000b2" stroke-width="4.0" fill="#0000b2" />
<circle cx="980.0" cy="360.0" r="4.0" stroke="#0000b2" stroke-width="4.0" fill="#0000b2" />
<circle cx="1100.0" cy="360.0" r="4.0" stroke="#0000b2" stroke-width="4.0" fill="#0000b2" />
<circle cx="880.0" cy="680.0" r="4.0" stroke="#0000b2" stroke-width="4.0" fill="#0000b2" />
<circle cx="1020.0" cy="680.0" r="4.0" stroke="#0000b2" stroke-width="4.0" fill="#0000b2" />
<circle cx="800.0" cy="140.0" r="4.0" stroke="#0000b2" stroke-width="4.0" fill="#0000b2" />
<circle cx="900.0" cy="620.0" r="4.0" stroke="#0000b2" stroke-width="4.0" fill="#0000b2" />
<circle cx="980.0" cy="720.0" r="4.0" stroke="#0000b2" stroke-width="4.0" fill="#0000b2" />
<circle cx="880.0" cy="560.0" r="4.0" stroke="#0000b2" stroke-width="4.0" fill="#0000b2" />
<circle cx="1000.0" cy="560.0" r="4.0" stroke="#0000b2" stroke-width="4.0" fill="#0000b2" />
<circle cx="1140.0" cy="560.0" r="4.0" stroke="#0000b2" stroke-width="4.0" fill="#0000b2" />
<circle cx="900.0" cy="500.0" r="4.0" stroke="#0000b2" stroke-width="4.0" fill="#0000b2" />
<circle cx="980.0" cy="600.0" r="4.0" stroke="#0000b2" stroke-width="4.0" fill="#0000b2" />
<circle cx="1100.0" cy="600.0" r="4.0" stroke="#0000b2" stroke-width="4.0" fill="#0000b2" />
<circle cx="880.0" cy="440.0" r="4.0" stroke="#0000b2" stroke-width="4.0" fill="#0000b2" />
<circle cx="1020.0" cy="440.0" r="4.0" stroke="#0000b2" stroke-width="4.0" fill="#0000b2" />
<circle cx="1220.0" cy="540.0" r="4.0" stroke="#0000b2" stroke-width="4.0" fill="#0000b2" />
<circle cx="900.0" cy="380.0" r="4.0" stroke="#0000b2" stroke-width="4.0" fill="#0000b2" />
</g>
<g>
<path d="M 729,125 L 759,125 L 759,155 L 729,155 Z" stroke="#000000" stroke-width="4.0" fill="none"/>
<circle cx="744.0" cy="140.0" r="9.0" stroke="#000000" stroke-width="4.0" fill="none" />
<text text-anchor="end" x="715.0" y="149.0" fill="#000000" style="font-size:24px"><tspan style="font-style:italic;">S<tspan style="font-size:80%;baseline-shift:sub;">0</tspan></tspan></text>
<circle cx="760.0" cy="140.0" r="2.0" stroke="#b20000" stroke-width="4.0" fill="#b20000" />
</g>
<g>
<path d="M 729,185 L 759,185 L 759,215 L 729,215 Z" stroke="#000000" stroke-width="4.0" fill="none"/>
<circle cx="744.0" cy="200.0" r="9.0" stroke="#000000" stroke-width="4.0" fill="none" />
<text text-anchor="end" x="715.0" y="209.0" fill="#000000" style="font-size:24px"><tspan style="font-style:italic;">S<tspan style="font-size:80%;baseline-shift:sub;">1</tspan></tspan></text>
<circle cx="760.0" cy="200.0" r="2.0" stroke="#b20000" stroke-width="4.0" fill="#b20000" />
</g>
<g>
<path d="M 729,245 L 759,245 L 759,275 L 729,275 Z" stroke="#000000" stroke-width="4.0" fill="none"/>
<circle cx="744.0" cy="260.0" r="9.0" stroke="#000000" stroke-width="4.0" fill="none" />
<text text-anchor="end" x="715.0" y="269.0" fill="#000000" style="font-size:24px"><tspan style="font-style:italic;">S<tspan style="font-size:80%;baseline-shift:sub;">2</tspan></tspan></text>
<circle cx="760.0" cy="260.0" r="2.0" stroke="#b20000" stroke-width="4.0" fill="#b20000" />
</g>
<g>
<path d="M 729,345 L 759,345 L 759,375 L 729,375 Z" stroke="#000000" stroke-width="4.0" fill="none"/>
<circle cx="744.0" cy="360.0" r="9.0" stroke="#000000" stroke-width="4.0" fill="none" />
<text text-anchor="end" x="715.0" y="369.0" fill="#000000" style="font-size:24px"><tspan style="font-style:italic;">A<tspan style="font-size:80%;baseline-shift:sub;">0</tspan></tspan></text>
<circle cx="760.0" cy="360.0" r="2.0" stroke="#b20000" stroke-width="4.0" fill="#b20000" />
</g>
<g>
<path d="M 729,405 L 759,405 L 759,435 L 729,435 Z" stroke="#000000" stroke-width="4.0" fill="none"/>
<circle cx="744.0" cy="420.0" r="9.0" stroke="#000000" stroke-width="4.0" fill="none" />
<text text-anchor="end" x="715.0" y="429.0" fill="#000000" style="font-size:24px"><tspan style="font-style:italic;">A<tspan style="font-size:80%;baseline-shift:sub;">1</tspan></tspan></text>
<circle cx="760.0" cy="420.0" r="2.0" stroke="#b20000" stroke-width="4.0" fill="#b20000" />
</g>
<g>
<path d="M 729,465 L 759,465 L 759,495 L 729,495 Z" stroke="#000000" stroke-width="4.0" fill="none"/>
<circle cx="744.0" cy="480.0" r="9.0" stroke="#000000" stroke-width="4.0" fill="none" />
<text text-anchor="end" x="715.0" y="489.0" fill="#000000" style="font-size:24px"><tspan style="font-style:italic;">A<tspan style="font-size:80%;baseline-shift:sub;">2</tspan></tspan></text>
<circle cx="760.0" cy="480.0" r="2.0" stroke="#b20000" stroke-width="4.0" fill="#b20000" />
</g>
<g>
<path d="M 729,525 L 759,525 L 759,555 L 729,555 Z" stroke="#000000" stroke-width="4.0" fill="none"/>
<circle cx="744.0" cy="540.0" r="9.0" stroke="#000000" stroke-width="4.0" fill="none" />
<text text-anchor="end" x="715.0" y="549.0" fill="#000000" style="font-size:24px"><tspan style="font-style:italic;">A<tspan style="font-size:80%;baseline-shift:sub;">3</tspan></tspan></text>
<circle cx="760.0" cy="540.0" r="2.0" stroke="#b20000" stroke-width="4.0" fill="#b20000" />
</g>
<g>
<path d="M 729,585 L 759,585 L 759,615 L 729,615 Z" stroke="#000000" stroke-width="4.0" fill="none"/>
<circle cx="744.0" cy="600.0" r="9.0" stroke="#000000" stroke-width="4.0" fill="none" />
<text text-anchor="end" x="715.0" y="609.0" fill="#000000" style="font-size:24px"><tspan style="font-style:italic;">A<tspan style="font-size:80%;baseline-shift:sub;">4</tspan></tspan></text>
<circle cx="760.0" cy="600.0" r="2.0" stroke="#b20000" stroke-width="4.0" fill="#b20000" />
</g>
<g>
<path d="M 729,645 L 759,645 L 759,675 L 729,675 Z" stroke="#000000" stroke-width="4.0" fill="none"/>
<circle cx="744.0" cy="660.0" r="9.0" stroke="#000000" stroke-width="4.0" fill="none" />
<text text-anchor="end" x="715.0" y="669.0" fill="#000000" style="font-size:24px"><tspan style="font-style:italic;">A<tspan style="font-size:80%;baseline-shift:sub;">5</tspan></tspan></text>
<circle cx="760.0" cy="660.0" r="2.0" stroke="#b20000" stroke-width="4.0" fill="#b20000" />
</g>
<g>
<path d="M 729,705 L 759,705 L 759,735 L 729,735 Z" stroke="#000000" stroke-width="4.0" fill="none"/>
<circle cx="744.0" cy="720.0" r="9.0" stroke="#000000" stroke-width="4.0" fill="none" />
<text text-anchor="end" x="715.0" y="729.0" fill="#000000" style="font-size:24px"><tspan style="font-style:italic;">A<tspan style="font-size:80%;baseline-shift:sub;">6</tspan></tspan></text>
<circle cx="760.0" cy="720.0" r="2.0" stroke="#b20000" stroke-width="4.0" fill="#b20000" />
</g>
<g>
<path d="M 729,765 L 759,765 L 759,795 L 729,795 Z" stroke="#000000" stroke-width="4.0" fill="none"/>
<circle cx="744.0" cy="780.0" r="9.0" stroke="#000000" stroke-width="4.0" fill="none" />
<text text-anchor="end" x="715.0" y="789.0" fill="#000000" style="font-size:24px"><tspan style="font-style:italic;">A<tspan style="font-size:80%;baseline-shift:sub;">7</tspan></tspan></text>
<circle cx="760.0" cy="780.0" r="2.0" stroke="#b20000" stroke-width="4.0" fill="#b20000" />
</g>
<g>
<circle cx="1396.0" cy="540.0" r="9.0" stroke="#000000" stroke-width="4.0" fill="none" />
<circle cx="1396.0" cy="540.0" r="15.0" stroke="#000000" stroke-width="4.0" fill="none" />
<text text-anchor="start" x="1425.0" y="549.0" fill="#000000" style="font-size:24px"><tspan style="font-style:italic;">Z</tspan></text>
<circle cx="1380.0" cy="540.0" r="2.0" stroke="#0000b2" stroke-width="4.0" fill="#0000b2" />
</g>
<g>
<path d="M 1290,750 L 1370,750 L 1370,790 L 1290,790 Z" stroke="#b4ffb4" stroke-width="0.0" fill="#b4ffb4" fill-opacity="0.7843137254901961"/>
<path d="M 1290,750 L 1370,750 L 1370,790 L 1290,790 Z" stroke="#000000" stroke-width="2.0" fill="none"/>
<text text-anchor="middle" x="1330.0" y="779.0" fill="#000000" style="font-size:24px">Test</text>
<text text-anchor="middle" x="1330.0" y="740.0" fill="#000000" style="font-size:24px">t8x256</text>
</g>
<g>
<path d="M 1290,650 L 1370,650 L 1370,690 L 1290,690 Z" stroke="#b4ffb4" stroke-width="0.0" fill="#b4ffb4" fill-opacity="0.7843137254901961"/>
<path d="M 1290,650 L 1370,650 L 1370,690 L 1290,690 Z" stroke="#000000" stroke-width="2.0" fill="none"/>
<text text-anchor="middle" x="1330.0" y="679.0" fill="#000000" style="font-size:24px">Test</text>
<text text-anchor="middle" x="1330.0" y="640.0" fill="#000000" style="font-size:24px">t8x9</text>
</g>
<g>
<path d="M 821,128 L 839,140 L 821,152 Z" stroke="#000000" stroke-width="4.0" fill="none"/>
<circle cx="850.0" cy="140.0" r="9.0" stroke="#000000" stroke-width="4.0" fill="none" />
<circle cx="820.0" cy="140.0" r="2.0" stroke="#0000b2" stroke-width="4.0" fill="#0000b2" />
<circle cx="860.0" cy="140.0" r="2.0" stroke="#b20000" stroke-width="4.0" fill="#b20000" />
</g>
<g>
<path d="M 821,188 L 839,200 L 821,212 Z" stroke="#000000" stroke-width="4.0" fill="none"/>
<circle cx="850.0" cy="200.0" r="9.0" stroke="#000000" stroke-width="4.0" fill="none" />
<circle cx="820.0" cy="200.0" r="2.0" stroke="#0000b2" stroke-width="4.0" fill="#0000b2" />
<circle cx="860.0" cy="200.0" r="2.0" stroke="#b20000" stroke-width="4.0" fill="#b20000" />
</g>
<g>
<path d="M 821,248 L 839,260 L 821,272 Z" stroke="#000000" stroke-width="4.0" fill="none"/>
<circle cx="850.0" cy="260.0" r="9.0" stroke="#000000" stroke-width="4.0" fill="none" />
<circle cx="820.0" cy="260.0" r="2.0" stroke="#0000b2" stroke-width="4.0" fill="#0000b2" />
<circle cx="860.0" cy="260.0" r="2.0" stroke="#b20000" stroke-width="4.0" fill="#b20000" />
</g>
<g>
<path d="M 960,360 L 960,351 L 955,351" stroke="#000000" stroke-width="4.0" fill="none"/>
<path d="M 920,360 L 920,351 L 925,351" stroke="#000000" stroke-width="4.0" fill="none"/>
<path d="M 940,355 L 942,360 L 938,360 Z" stroke="#000000" stroke-width="2.0" fill="#000000" fill-opacity="1.0"/>
<circle cx="920.0" cy="340.0" r="2.0" stroke="#0000b2" stroke-width="4.0" fill="#0000b2" />
<circle cx="960.0" cy="360.0" r="2.0" stroke="#b20000" stroke-width="4.0" fill="#b20000" />
<circle cx="920.0" cy="360.0" r="2.0" stroke="#b20000" stroke-width="4.0" fill="#b20000" />
</g>
<g>
<path d="M 960,420 L 960,411 L 955,411" stroke="#000000" stroke-width="4.0" fill="none"/>
<path d="M 920,420 L 920,411 L 925,411" stroke="#000000" stroke-width="4.0" fill="none"/>
<path d="M 940,415 L 942,420 L 938,420 Z" stroke="#000000" stroke-width="2.0" fill="#000000" fill-opacity="1.0"/>
<circle cx="920.0" cy="400.0" r="2.0" stroke="#0000b2" stroke-width="4.0" fill="#0000b2" />
<circle cx="960.0" cy="420.0" r="2.0" stroke="#b20000" stroke-width="4.0" fill="#b20000" />
<circle cx="920.0" cy="420.0" r="2.0" stroke="#b20000" stroke-width="4.0" fill="#b20000" />
</g>
<g>
<path d="M 960,480 L 960,471 L 955,471" stroke="#000000" stroke-width="4.0" fill="none"/>
<path d="M 920,480 L 920,471 L 925,471" stroke="#000000" stroke-width="4.0" fill="none"/>
<path d="M 940,475 L 942,480 L 938,480 Z" stroke="#000000" stroke-width="2.0" fill="#000000" fill-opacity="1.0"/>
<circle cx="920.0" cy="460.0" r="2.0" stroke="#0000b2" stroke-width="4.0" fill="#0000b2" />
<circle cx="960.0" cy="480.0" r="2.0" stroke="#b20000" stroke-width="4.0" fill="#b20000" />
<circle cx="920.0" cy="480.0" r="2.0" stroke="#b20000" stroke-width="4.0" fill="#b20000" />
</g>
<g>
<path d="M 960,540 L 960,531 L 955,531" stroke="#000000" stroke-width="4.0" fill="none"/>
<path d="M 920,540 L 920,531 L 925,531" stroke="#000000" stroke-width="4.0" fill="none"/>
<path d="M 940,535 L 942,540 L 938,540 Z" stroke="#000000" stroke-width="2.0" fill="#000000" fill-opacity="1.0"/>
<circle cx="920.0" cy="520.0" r="2.0" stroke="#0000b2" stroke-width="4.0" fill="#0000b2" />
<circle cx="960.0" cy="540.0" r="2.0" stroke="#b20000" stroke-width="4.0" fill="#b20000" />
<circle cx="920.0" cy="540.0" r="2.0" stroke="#b20000" stroke-width="4.0" fill="#b20000" />
</g>
<g>
<path d="M 960,600 L 960,591 L 955,591" stroke="#000000" stroke-width="4.0" fill="none"/>
<path d="M 920,600 L 920,591 L 925,591" stroke="#000000" stroke-width="4.0" fill="none"/>
<path d="M 940,595 L 942,600 L 938,600 Z" stroke="#000000" stroke-width="2.0" fill="#000000" fill-opacity="1.0"/>
<circle cx="920.0" cy="580.0" r="2.0" stroke="#0000b2" stroke-width="4.0" fill="#0000b2" />
<circle cx="960.0" cy="600.0" r="2.0" stroke="#b20000" stroke-width="4.0" fill="#b20000" />
<circle cx="920.0" cy="600.0" r="2.0" stroke="#b20000" stroke-width="4.0" fill="#b20000" />
</g>
<g>
<path d="M 960,660 L 960,651 L 955,651" stroke="#000000" stroke-width="4.0" fill="none"/>
<path d="M 920,660 L 920,651 L 925,651" stroke="#000000" stroke-width="4.0" fill="none"/>
<path d="M 940,655 L 942,660 L 938,660 Z" stroke="#000000" stroke-width="2.0" fill="#000000" fill-opacity="1.0"/>
<circle cx="920.0" cy="640.0" r="2.0" stroke="#0000b2" stroke-width="4.0" fill="#0000b2" />
<circle cx="960.0" cy="660.0" r="2.0" stroke="#b20000" stroke-width="4.0" fill="#b20000" />
<circle cx="920.0" cy="660.0" r="2.0" stroke="#b20000" stroke-width="4.0" fill="#b20000" />
</g>
<g>
<path d="M 960,720 L 960,711 L 955,711" stroke="#000000" stroke-width="4.0" fill="none"/>
<path d="M 920,720 L 920,711 L 925,711" stroke="#000000" stroke-width="4.0" fill="none"/>
<path d="M 940,715 L 942,720 L 938,720 Z" stroke="#000000" stroke-width="2.0" fill="#000000" fill-opacity="1.0"/>
<circle cx="920.0" cy="700.0" r="2.0" stroke="#0000b2" stroke-width="4.0" fill="#0000b2" />
<circle cx="960.0" cy="720.0" r="2.0" stroke="#b20000" stroke-width="4.0" fill="#b20000" />
<circle cx="920.0" cy="720.0" r="2.0" stroke="#b20000" stroke-width="4.0" fill="#b20000" />
</g>
<g>
<path d="M 960,780 L 960,771 L 955,771" stroke="#000000" stroke-width="4.0" fill="none"/>
<path d="M 920,780 L 920,771 L 925,771" stroke="#000000" stroke-width="4.0" fill="none"/>
<path d="M 940,775 L 942,780 L 938,780 Z" stroke="#000000" stroke-width="2.0" fill="#000000" fill-opacity="1.0"/>
<circle cx="920.0" cy="760.0" r="2.0" stroke="#0000b2" stroke-width="4.0" fill="#0000b2" />
<circle cx="960.0" cy="780.0" r="2.0" stroke="#b20000" stroke-width="4.0" fill="#b20000" />
<circle cx="920.0" cy="780.0" r="2.0" stroke="#b20000" stroke-width="4.0" fill="#b20000" />
</g>
<g>
<path d="M 1080,360 L 1080,351 L 1075,351" stroke="#000000" stroke-width="4.0" fill="none"/>
<path d="M 1040,360 L 1040,351 L 1045,351" stroke="#000000" stroke-width="4.0" fill="none"/>
<path d="M 1060,355 L 1062,360 L 1058,360 Z" stroke="#000000" stroke-width="2.0" fill="#000000" fill-opacity="1.0"/>
<circle cx="1040.0" cy="340.0" r="2.0" stroke="#0000b2" stroke-width="4.0" fill="#0000b2" />
<circle cx="1080.0" cy="360.0" r="2.0" stroke="#b20000" stroke-width="4.0" fill="#b20000" />
<circle cx="1040.0" cy="360.0" r="2.0" stroke="#b20000" stroke-width="4.0" fill="#b20000" />
</g>
<g>
<path d="M 1080,480 L 1080,471 L 1075,471" stroke="#000000" stroke-width="4.0" fill="none"/>
<path d="M 1040,480 L 1040,471 L 1045,471" stroke="#000000" stroke-width="4.0" fill="none"/>
<path d="M 1060,475 L 1062,480 L 1058,480 Z" stroke="#000000" stroke-width="2.0" fill="#000000" fill-opacity="1.0"/>
<circle cx="1040.0" cy="460.0" r="2.0" stroke="#0000b2" stroke-width="4.0" fill="#0000b2" />
<circle cx="1080.0" cy="480.0" r="2.0" stroke="#b20000" stroke-width="4.0" fill="#b20000" />
<circle cx="1040.0" cy="480.0" r="2.0" stroke="#b20000" stroke-width="4.0" fill="#b20000" />
</g>
<g>
<path d="M 1080,600 L 1080,591 L 1075,591" stroke="#000000" stroke-width="4.0" fill="none"/>
<path d="M 1040,600 L 1040,591 L 1045,591" stroke="#000000" stroke-width="4.0" fill="none"/>
<path d="M 1060,595 L 1062,600 L 1058,600 Z" stroke="#000000" stroke-width="2.0" fill="#000000" fill-opacity="1.0"/>
<circle cx="1040.0" cy="580.0" r="2.0" stroke="#0000b2" stroke-width="4.0" fill="#0000b2" />
<circle cx="1080.0" cy="600.0" r="2.0" stroke="#b20000" stroke-width="4.0" fill="#b20000" />
<circle cx="1040.0" cy="600.0" r="2.0" stroke="#b20000" stroke-width="4.0" fill="#b20000" />
</g>
<g>
<path d="M 1080,720 L 1080,711 L 1075,711" stroke="#000000" stroke-width="4.0" fill="none"/>
<path d="M 1040,720 L 1040,711 L 1045,711" stroke="#000000" stroke-width="4.0" fill="none"/>
<path d="M 1060,715 L 1062,720 L 1058,720 Z" stroke="#000000" stroke-width="2.0" fill="#000000" fill-opacity="1.0"/>
<circle cx="1040.0" cy="700.0" r="2.0" stroke="#0000b2" stroke-width="4.0" fill="#0000b2" />
<circle cx="1080.0" cy="720.0" r="2.0" stroke="#b20000" stroke-width="4.0" fill="#b20000" />
<circle cx="1040.0" cy="720.0" r="2.0" stroke="#b20000" stroke-width="4.0" fill="#b20000" />
</g>
<g>
<path d="M 1200,360 L 1200,351 L 1195,351" stroke="#000000" stroke-width="4.0" fill="none"/>
<path d="M 1160,360 L 1160,351 L 1165,351" stroke="#000000" stroke-width="4.0" fill="none"/>
<path d="M 1180,355 L 1182,360 L 1178,360 Z" stroke="#000000" stroke-width="2.0" fill="#000000" fill-opacity="1.0"/>
<circle cx="1160.0" cy="340.0" r="2.0" stroke="#0000b2" stroke-width="4.0" fill="#0000b2" />
<circle cx="1200.0" cy="360.0" r="2.0" stroke="#b20000" stroke-width="4.0" fill="#b20000" />
<circle cx="1160.0" cy="360.0" r="2.0" stroke="#b20000" stroke-width="4.0" fill="#b20000" />
</g>
<g>
<path d="M 1200,600 L 1200,591 L 1195,591" stroke="#000000" stroke-width="4.0" fill="none"/>
<path d="M 1160,600 L 1160,591 L 1165,591" stroke="#000000" stroke-width="4.0" fill="none"/>
<path d="M 1180,595 L 1182,600 L 1178,600 Z" stroke="#000000" stroke-width="2.0" fill="#000000" fill-opacity="1.0"/>
<circle cx="1160.0" cy="580.0" r="2.0" stroke="#0000b2" stroke-width="4.0" fill="#0000b2" />
<circle cx="1200.0" cy="600.0" r="2.0" stroke="#b20000" stroke-width="4.0" fill="#b20000" />
<circle cx="1160.0" cy="600.0" r="2.0" stroke="#b20000" stroke-width="4.0" fill="#b20000" />
</g>
</g>
</svg>