<?xml version="1.0" encoding="UTF-8" standalone="no"?>
<!-- Created with Digital by H.Neemann -->
<!-- created: Sat Nov 22 21:26:18 BRT 2025 -->

<svg
   xmlns:svg="http://www.w3.org/2000/svg"
   xmlns="http://www.w3.org/2000/svg"
   width="128.7mm"
   height="46.35mm"
   viewBox="679 143 858 309">
<g stroke-linecap="square">
<path d="M 840,280 L 840,400 L 940,400 L 954,400" stroke="#0000b2" stroke-width="4.0" fill="none"/>
<path d="M 760,160 L 1120,160 L 1120,300 L 1200,300" stroke="#0000b2" stroke-width="4.0" fill="none"/>
<path d="M 1400,260 L 1440,260" stroke="#0000b2" stroke-width="4.0" fill="none"/>
<path d="M 760,420 L 860,420 L 860,300 L 940,300" stroke="#0000b2" stroke-width="4.0" fill="none"/>
<path d="M 1020,420 L 1100,420 L 1100,400" stroke="#0000b2" stroke-width="4.0" fill="none"/>
<path d="M 1280,420 L 1380,420 L 1380,400 L 1440,400" stroke="#0000b2" stroke-width="4.0" fill="none"/>
<path d="M 760,280 L 840,280 L 840,260 L 940,260" stroke="#0000b2" stroke-width="4.0" fill="none"/>
<path d="M 1280,280 L 1320,280 L 1324,280" stroke="#0000b2" stroke-width="4.0" fill="none"/>
<path d="M 1020,280 L 1040,280 L 1040,240 L 1320,240 L 1324,240" stroke="#0000b2" stroke-width="4.0" fill="none"/>
<path d="M 860,420 L 860,440 L 940,440 L 954,440" stroke="#0000b2" stroke-width="4.0" fill="none"/>
<path d="M 1120,300 L 1120,440 L 1200,440 L 1214,440" stroke="#0000b2" stroke-width="4.0" fill="none"/>
<path d="M 1214,400 L 1200,400 L 1100,400 L 1100,260 L 1200,260" stroke="#0000b2" stroke-width="4.0" fill="none"/>
<g>
<circle cx="1100.0" cy="400.0" r="4.0" stroke="#0000b2" stroke-width="4.0" fill="#0000b2" />
<circle cx="860.0" cy="420.0" r="4.0" stroke="#0000b2" stroke-width="4.0" fill="#0000b2" />
<circle cx="840.0" cy="280.0" r="4.0" stroke="#0000b2" stroke-width="4.0" fill="#0000b2" />
<circle cx="1120.0" cy="300.0" r="4.0" stroke="#0000b2" stroke-width="4.0" fill="#0000b2" />
</g>
<g>
<path d="M 990,310 L 941,310 L 941,250 L 990,250 C 1000,250 1020,260 1019,280 C 1019,300 1000,310 990,310 Z" stroke="#000000" stroke-width="4.0" fill="none"/>
<circle cx="940.0" cy="260.0" r="2.0" stroke="#0000b2" stroke-width="4.0" fill="#0000b2" />
<circle cx="940.0" cy="300.0" r="2.0" stroke="#0000b2" stroke-width="4.0" fill="#0000b2" />
<circle cx="1020.0" cy="280.0" r="2.0" stroke="#b20000" stroke-width="4.0" fill="#b20000" />
</g>
<g>
<circle cx="1456.0" cy="260.0" r="9.0" stroke="#000000" stroke-width="4.0" fill="none" />
<circle cx="1456.0" cy="260.0" r="15.0" stroke="#000000" stroke-width="4.0" fill="none" />
<text text-anchor="start" x="1485.0" y="269.0" fill="#000000" style="font-size:24px"><tspan style="font-style:italic;">C<tspan style="font-size:80%;baseline-shift:sub;">out</tspan></tspan></text>
<circle cx="1440.0" cy="260.0" r="2.0" stroke="#0000b2" stroke-width="4.0" fill="#0000b2" />
</g>
<g>
<path d="M 970,450 L 950,450 C 960,434 960,406 950,390 L 970,390 C 990,390 1010,400 1020,420 C 1010,440 990,450 970,450 Z" stroke="#000000" stroke-width="4.0" fill="none"/>
<path d="M 940,450 C 950,440 950,400 940,390" stroke="#000000" stroke-width="4.0" fill="none"/>
<circle cx="940.0" cy="400.0" r="2.0" stroke="#0000b2" stroke-width="4.0" fill="#0000b2" />
<circle cx="940.0" cy="440.0" r="2.0" stroke="#0000b2" stroke-width="4.0" fill="#0000b2" />
<circle cx="1020.0" cy="420.0" r="2.0" stroke="#b20000" stroke-width="4.0" fill="#b20000" />
</g>
<g>
<circle cx="1456.0" cy="400.0" r="9.0" stroke="#000000" stroke-width="4.0" fill="none" />
<circle cx="1456.0" cy="400.0" r="15.0" stroke="#000000" stroke-width="4.0" fill="none" />
<text text-anchor="start" x="1485.0" y="409.0" fill="#000000" style="font-size:24px"><tspan style="font-style:italic;">S</tspan></text>
<circle cx="1440.0" cy="400.0" r="2.0" stroke="#0000b2" stroke-width="4.0" fill="#0000b2" />
</g>
<g>
<path d="M 729,265 L 759,265 L 759,295 L 729,295 Z" stroke="#000000" stroke-width="4.0" fill="none"/>
<circle cx="744.0" cy="280.0" r="9.0" stroke="#000000" stroke-width="4.0" fill="none" />
<text text-anchor="end" x="715.0" y="289.0" fill="#000000" style="font-size:24px"><tspan style="font-style:italic;">A</tspan></text>
<circle cx="760.0" cy="280.0" r="2.0" stroke="#b20000" stroke-width="4.0" fill="#b20000" />
</g>
<g>
<path d="M 729,405 L 759,405 L 759,435 L 729,435 Z" stroke="#000000" stroke-width="4.0" fill="none"/>
<circle cx="744.0" cy="420.0" r="9.0" stroke="#000000" stroke-width="4.0" fill="none" />
<text text-anchor="end" x="715.0" y="429.0" fill="#000000" style="font-size:24px"><tspan style="font-style:italic;">B</tspan></text>
<circle cx="760.0" cy="420.0" r="2.0" stroke="#b20000" stroke-width="4.0" fill="#b20000" />
</g>
<g>
<path d="M 729,145 L 759,145 L 759,175 L 729,175 Z" stroke="#000000" stroke-width="4.0" fill="none"/>
<circle cx="744.0" cy="160.0" r="9.0" stroke="#000000" stroke-width="4.0" fill="none" />
<text text-anchor="end" x="715.0" y="169.0" fill="#000000" style="font-size:24px"><tspan style="font-style:italic;">C<tspan style="font-size:80%;baseline-shift:sub;">in</tspan></tspan></text>
<circle cx="760.0" cy="160.0" r="2.0" stroke="#b20000" stroke-width="4.0" fill="#b20000" />
</g>
<g>
<path d="M 1250,310 L 1201,310 L 1201,250 L 1250,250 C 1260,250 1280,260 1279,280 C 1279,300 1260,310 1250,310 Z" stroke="#000000" stroke-width="4.0" fill="none"/>
<circle cx="1200.0" cy="260.0" r="2.0" stroke="#0000b2" stroke-width="4.0" fill="#0000b2" />
<circle cx="1200.0" cy="300.0" r="2.0" stroke="#0000b2" stroke-width="4.0" fill="#0000b2" />
<circle cx="1280.0" cy="280.0" r="2.0" stroke="#b20000" stroke-width="4.0" fill="#b20000" />
</g>
<g>
<path d="M 1230,450 L 1210,450 C 1220,434 1220,406 1210,390 L 1230,390 C 1250,390 1270,400 1280,420 C 1270,440 1250,450 1230,450 Z" stroke="#000000" stroke-width="4.0" fill="none"/>
<path d="M 1200,450 C 1210,440 1210,400 1200,390" stroke="#000000" stroke-width="4.0" fill="none"/>
<circle cx="1200.0" cy="400.0" r="2.0" stroke="#0000b2" stroke-width="4.0" fill="#0000b2" />
<circle cx="1200.0" cy="440.0" r="2.0" stroke="#0000b2" stroke-width="4.0" fill="#0000b2" />
<circle cx="1280.0" cy="420.0" r="2.0" stroke="#b20000" stroke-width="4.0" fill="#b20000" />
</g>
<g>
<path d="M 1350,290 L 1320,290 C 1330,274 1330,246 1320,230 L 1340,230 C 1370,230 1390,240 1400,260 C 1390,280 1370,290 1350,290 Z" stroke="#000000" stroke-width="4.0" fill="none"/>
<circle cx="1320.0" cy="240.0" r="2.0" stroke="#0000b2" stroke-width="4.0" fill="#0000b2" />
<circle cx="1320.0" cy="280.0" r="2.0" stroke="#0000b2" stroke-width="4.0" fill="#0000b2" />
<circle cx="1400.0" cy="260.0" r="2.0" stroke="#b20000" stroke-width="4.0" fill="#b20000" />
</g>
</g>
</svg>