<?xml version="1.0" encoding="UTF-8" standalone="no"?>
<!-- Created with Digital by H.Neemann -->
<!-- created: Mon Nov 24 13:23:59 BRT 2025 -->

<svg
   xmlns:svg="http://www.w3.org/2000/svg"
   xmlns="http://www.w3.org/2000/svg"
   width="238.65mm"
   height="145.35mm"
   viewBox="166 -52 1591 969">
<g stroke-linecap="square">
<path d="M 1460,180 L 1460,240 L 1600,240 L 1600,320" stroke="#0000b2" stroke-width="4.0" fill="none"/>
<path d="M 1100,180 L 1100,240 L 1240,240 L 1240,320" stroke="#0000b2" stroke-width="4.0" fill="none"/>
<path d="M 740,180 L 740,240 L 880,240 L 880,320" stroke="#0000b2" stroke-width="4.0" fill="none"/>
<path d="M 380,180 L 380,240 L 520,240 L 520,320" stroke="#0000b2" stroke-width="4.0" fill="none"/>
<path d="M 1480,400 L 1480,480 L 1500,480 L 1640,480 L 1640,580" stroke="#0000b2" stroke-width="4.0" fill="none"/>
<path d="M 1120,400 L 1120,480 L 1140,480 L 1280,480 L 1280,580" stroke="#0000b2" stroke-width="4.0" fill="none"/>
<path d="M 760,400 L 760,480 L 780,480 L 920,480 L 920,580" stroke="#0000b2" stroke-width="4.0" fill="none"/>
<path d="M 400,400 L 400,480 L 420,480 L 560,480 L 560,580" stroke="#0000b2" stroke-width="4.0" fill="none"/>
<path d="M 260,820 L 260,800 L 560,800 L 560,780" stroke="#0000b2" stroke-width="4.0" fill="none"/>
<path d="M 220,40 L 220,80 L 360,80 L 720,80 L 1080,80 L 1440,80 L 1440,100 L 1440,114" stroke="#0000b2" stroke-width="4.0" fill="none"/>
<path d="M 1460,594 L 1460,580 L 1460,500 L 1600,500 L 1740,500 L 1740,40" stroke="#0000b2" stroke-width="4.0" fill="none"/>
<path d="M 1100,594 L 1100,580 L 1100,500 L 1240,500 L 1380,500 L 1380,800 L 1640,800 L 1640,780" stroke="#0000b2" stroke-width="4.0" fill="none"/>
<path d="M 740,594 L 740,580 L 740,500 L 880,500 L 1020,500 L 1020,800 L 1280,800 L 1280,780" stroke="#0000b2" stroke-width="4.0" fill="none"/>
<path d="M 380,594 L 380,580 L 380,500 L 520,500 L 660,500 L 660,800 L 920,800 L 920,780" stroke="#0000b2" stroke-width="4.0" fill="none"/>
<path d="M 1620,400 L 1620,420 L 1660,420 L 1660,700 L 1660,704" stroke="#0000b2" stroke-width="4.0" fill="none"/>
<path d="M 1260,400 L 1260,420 L 1300,420 L 1300,700 L 1300,704" stroke="#0000b2" stroke-width="4.0" fill="none"/>
<path d="M 900,400 L 900,420 L 940,420 L 940,700 L 940,704" stroke="#0000b2" stroke-width="4.0" fill="none"/>
<path d="M 540,400 L 540,420 L 580,420 L 580,700 L 580,704" stroke="#0000b2" stroke-width="4.0" fill="none"/>
<path d="M 1480,660 L 1480,760 L 1500,760 L 1500,820" stroke="#0000b2" stroke-width="4.0" fill="none"/>
<path d="M 1120,660 L 1120,760 L 1140,760 L 1140,820" stroke="#0000b2" stroke-width="4.0" fill="none"/>
<path d="M 760,660 L 760,760 L 780,760 L 780,820" stroke="#0000b2" stroke-width="4.0" fill="none"/>
<path d="M 400,660 L 400,760 L 420,760 L 420,820" stroke="#0000b2" stroke-width="4.0" fill="none"/>
<path d="M 1500,334 L 1500,320 L 1500,220 L 1620,220 L 1640,220 L 1640,320" stroke="#0000b2" stroke-width="4.0" fill="none"/>
<path d="M 1140,334 L 1140,320 L 1140,220 L 1260,220 L 1280,220 L 1280,320" stroke="#0000b2" stroke-width="4.0" fill="none"/>
<path d="M 780,334 L 780,320 L 780,220 L 900,220 L 920,220 L 920,320" stroke="#0000b2" stroke-width="4.0" fill="none"/>
<path d="M 420,334 L 420,320 L 420,220 L 540,220 L 560,220 L 560,320" stroke="#0000b2" stroke-width="4.0" fill="none"/>
<path d="M 1600,500 L 1600,580" stroke="#0000b2" stroke-width="4.0" fill="none"/>
<path d="M 900,40 L 900,220" stroke="#0000b2" stroke-width="4.0" fill="none"/>
<path d="M 900,660 L 900,700 L 900,704" stroke="#0000b2" stroke-width="4.0" fill="none"/>
<path d="M 1480,40 L 1480,100 L 1480,114" stroke="#0000b2" stroke-width="4.0" fill="none"/>
<path d="M 520,500 L 520,580" stroke="#0000b2" stroke-width="4.0" fill="none"/>
<path d="M 1100,240 L 1100,320 L 1100,334" stroke="#0000b2" stroke-width="4.0" fill="none"/>
<path d="M 780,480 L 780,580 L 780,594" stroke="#0000b2" stroke-width="4.0" fill="none"/>
<path d="M 400,40 L 400,100 L 400,114" stroke="#0000b2" stroke-width="4.0" fill="none"/>
<path d="M 720,80 L 720,100 L 720,114" stroke="#0000b2" stroke-width="4.0" fill="none"/>
<path d="M 1620,40 L 1620,220" stroke="#0000b2" stroke-width="4.0" fill="none"/>
<path d="M 1620,660 L 1620,700 L 1620,704" stroke="#0000b2" stroke-width="4.0" fill="none"/>
<path d="M 1240,500 L 1240,580" stroke="#0000b2" stroke-width="4.0" fill="none"/>
<path d="M 1500,480 L 1500,580 L 1500,594" stroke="#0000b2" stroke-width="4.0" fill="none"/>
<path d="M 540,40 L 540,220" stroke="#0000b2" stroke-width="4.0" fill="none"/>
<path d="M 540,660 L 540,700 L 540,704" stroke="#0000b2" stroke-width="4.0" fill="none"/>
<path d="M 1120,40 L 1120,100 L 1120,114" stroke="#0000b2" stroke-width="4.0" fill="none"/>
<path d="M 740,240 L 740,320 L 740,334" stroke="#0000b2" stroke-width="4.0" fill="none"/>
<path d="M 420,480 L 420,580 L 420,594" stroke="#0000b2" stroke-width="4.0" fill="none"/>
<path d="M 360,80 L 360,100 L 360,114" stroke="#0000b2" stroke-width="4.0" fill="none"/>
<path d="M 1260,40 L 1260,220" stroke="#0000b2" stroke-width="4.0" fill="none"/>
<path d="M 1260,660 L 1260,700 L 1260,704" stroke="#0000b2" stroke-width="4.0" fill="none"/>
<path d="M 880,500 L 880,580" stroke="#0000b2" stroke-width="4.0" fill="none"/>
<path d="M 1460,240 L 1460,320 L 1460,334" stroke="#0000b2" stroke-width="4.0" fill="none"/>
<path d="M 1140,480 L 1140,580 L 1140,594" stroke="#0000b2" stroke-width="4.0" fill="none"/>
<path d="M 760,40 L 760,100 L 760,114" stroke="#0000b2" stroke-width="4.0" fill="none"/>
<path d="M 1080,80 L 1080,100 L 1080,114" stroke="#0000b2" stroke-width="4.0" fill="none"/>
<path d="M 380,240 L 380,320 L 380,334" stroke="#0000b2" stroke-width="4.0" fill="none"/>
<g>
<circle cx="1460.0" cy="240.0" r="4.0" stroke="#0000b2" stroke-width="4.0" fill="#0000b2" />
<circle cx="1100.0" cy="240.0" r="4.0" stroke="#0000b2" stroke-width="4.0" fill="#0000b2" />
<circle cx="740.0" cy="240.0" r="4.0" stroke="#0000b2" stroke-width="4.0" fill="#0000b2" />
<circle cx="380.0" cy="240.0" r="4.0" stroke="#0000b2" stroke-width="4.0" fill="#0000b2" />
<circle cx="1500.0" cy="480.0" r="4.0" stroke="#0000b2" stroke-width="4.0" fill="#0000b2" />
<circle cx="1140.0" cy="480.0" r="4.0" stroke="#0000b2" stroke-width="4.0" fill="#0000b2" />
<circle cx="780.0" cy="480.0" r="4.0" stroke="#0000b2" stroke-width="4.0" fill="#0000b2" />
<circle cx="420.0" cy="480.0" r="4.0" stroke="#0000b2" stroke-width="4.0" fill="#0000b2" />
<circle cx="360.0" cy="80.0" r="4.0" stroke="#0000b2" stroke-width="4.0" fill="#0000b2" />
<circle cx="1080.0" cy="80.0" r="4.0" stroke="#0000b2" stroke-width="4.0" fill="#0000b2" />
<circle cx="720.0" cy="80.0" r="4.0" stroke="#0000b2" stroke-width="4.0" fill="#0000b2" />
<circle cx="1600.0" cy="500.0" r="4.0" stroke="#0000b2" stroke-width="4.0" fill="#0000b2" />
<circle cx="1240.0" cy="500.0" r="4.0" stroke="#0000b2" stroke-width="4.0" fill="#0000b2" />
<circle cx="880.0" cy="500.0" r="4.0" stroke="#0000b2" stroke-width="4.0" fill="#0000b2" />
<circle cx="520.0" cy="500.0" r="4.0" stroke="#0000b2" stroke-width="4.0" fill="#0000b2" />
<circle cx="1620.0" cy="220.0" r="4.0" stroke="#0000b2" stroke-width="4.0" fill="#0000b2" />
<circle cx="1260.0" cy="220.0" r="4.0" stroke="#0000b2" stroke-width="4.0" fill="#0000b2" />
<circle cx="900.0" cy="220.0" r="4.0" stroke="#0000b2" stroke-width="4.0" fill="#0000b2" />
<circle cx="540.0" cy="220.0" r="4.0" stroke="#0000b2" stroke-width="4.0" fill="#0000b2" />
</g>
<g>
<path d="M 1590,370 L 1590,321 L 1650,321 L 1650,370 C 1650,380 1640,400 1620,399 C 1600,399 1590,380 1590,370 Z" stroke="#000000" stroke-width="4.0" fill="none"/>
<circle cx="1640.0" cy="320.0" r="2.0" stroke="#0000b2" stroke-width="4.0" fill="#0000b2" />
<circle cx="1600.0" cy="320.0" r="2.0" stroke="#0000b2" stroke-width="4.0" fill="#0000b2" />
<circle cx="1620.0" cy="400.0" r="2.0" stroke="#b20000" stroke-width="4.0" fill="#b20000" />
</g>
<g>
<circle cx="260.0" cy="836.0" r="9.0" stroke="#000000" stroke-width="4.0" fill="none" />
<circle cx="260.0" cy="836.0" r="15.0" stroke="#000000" stroke-width="4.0" fill="none" />
<text text-anchor="end" x="260.0" y="874.0" fill="#000000" style="font-size:24px" transform="rotate(-90,260.0,865.0)" ><tspan style="font-style:italic;">C<tspan style="font-size:80%;baseline-shift:sub;">out</tspan></tspan></text>
<circle cx="260.0" cy="820.0" r="2.0" stroke="#0000b2" stroke-width="4.0" fill="#0000b2" />
</g>
<g>
<path d="M 1450,350 L 1450,330 C 1466,340 1494,340 1510,330 L 1510,350 C 1510,370 1500,390 1480,400 C 1460,390 1450,370 1450,350 Z" stroke="#000000" stroke-width="4.0" fill="none"/>
<path d="M 1450,320 C 1460,330 1500,330 1510,320" stroke="#000000" stroke-width="4.0" fill="none"/>
<circle cx="1500.0" cy="320.0" r="2.0" stroke="#0000b2" stroke-width="4.0" fill="#0000b2" />
<circle cx="1460.0" cy="320.0" r="2.0" stroke="#0000b2" stroke-width="4.0" fill="#0000b2" />
<circle cx="1480.0" cy="400.0" r="2.0" stroke="#b20000" stroke-width="4.0" fill="#b20000" />
</g>
<g>
<circle cx="1500.0" cy="836.0" r="9.0" stroke="#000000" stroke-width="4.0" fill="none" />
<circle cx="1500.0" cy="836.0" r="15.0" stroke="#000000" stroke-width="4.0" fill="none" />
<text text-anchor="end" x="1500.0" y="874.0" fill="#000000" style="font-size:24px" transform="rotate(-90,1500.0,865.0)" ><tspan style="font-style:italic;">S<tspan style="font-size:80%;baseline-shift:sub;">0</tspan></tspan></text>
<circle cx="1500.0" cy="820.0" r="2.0" stroke="#0000b2" stroke-width="4.0" fill="#0000b2" />
</g>
<g>
<path d="M 1635,9 L 1635,39 L 1605,39 L 1605,9 Z" stroke="#000000" stroke-width="4.0" fill="none"/>
<circle cx="1620.0" cy="24.0" r="9.0" stroke="#000000" stroke-width="4.0" fill="none" />
<text text-anchor="start" x="1620.0" y="4.0" fill="#000000" style="font-size:24px" transform="rotate(-90,1620.0,-5.0)" ><tspan style="font-style:italic;">A<tspan style="font-size:80%;baseline-shift:sub;">0</tspan></tspan></text>
<circle cx="1620.0" cy="40.0" r="2.0" stroke="#b20000" stroke-width="4.0" fill="#b20000" />
</g>
<g>
<path d="M 1495,9 L 1495,39 L 1465,39 L 1465,9 Z" stroke="#000000" stroke-width="4.0" fill="none"/>
<circle cx="1480.0" cy="24.0" r="9.0" stroke="#000000" stroke-width="4.0" fill="none" />
<text text-anchor="start" x="1480.0" y="4.0" fill="#000000" style="font-size:24px" transform="rotate(-90,1480.0,-5.0)" ><tspan style="font-style:italic;">B<tspan style="font-size:80%;baseline-shift:sub;">0</tspan></tspan></text>
<circle cx="1480.0" cy="40.0" r="2.0" stroke="#b20000" stroke-width="4.0" fill="#b20000" />
</g>
<g>
<path d="M 1755,9 L 1755,39 L 1725,39 L 1725,9 Z" stroke="#000000" stroke-width="4.0" fill="none"/>
<circle cx="1740.0" cy="24.0" r="9.0" stroke="#000000" stroke-width="4.0" fill="none" />
<text text-anchor="start" x="1740.0" y="4.0" fill="#000000" style="font-size:24px" transform="rotate(-90,1740.0,-5.0)" ><tspan style="font-style:italic;">C<tspan style="font-size:80%;baseline-shift:sub;">in</tspan></tspan></text>
<circle cx="1740.0" cy="40.0" r="2.0" stroke="#b20000" stroke-width="4.0" fill="#b20000" />
</g>
<g>
<path d="M 1590,630 L 1590,581 L 1650,581 L 1650,630 C 1650,640 1640,660 1620,659 C 1600,659 1590,640 1590,630 Z" stroke="#000000" stroke-width="4.0" fill="none"/>
<circle cx="1640.0" cy="580.0" r="2.0" stroke="#0000b2" stroke-width="4.0" fill="#0000b2" />
<circle cx="1600.0" cy="580.0" r="2.0" stroke="#0000b2" stroke-width="4.0" fill="#0000b2" />
<circle cx="1620.0" cy="660.0" r="2.0" stroke="#b20000" stroke-width="4.0" fill="#b20000" />
</g>
<g>
<path d="M 1450,610 L 1450,590 C 1466,600 1494,600 1510,590 L 1510,610 C 1510,630 1500,650 1480,660 C 1460,650 1450,630 1450,610 Z" stroke="#000000" stroke-width="4.0" fill="none"/>
<path d="M 1450,580 C 1460,590 1500,590 1510,580" stroke="#000000" stroke-width="4.0" fill="none"/>
<circle cx="1500.0" cy="580.0" r="2.0" stroke="#0000b2" stroke-width="4.0" fill="#0000b2" />
<circle cx="1460.0" cy="580.0" r="2.0" stroke="#0000b2" stroke-width="4.0" fill="#0000b2" />
<circle cx="1480.0" cy="660.0" r="2.0" stroke="#b20000" stroke-width="4.0" fill="#b20000" />
</g>
<g>
<path d="M 1610,730 L 1610,700 C 1626,710 1654,710 1670,700 L 1670,720 C 1670,750 1660,770 1640,780 C 1620,770 1610,750 1610,730 Z" stroke="#000000" stroke-width="4.0" fill="none"/>
<circle cx="1660.0" cy="700.0" r="2.0" stroke="#0000b2" stroke-width="4.0" fill="#0000b2" />
<circle cx="1620.0" cy="700.0" r="2.0" stroke="#0000b2" stroke-width="4.0" fill="#0000b2" />
<circle cx="1640.0" cy="780.0" r="2.0" stroke="#b20000" stroke-width="4.0" fill="#b20000" />
</g>
<g>
<path d="M 1230,370 L 1230,321 L 1290,321 L 1290,370 C 1290,380 1280,400 1260,399 C 1240,399 1230,380 1230,370 Z" stroke="#000000" stroke-width="4.0" fill="none"/>
<circle cx="1280.0" cy="320.0" r="2.0" stroke="#0000b2" stroke-width="4.0" fill="#0000b2" />
<circle cx="1240.0" cy="320.0" r="2.0" stroke="#0000b2" stroke-width="4.0" fill="#0000b2" />
<circle cx="1260.0" cy="400.0" r="2.0" stroke="#b20000" stroke-width="4.0" fill="#b20000" />
</g>
<g>
<path d="M 1090,350 L 1090,330 C 1106,340 1134,340 1150,330 L 1150,350 C 1150,370 1140,390 1120,400 C 1100,390 1090,370 1090,350 Z" stroke="#000000" stroke-width="4.0" fill="none"/>
<path d="M 1090,320 C 1100,330 1140,330 1150,320" stroke="#000000" stroke-width="4.0" fill="none"/>
<circle cx="1140.0" cy="320.0" r="2.0" stroke="#0000b2" stroke-width="4.0" fill="#0000b2" />
<circle cx="1100.0" cy="320.0" r="2.0" stroke="#0000b2" stroke-width="4.0" fill="#0000b2" />
<circle cx="1120.0" cy="400.0" r="2.0" stroke="#b20000" stroke-width="4.0" fill="#b20000" />
</g>
<g>
<circle cx="1140.0" cy="836.0" r="9.0" stroke="#000000" stroke-width="4.0" fill="none" />
<circle cx="1140.0" cy="836.0" r="15.0" stroke="#000000" stroke-width="4.0" fill="none" />
<text text-anchor="end" x="1140.0" y="874.0" fill="#000000" style="font-size:24px" transform="rotate(-90,1140.0,865.0)" ><tspan style="font-style:italic;">S<tspan style="font-size:80%;baseline-shift:sub;">1</tspan></tspan></text>
<circle cx="1140.0" cy="820.0" r="2.0" stroke="#0000b2" stroke-width="4.0" fill="#0000b2" />
</g>
<g>
<path d="M 1275,9 L 1275,39 L 1245,39 L 1245,9 Z" stroke="#000000" stroke-width="4.0" fill="none"/>
<circle cx="1260.0" cy="24.0" r="9.0" stroke="#000000" stroke-width="4.0" fill="none" />
<text text-anchor="start" x="1260.0" y="4.0" fill="#000000" style="font-size:24px" transform="rotate(-90,1260.0,-5.0)" ><tspan style="font-style:italic;">A<tspan style="font-size:80%;baseline-shift:sub;">1</tspan></tspan></text>
<circle cx="1260.0" cy="40.0" r="2.0" stroke="#b20000" stroke-width="4.0" fill="#b20000" />
</g>
<g>
<path d="M 1135,9 L 1135,39 L 1105,39 L 1105,9 Z" stroke="#000000" stroke-width="4.0" fill="none"/>
<circle cx="1120.0" cy="24.0" r="9.0" stroke="#000000" stroke-width="4.0" fill="none" />
<text text-anchor="start" x="1120.0" y="4.0" fill="#000000" style="font-size:24px" transform="rotate(-90,1120.0,-5.0)" ><tspan style="font-style:italic;">B<tspan style="font-size:80%;baseline-shift:sub;">1</tspan></tspan></text>
<circle cx="1120.0" cy="40.0" r="2.0" stroke="#b20000" stroke-width="4.0" fill="#b20000" />
</g>
<g>
<path d="M 1230,630 L 1230,581 L 1290,581 L 1290,630 C 1290,640 1280,660 1260,659 C 1240,659 1230,640 1230,630 Z" stroke="#000000" stroke-width="4.0" fill="none"/>
<circle cx="1280.0" cy="580.0" r="2.0" stroke="#0000b2" stroke-width="4.0" fill="#0000b2" />
<circle cx="1240.0" cy="580.0" r="2.0" stroke="#0000b2" stroke-width="4.0" fill="#0000b2" />
<circle cx="1260.0" cy="660.0" r="2.0" stroke="#b20000" stroke-width="4.0" fill="#b20000" />
</g>
<g>
<path d="M 1090,610 L 1090,590 C 1106,600 1134,600 1150,590 L 1150,610 C 1150,630 1140,650 1120,660 C 1100,650 1090,630 1090,610 Z" stroke="#000000" stroke-width="4.0" fill="none"/>
<path d="M 1090,580 C 1100,590 1140,590 1150,580" stroke="#000000" stroke-width="4.0" fill="none"/>
<circle cx="1140.0" cy="580.0" r="2.0" stroke="#0000b2" stroke-width="4.0" fill="#0000b2" />
<circle cx="1100.0" cy="580.0" r="2.0" stroke="#0000b2" stroke-width="4.0" fill="#0000b2" />
<circle cx="1120.0" cy="660.0" r="2.0" stroke="#b20000" stroke-width="4.0" fill="#b20000" />
</g>
<g>
<path d="M 1250,730 L 1250,700 C 1266,710 1294,710 1310,700 L 1310,720 C 1310,750 1300,770 1280,780 C 1260,770 1250,750 1250,730 Z" stroke="#000000" stroke-width="4.0" fill="none"/>
<circle cx="1300.0" cy="700.0" r="2.0" stroke="#0000b2" stroke-width="4.0" fill="#0000b2" />
<circle cx="1260.0" cy="700.0" r="2.0" stroke="#0000b2" stroke-width="4.0" fill="#0000b2" />
<circle cx="1280.0" cy="780.0" r="2.0" stroke="#b20000" stroke-width="4.0" fill="#b20000" />
</g>
<g>
<path d="M 870,370 L 870,321 L 930,321 L 930,370 C 930,380 920,400 900,399 C 880,399 870,380 870,370 Z" stroke="#000000" stroke-width="4.0" fill="none"/>
<circle cx="920.0" cy="320.0" r="2.0" stroke="#0000b2" stroke-width="4.0" fill="#0000b2" />
<circle cx="880.0" cy="320.0" r="2.0" stroke="#0000b2" stroke-width="4.0" fill="#0000b2" />
<circle cx="900.0" cy="400.0" r="2.0" stroke="#b20000" stroke-width="4.0" fill="#b20000" />
</g>
<g>
<path d="M 730,350 L 730,330 C 746,340 774,340 790,330 L 790,350 C 790,370 780,390 760,400 C 740,390 730,370 730,350 Z" stroke="#000000" stroke-width="4.0" fill="none"/>
<path d="M 730,320 C 740,330 780,330 790,320" stroke="#000000" stroke-width="4.0" fill="none"/>
<circle cx="780.0" cy="320.0" r="2.0" stroke="#0000b2" stroke-width="4.0" fill="#0000b2" />
<circle cx="740.0" cy="320.0" r="2.0" stroke="#0000b2" stroke-width="4.0" fill="#0000b2" />
<circle cx="760.0" cy="400.0" r="2.0" stroke="#b20000" stroke-width="4.0" fill="#b20000" />
</g>
<g>
<circle cx="780.0" cy="836.0" r="9.0" stroke="#000000" stroke-width="4.0" fill="none" />
<circle cx="780.0" cy="836.0" r="15.0" stroke="#000000" stroke-width="4.0" fill="none" />
<text text-anchor="end" x="780.0" y="874.0" fill="#000000" style="font-size:24px" transform="rotate(-90,780.0,865.0)" ><tspan style="font-style:italic;">S<tspan style="font-size:80%;baseline-shift:sub;">2</tspan></tspan></text>
<circle cx="780.0" cy="820.0" r="2.0" stroke="#0000b2" stroke-width="4.0" fill="#0000b2" />
</g>
<g>
<path d="M 915,9 L 915,39 L 885,39 L 885,9 Z" stroke="#000000" stroke-width="4.0" fill="none"/>
<circle cx="900.0" cy="24.0" r="9.0" stroke="#000000" stroke-width="4.0" fill="none" />
<text text-anchor="start" x="900.0" y="4.0" fill="#000000" style="font-size:24px" transform="rotate(-90,900.0,-5.0)" ><tspan style="font-style:italic;">A<tspan style="font-size:80%;baseline-shift:sub;">2</tspan></tspan></text>
<circle cx="900.0" cy="40.0" r="2.0" stroke="#b20000" stroke-width="4.0" fill="#b20000" />
</g>
<g>
<path d="M 775,9 L 775,39 L 745,39 L 745,9 Z" stroke="#000000" stroke-width="4.0" fill="none"/>
<circle cx="760.0" cy="24.0" r="9.0" stroke="#000000" stroke-width="4.0" fill="none" />
<text text-anchor="start" x="760.0" y="4.0" fill="#000000" style="font-size:24px" transform="rotate(-90,760.0,-5.0)" ><tspan style="font-style:italic;">B<tspan style="font-size:80%;baseline-shift:sub;">2</tspan></tspan></text>
<circle cx="760.0" cy="40.0" r="2.0" stroke="#b20000" stroke-width="4.0" fill="#b20000" />
</g>
<g>
<path d="M 870,630 L 870,581 L 930,581 L 930,630 C 930,640 920,660 900,659 C 880,659 870,640 870,630 Z" stroke="#000000" stroke-width="4.0" fill="none"/>
<circle cx="920.0" cy="580.0" r="2.0" stroke="#0000b2" stroke-width="4.0" fill="#0000b2" />
<circle cx="880.0" cy="580.0" r="2.0" stroke="#0000b2" stroke-width="4.0" fill="#0000b2" />
<circle cx="900.0" cy="660.0" r="2.0" stroke="#b20000" stroke-width="4.0" fill="#b20000" />
</g>
<g>
<path d="M 730,610 L 730,590 C 746,600 774,600 790,590 L 790,610 C 790,630 780,650 760,660 C 740,650 730,630 730,610 Z" stroke="#000000" stroke-width="4.0" fill="none"/>
<path d="M 730,580 C 740,590 780,590 790,580" stroke="#000000" stroke-width="4.0" fill="none"/>
<circle cx="780.0" cy="580.0" r="2.0" stroke="#0000b2" stroke-width="4.0" fill="#0000b2" />
<circle cx="740.0" cy="580.0" r="2.0" stroke="#0000b2" stroke-width="4.0" fill="#0000b2" />
<circle cx="760.0" cy="660.0" r="2.0" stroke="#b20000" stroke-width="4.0" fill="#b20000" />
</g>
<g>
<path d="M 890,730 L 890,700 C 906,710 934,710 950,700 L 950,720 C 950,750 940,770 920,780 C 900,770 890,750 890,730 Z" stroke="#000000" stroke-width="4.0" fill="none"/>
<circle cx="940.0" cy="700.0" r="2.0" stroke="#0000b2" stroke-width="4.0" fill="#0000b2" />
<circle cx="900.0" cy="700.0" r="2.0" stroke="#0000b2" stroke-width="4.0" fill="#0000b2" />
<circle cx="920.0" cy="780.0" r="2.0" stroke="#b20000" stroke-width="4.0" fill="#b20000" />
</g>
<g>
<path d="M 510,370 L 510,321 L 570,321 L 570,370 C 570,380 560,400 540,399 C 520,399 510,380 510,370 Z" stroke="#000000" stroke-width="4.0" fill="none"/>
<circle cx="560.0" cy="320.0" r="2.0" stroke="#0000b2" stroke-width="4.0" fill="#0000b2" />
<circle cx="520.0" cy="320.0" r="2.0" stroke="#0000b2" stroke-width="4.0" fill="#0000b2" />
<circle cx="540.0" cy="400.0" r="2.0" stroke="#b20000" stroke-width="4.0" fill="#b20000" />
</g>
<g>
<path d="M 370,350 L 370,330 C 386,340 414,340 430,330 L 430,350 C 430,370 420,390 400,400 C 380,390 370,370 370,350 Z" stroke="#000000" stroke-width="4.0" fill="none"/>
<path d="M 370,320 C 380,330 420,330 430,320" stroke="#000000" stroke-width="4.0" fill="none"/>
<circle cx="420.0" cy="320.0" r="2.0" stroke="#0000b2" stroke-width="4.0" fill="#0000b2" />
<circle cx="380.0" cy="320.0" r="2.0" stroke="#0000b2" stroke-width="4.0" fill="#0000b2" />
<circle cx="400.0" cy="400.0" r="2.0" stroke="#b20000" stroke-width="4.0" fill="#b20000" />
</g>
<g>
<circle cx="420.0" cy="836.0" r="9.0" stroke="#000000" stroke-width="4.0" fill="none" />
<circle cx="420.0" cy="836.0" r="15.0" stroke="#000000" stroke-width="4.0" fill="none" />
<text text-anchor="end" x="420.0" y="874.0" fill="#000000" style="font-size:24px" transform="rotate(-90,420.0,865.0)" ><tspan style="font-style:italic;">S<tspan style="font-size:80%;baseline-shift:sub;">3</tspan></tspan></text>
<circle cx="420.0" cy="820.0" r="2.0" stroke="#0000b2" stroke-width="4.0" fill="#0000b2" />
</g>
<g>
<path d="M 555,9 L 555,39 L 525,39 L 525,9 Z" stroke="#000000" stroke-width="4.0" fill="none"/>
<circle cx="540.0" cy="24.0" r="9.0" stroke="#000000" stroke-width="4.0" fill="none" />
<text text-anchor="start" x="540.0" y="4.0" fill="#000000" style="font-size:24px" transform="rotate(-90,540.0,-5.0)" ><tspan style="font-style:italic;">A<tspan style="font-size:80%;baseline-shift:sub;">3</tspan></tspan></text>
<circle cx="540.0" cy="40.0" r="2.0" stroke="#b20000" stroke-width="4.0" fill="#b20000" />
</g>
<g>
<path d="M 415,9 L 415,39 L 385,39 L 385,9 Z" stroke="#000000" stroke-width="4.0" fill="none"/>
<circle cx="400.0" cy="24.0" r="9.0" stroke="#000000" stroke-width="4.0" fill="none" />
<text text-anchor="start" x="400.0" y="4.0" fill="#000000" style="font-size:24px" transform="rotate(-90,400.0,-5.0)" ><tspan style="font-style:italic;">B<tspan style="font-size:80%;baseline-shift:sub;">3</tspan></tspan></text>
<circle cx="400.0" cy="40.0" r="2.0" stroke="#b20000" stroke-width="4.0" fill="#b20000" />
</g>
<g>
<path d="M 510,630 L 510,581 L 570,581 L 570,630 C 570,640 560,660 540,659 C 520,659 510,640 510,630 Z" stroke="#000000" stroke-width="4.0" fill="none"/>
<circle cx="560.0" cy="580.0" r="2.0" stroke="#0000b2" stroke-width="4.0" fill="#0000b2" />
<circle cx="520.0" cy="580.0" r="2.0" stroke="#0000b2" stroke-width="4.0" fill="#0000b2" />
<circle cx="540.0" cy="660.0" r="2.0" stroke="#b20000" stroke-width="4.0" fill="#b20000" />
</g>
<g>
<path d="M 370,610 L 370,590 C 386,600 414,600 430,590 L 430,610 C 430,630 420,650 400,660 C 380,650 370,630 370,610 Z" stroke="#000000" stroke-width="4.0" fill="none"/>
<path d="M 370,580 C 380,590 420,590 430,580" stroke="#000000" stroke-width="4.0" fill="none"/>
<circle cx="420.0" cy="580.0" r="2.0" stroke="#0000b2" stroke-width="4.0" fill="#0000b2" />
<circle cx="380.0" cy="580.0" r="2.0" stroke="#0000b2" stroke-width="4.0" fill="#0000b2" />
<circle cx="400.0" cy="660.0" r="2.0" stroke="#b20000" stroke-width="4.0" fill="#b20000" />
</g>
<g>
<path d="M 530,730 L 530,700 C 546,710 574,710 590,700 L 590,720 C 590,750 580,770 560,780 C 540,770 530,750 530,730 Z" stroke="#000000" stroke-width="4.0" fill="none"/>
<circle cx="580.0" cy="700.0" r="2.0" stroke="#0000b2" stroke-width="4.0" fill="#0000b2" />
<circle cx="540.0" cy="700.0" r="2.0" stroke="#0000b2" stroke-width="4.0" fill="#0000b2" />
<circle cx="560.0" cy="780.0" r="2.0" stroke="#b20000" stroke-width="4.0" fill="#b20000" />
</g>
<g>
<path d="M 170,610 L 250,610 L 250,650 L 170,650 Z" stroke="#b4ffb4" stroke-width="0.0" fill="#b4ffb4" fill-opacity="0.7843137254901961"/>
<path d="M 170,610 L 250,610 L 250,650 L 170,650 Z" stroke="#000000" stroke-width="2.0" fill="none"/>
<text text-anchor="middle" x="210.0" y="639.0" fill="#000000" style="font-size:24px">Test</text>
<text text-anchor="middle" x="210.0" y="600.0" fill="#000000" style="font-size:24px">-16x16</text>
</g>
<g>
<path d="M 350,130 L 350,110 C 366,120 394,120 410,110 L 410,130 C 410,150 400,170 380,180 C 360,170 350,150 350,130 Z" stroke="#000000" stroke-width="4.0" fill="none"/>
<path d="M 350,100 C 360,110 400,110 410,100" stroke="#000000" stroke-width="4.0" fill="none"/>
<circle cx="400.0" cy="100.0" r="2.0" stroke="#0000b2" stroke-width="4.0" fill="#0000b2" />
<circle cx="360.0" cy="100.0" r="2.0" stroke="#0000b2" stroke-width="4.0" fill="#0000b2" />
<circle cx="380.0" cy="180.0" r="2.0" stroke="#b20000" stroke-width="4.0" fill="#b20000" />
</g>
<g>
<path d="M 710,130 L 710,110 C 726,120 754,120 770,110 L 770,130 C 770,150 760,170 740,180 C 720,170 710,150 710,130 Z" stroke="#000000" stroke-width="4.0" fill="none"/>
<path d="M 710,100 C 720,110 760,110 770,100" stroke="#000000" stroke-width="4.0" fill="none"/>
<circle cx="760.0" cy="100.0" r="2.0" stroke="#0000b2" stroke-width="4.0" fill="#0000b2" />
<circle cx="720.0" cy="100.0" r="2.0" stroke="#0000b2" stroke-width="4.0" fill="#0000b2" />
<circle cx="740.0" cy="180.0" r="2.0" stroke="#b20000" stroke-width="4.0" fill="#b20000" />
</g>
<g>
<path d="M 1070,130 L 1070,110 C 1086,120 1114,120 1130,110 L 1130,130 C 1130,150 1120,170 1100,180 C 1080,170 1070,150 1070,130 Z" stroke="#000000" stroke-width="4.0" fill="none"/>
<path d="M 1070,100 C 1080,110 1120,110 1130,100" stroke="#000000" stroke-width="4.0" fill="none"/>
<circle cx="1120.0" cy="100.0" r="2.0" stroke="#0000b2" stroke-width="4.0" fill="#0000b2" />
<circle cx="1080.0" cy="100.0" r="2.0" stroke="#0000b2" stroke-width="4.0" fill="#0000b2" />
<circle cx="1100.0" cy="180.0" r="2.0" stroke="#b20000" stroke-width="4.0" fill="#b20000" />
</g>
<g>
<path d="M 1430,130 L 1430,110 C 1446,120 1474,120 1490,110 L 1490,130 C 1490,150 1480,170 1460,180 C 1440,170 1430,150 1430,130 Z" stroke="#000000" stroke-width="4.0" fill="none"/>
<path d="M 1430,100 C 1440,110 1480,110 1490,100" stroke="#000000" stroke-width="4.0" fill="none"/>
<circle cx="1480.0" cy="100.0" r="2.0" stroke="#0000b2" stroke-width="4.0" fill="#0000b2" />
<circle cx="1440.0" cy="100.0" r="2.0" stroke="#0000b2" stroke-width="4.0" fill="#0000b2" />
<circle cx="1460.0" cy="180.0" r="2.0" stroke="#b20000" stroke-width="4.0" fill="#b20000" />
</g>
<g>
<path d="M 235,9 L 235,39 L 205,39 L 205,9 Z" stroke="#000000" stroke-width="4.0" fill="none"/>
<circle cx="220.0" cy="24.0" r="9.0" stroke="#000000" stroke-width="4.0" fill="none" />
<text text-anchor="start" x="220.0" y="4.0" fill="#000000" style="font-size:24px" transform="rotate(-90,220.0,-5.0)" ><tspan style="font-style:italic;">invB</tspan></text>
<circle cx="220.0" cy="40.0" r="2.0" stroke="#b20000" stroke-width="4.0" fill="#b20000" />
</g>
<g>
<path d="M 170,490 L 250,490 L 250,530 L 170,530 Z" stroke="#b4ffb4" stroke-width="0.0" fill="#b4ffb4" fill-opacity="0.7843137254901961"/>
<path d="M 170,490 L 250,490 L 250,530 L 170,530 Z" stroke="#000000" stroke-width="2.0" fill="none"/>
<text text-anchor="middle" x="210.0" y="519.0" fill="#000000" style="font-size:24px">Test</text>
<text text-anchor="middle" x="210.0" y="480.0" fill="#000000" style="font-size:24px">+16x17</text>
</g>
</g>
</svg>