<?xml version="1.0" encoding="UTF-8" standalone="no"?>
<!-- Created with Digital by H.Neemann -->
<!-- created: Mon Nov 24 16:11:13 BRT 2025 -->

<svg
   xmlns:svg="http://www.w3.org/2000/svg"
   xmlns="http://www.w3.org/2000/svg"
   width="74.85mm"
   height="14.85mm"
   viewBox="521 303 499 99">
<g stroke-linecap="square">
<path d="M 620,320 L 740,320" stroke="#0000b2" stroke-width="4.0" fill="none"/>
<path d="M 840,340 L 880,340 L 960,340" stroke="#0000b2" stroke-width="4.0" fill="none"/>
<path d="M 880,340 L 880,400 L 700,400 L 700,360 L 740,360" stroke="#0000b2" stroke-width="4.0" fill="none"/>
<g>
<circle cx="880.0" cy="340.0" r="4.0" stroke="#0000b2" stroke-width="4.0" fill="#0000b2" />
</g>
<g>
<path d="M 790,370 L 741,370 L 741,310 L 790,310 C 800,310 820,320 819,340 C 819,360 800,370 790,370 Z" stroke="#000000" stroke-width="4.0" fill="none"/>
<circle cx="830.0" cy="340.0" r="9.0" stroke="#000000" stroke-width="4.0" fill="none" />
<circle cx="740.0" cy="320.0" r="2.0" stroke="#0000b2" stroke-width="4.0" fill="#0000b2" />
<circle cx="740.0" cy="360.0" r="2.0" stroke="#0000b2" stroke-width="4.0" fill="#0000b2" />
<circle cx="840.0" cy="340.0" r="2.0" stroke="#b20000" stroke-width="4.0" fill="#b20000" />
</g>
<g>
<path d="M 589,305 L 619,305 L 619,335 L 589,335 Z" stroke="#000000" stroke-width="4.0" fill="none"/>
<circle cx="604.0" cy="320.0" r="9.0" stroke="#000000" stroke-width="4.0" fill="none" />
<text text-anchor="end" x="575.0" y="329.0" fill="#000000" style="font-size:24px"><tspan style="font-style:italic;">reset</tspan></text>
<circle cx="620.0" cy="320.0" r="2.0" stroke="#b20000" stroke-width="4.0" fill="#b20000" />
</g>
<g>
<circle cx="976.0" cy="340.0" r="9.0" stroke="#000000" stroke-width="4.0" fill="none" />
<circle cx="976.0" cy="340.0" r="15.0" stroke="#000000" stroke-width="4.0" fill="none" />
<text text-anchor="start" x="1005.0" y="349.0" fill="#000000" style="font-size:24px"><tspan style="font-style:italic;">Z</tspan></text>
<circle cx="960.0" cy="340.0" r="2.0" stroke="#0000b2" stroke-width="4.0" fill="#0000b2" />
</g>
</g>
</svg>