<?xml version="1.0" encoding="UTF-8" standalone="no"?>
<!-- Created with Digital by H.Neemann -->
<!-- created: Mon Nov 24 17:15:24 BRT 2025 -->

<svg
   xmlns:svg="http://www.w3.org/2000/svg"
   xmlns="http://www.w3.org/2000/svg"
   width="106.2mm"
   height="59.85mm"
   viewBox="379 103 708 399">
<g stroke-linecap="square">
<path d="M 660,320 L 740,320" stroke="#66ff66" stroke-width="4.0" fill="none"/>
<path d="M 840,420 L 860,420 L 960,420" stroke="#66ff66" stroke-width="4.0" fill="none"/>
<path d="M 660,440 L 740,440" stroke="#66ff66" stroke-width="4.0" fill="none"/>
<path d="M 860,420 L 860,480 L 700,480 L 700,360 L 740,360" stroke="#66ff66" stroke-width="4.0" fill="none"/>
<path d="M 460,135 L 485,135 L 485,110 L 510,110 L 510,135 L 535,135 L 535,110 L 560,110 L 560,135 L 585,135 L 610,135 L 610,110 L 635,110 L 635,135 L 660,135 L 660,110 L 685,110 L 685,135 L 710,135 L 735,135 L 735,110 L 760,110 L 760,135 L 785,135 L 785,110 L 810,110 L 810,135 L 835,135 L 835,110 L 860,110 L 885,110 L 885,135 L 910,135 L 910,110 L 935,110 L 960,110 L 960,135 L 985,135 L 985,110 L 1010,110 L 1010,135 L 1035,135 L 1035,110 L 1060,110 L 1060,135 L 1085,135" stroke="#000000" stroke-width="4.0" fill="none"/>
<path d="M 460,170 L 485,170 L 510,170 L 535,170 L 560,170 L 585,170 L 585,145 L 610,145 L 610,170 L 635,170 L 635,145 L 660,145 L 660,170 L 685,170 L 685,145 L 710,145 L 735,145 L 760,145 L 785,145 L 810,145 L 835,145 L 860,145 L 860,170 L 885,170 L 885,145 L 910,145 L 910,170 L 935,170 L 960,170 L 985,170 L 1010,170 L 1035,170 L 1060,170 L 1085,170" stroke="#000000" stroke-width="4.0" fill="none"/>
<path d="M 460,205 L 485,205 L 510,205 L 535,205 L 560,205 L 585,205 L 585,180 L 610,180 L 635,180 L 660,180 L 685,180 L 710,180 L 710,205 L 735,205 L 760,205 L 785,205 L 810,205 L 835,205 L 860,205 L 860,180 L 885,180 L 910,180 L 935,180 L 935,205 L 960,205 L 985,205 L 1010,205 L 1035,205 L 1060,205 L 1085,205" stroke="#000000" stroke-width="4.0" fill="none"/>
<path d="M 460,215 L 485,215 L 510,215 L 535,215 L 560,215 L 585,215 L 585,240 L 610,240 L 610,215 L 635,215 L 635,240 L 660,240 L 660,215 L 685,215 L 685,240 L 710,240 L 735,240 L 760,240 L 785,240 L 810,240 L 835,240 L 860,240 L 860,215 L 885,215 L 885,240 L 910,240 L 910,215 L 935,215 L 960,215 L 985,215 L 1010,215 L 1035,215 L 1060,215 L 1085,215" stroke="#000000" stroke-width="4.0" fill="none"/>
<path d="M 460,140 L 1085,140" stroke-dasharray="4.0,4.0" stroke="#000000" stroke-width="1.0" fill="none"/>
<path d="M 460,175 L 1085,175" stroke-dasharray="4.0,4.0" stroke="#000000" stroke-width="1.0" fill="none"/>
<path d="M 460,210 L 1085,210" stroke-dasharray="4.0,4.0" stroke="#000000" stroke-width="1.0" fill="none"/>
<path d="M 1085,105 L 460,105 L 460,245 L 1085,245 Z" stroke-dasharray="4.0,4.0" stroke="#000000" stroke-width="1.0" fill="none"/>
<path d="M 485,105 L 485,245" stroke-dasharray="4.0,4.0" stroke="#000000" stroke-width="1.0" fill="none"/>
<path d="M 510,105 L 510,245" stroke-dasharray="4.0,4.0" stroke="#000000" stroke-width="1.0" fill="none"/>
<path d="M 535,105 L 535,245" stroke-dasharray="4.0,4.0" stroke="#000000" stroke-width="1.0" fill="none"/>
<path d="M 560,105 L 560,245" stroke-dasharray="4.0,4.0" stroke="#000000" stroke-width="1.0" fill="none"/>
<path d="M 585,105 L 585,245" stroke-dasharray="4.0,4.0" stroke="#000000" stroke-width="1.0" fill="none"/>
<path d="M 610,105 L 610,245" stroke-dasharray="4.0,4.0" stroke="#000000" stroke-width="1.0" fill="none"/>
<path d="M 635,105 L 635,245" stroke-dasharray="4.0,4.0" stroke="#000000" stroke-width="1.0" fill="none"/>
<path d="M 660,105 L 660,245" stroke-dasharray="4.0,4.0" stroke="#000000" stroke-width="1.0" fill="none"/>
<path d="M 685,105 L 685,245" stroke-dasharray="4.0,4.0" stroke="#000000" stroke-width="1.0" fill="none"/>
<path d="M 710,105 L 710,245" stroke-dasharray="4.0,4.0" stroke="#000000" stroke-width="1.0" fill="none"/>
<path d="M 735,105 L 735,245" stroke-dasharray="4.0,4.0" stroke="#000000" stroke-width="1.0" fill="none"/>
<path d="M 760,105 L 760,245" stroke-dasharray="4.0,4.0" stroke="#000000" stroke-width="1.0" fill="none"/>
<path d="M 785,105 L 785,245" stroke-dasharray="4.0,4.0" stroke="#000000" stroke-width="1.0" fill="none"/>
<path d="M 810,105 L 810,245" stroke-dasharray="4.0,4.0" stroke="#000000" stroke-width="1.0" fill="none"/>
<path d="M 835,105 L 835,245" stroke-dasharray="4.0,4.0" stroke="#000000" stroke-width="1.0" fill="none"/>
<path d="M 860,105 L 860,245" stroke-dasharray="4.0,4.0" stroke="#000000" stroke-width="1.0" fill="none"/>
<path d="M 885,105 L 885,245" stroke-dasharray="4.0,4.0" stroke="#000000" stroke-width="1.0" fill="none"/>
<path d="M 910,105 L 910,245" stroke-dasharray="4.0,4.0" stroke="#000000" stroke-width="1.0" fill="none"/>
<path d="M 935,105 L 935,245" stroke-dasharray="4.0,4.0" stroke="#000000" stroke-width="1.0" fill="none"/>
<path d="M 960,105 L 960,245" stroke-dasharray="4.0,4.0" stroke="#000000" stroke-width="1.0" fill="none"/>
<path d="M 985,105 L 985,245" stroke-dasharray="4.0,4.0" stroke="#000000" stroke-width="1.0" fill="none"/>
<path d="M 1010,105 L 1010,245" stroke-dasharray="4.0,4.0" stroke="#000000" stroke-width="1.0" fill="none"/>
<path d="M 1035,105 L 1035,245" stroke-dasharray="4.0,4.0" stroke="#000000" stroke-width="1.0" fill="none"/>
<path d="M 1060,105 L 1060,245" stroke-dasharray="4.0,4.0" stroke="#000000" stroke-width="1.0" fill="none"/>
<path d="M 840,340 L 880,340 L 960,340" stroke="#008e00" stroke-width="4.0" fill="none"/>
<path d="M 520,460 L 520,340 L 560,340" stroke="#008e00" stroke-width="4.0" fill="none"/>
<path d="M 500,300 L 500,420 L 560,420" stroke="#008e00" stroke-width="4.0" fill="none"/>
<path d="M 480,460 L 520,460 L 560,460" stroke="#008e00" stroke-width="4.0" fill="none"/>
<path d="M 480,300 L 500,300 L 540,300" stroke="#008e00" stroke-width="4.0" fill="none"/>
<path d="M 740,400 L 680,400 L 680,500 L 880,500 L 880,340" stroke="#008e00" stroke-width="4.0" fill="none"/>
<g>
<circle cx="880.0" cy="340.0" r="4.0" stroke="#008e00" stroke-width="4.0" fill="#008e00" />
<circle cx="860.0" cy="420.0" r="4.0" stroke="#66ff66" stroke-width="4.0" fill="#66ff66" />
<circle cx="520.0" cy="460.0" r="4.0" stroke="#008e00" stroke-width="4.0" fill="#008e00" />
<circle cx="500.0" cy="300.0" r="4.0" stroke="#008e00" stroke-width="4.0" fill="#008e00" />
</g>
<g>
<path d="M 790,370 L 741,370 L 741,310 L 790,310 C 800,310 820,320 819,340 C 819,360 800,370 790,370 Z" stroke="#000000" stroke-width="4.0" fill="none"/>
<circle cx="830.0" cy="340.0" r="9.0" stroke="#000000" stroke-width="4.0" fill="none" />
<circle cx="740.0" cy="320.0" r="2.0" stroke="#0000b2" stroke-width="4.0" fill="#0000b2" />
<circle cx="740.0" cy="360.0" r="2.0" stroke="#0000b2" stroke-width="4.0" fill="#0000b2" />
<circle cx="840.0" cy="340.0" r="2.0" stroke="#b20000" stroke-width="4.0" fill="#b20000" />
</g>
<g>
<path d="M 449,285 L 479,285 L 479,315 L 449,315 Z" stroke="#000000" stroke-width="4.0" fill="none"/>
<circle cx="464.0" cy="300.0" r="9.0" stroke="#008e00" stroke-width="4.0" fill="#008e00" />
<text text-anchor="end" x="435.0" y="309.0" fill="#000000" style="font-size:24px"><tspan style="font-style:italic;">D</tspan></text>
<circle cx="480.0" cy="300.0" r="2.0" stroke="#b20000" stroke-width="4.0" fill="#b20000" />
</g>
<g>
<circle cx="976.0" cy="340.0" r="9.0" stroke="#008e00" stroke-width="4.0" fill="#008e00" />
<circle cx="976.0" cy="340.0" r="15.0" stroke="#000000" stroke-width="4.0" fill="none" />
<text text-anchor="start" x="1005.0" y="349.0" fill="#000000" style="font-size:24px"><tspan style="font-style:italic;">!Q</tspan></text>
<circle cx="960.0" cy="340.0" r="2.0" stroke="#0000b2" stroke-width="4.0" fill="#0000b2" />
</g>
<g>
<text text-anchor="end" x="458.0" y="131.0" fill="#000000" style="font-size:24px">D</text>
<text text-anchor="end" x="458.0" y="166.0" fill="#000000" style="font-size:24px">!Q</text>
<text text-anchor="end" x="458.0" y="201.0" fill="#000000" style="font-size:24px">clock</text>
<text text-anchor="end" x="458.0" y="236.0" fill="#000000" style="font-size:24px">Q</text>
</g>
<g>
<path d="M 790,450 L 741,450 L 741,390 L 790,390 C 800,390 820,400 819,420 C 819,440 800,450 790,450 Z" stroke="#000000" stroke-width="4.0" fill="none"/>
<circle cx="830.0" cy="420.0" r="9.0" stroke="#000000" stroke-width="4.0" fill="none" />
<circle cx="740.0" cy="400.0" r="2.0" stroke="#0000b2" stroke-width="4.0" fill="#0000b2" />
<circle cx="740.0" cy="440.0" r="2.0" stroke="#0000b2" stroke-width="4.0" fill="#0000b2" />
<circle cx="840.0" cy="420.0" r="2.0" stroke="#b20000" stroke-width="4.0" fill="#b20000" />
</g>
<g>
<path d="M 449,445 L 479,445 L 479,475 L 449,475 Z" stroke="#000000" stroke-width="4.0" fill="none"/>
<circle cx="464.0" cy="460.0" r="9.0" stroke="#008e00" stroke-width="4.0" fill="#008e00" />
<text text-anchor="end" x="435.0" y="469.0" fill="#000000" style="font-size:24px"><tspan style="font-style:italic;">clock</tspan></text>
<circle cx="480.0" cy="460.0" r="2.0" stroke="#b20000" stroke-width="4.0" fill="#b20000" />
</g>
<g>
<circle cx="976.0" cy="420.0" r="9.0" stroke="#66ff66" stroke-width="4.0" fill="#66ff66" />
<circle cx="976.0" cy="420.0" r="15.0" stroke="#000000" stroke-width="4.0" fill="none" />
<text text-anchor="start" x="1005.0" y="429.0" fill="#000000" style="font-size:24px"><tspan style="font-style:italic;">Q</tspan></text>
<circle cx="960.0" cy="420.0" r="2.0" stroke="#0000b2" stroke-width="4.0" fill="#0000b2" />
</g>
<g>
<path d="M 610,350 L 561,350 L 561,290 L 610,290 C 620,290 640,300 639,320 C 639,340 620,350 610,350 Z" stroke="#000000" stroke-width="4.0" fill="none"/>
<circle cx="550.0" cy="300.0" r="8.0" stroke="#000000" stroke-width="4.0" fill="none" />
<circle cx="650.0" cy="320.0" r="9.0" stroke="#000000" stroke-width="4.0" fill="none" />
<circle cx="540.0" cy="300.0" r="2.0" stroke="#0000b2" stroke-width="4.0" fill="#0000b2" />
<circle cx="560.0" cy="340.0" r="2.0" stroke="#0000b2" stroke-width="4.0" fill="#0000b2" />
<circle cx="660.0" cy="320.0" r="2.0" stroke="#b20000" stroke-width="4.0" fill="#b20000" />
</g>
<g>
<path d="M 610,470 L 561,470 L 561,410 L 610,410 C 620,410 640,420 639,440 C 639,460 620,470 610,470 Z" stroke="#000000" stroke-width="4.0" fill="none"/>
<circle cx="650.0" cy="440.0" r="9.0" stroke="#000000" stroke-width="4.0" fill="none" />
<circle cx="560.0" cy="420.0" r="2.0" stroke="#0000b2" stroke-width="4.0" fill="#0000b2" />
<circle cx="560.0" cy="460.0" r="2.0" stroke="#0000b2" stroke-width="4.0" fill="#0000b2" />
<circle cx="660.0" cy="440.0" r="2.0" stroke="#b20000" stroke-width="4.0" fill="#b20000" />
</g>
</g>
</svg>