<?xml version="1.0" encoding="UTF-8" standalone="no"?>
<!-- Created with Digital by H.Neemann -->
<!-- created: Mon Nov 24 19:11:18 BRT 2025 -->

<svg
   xmlns:svg="http://www.w3.org/2000/svg"
   xmlns="http://www.w3.org/2000/svg"
   width="141.75mm"
   height="62.85mm"
   viewBox="379 103 945 419">
<g stroke-linecap="square">
<path d="M 700,320 L 740,320 L 740,360 L 780,360" stroke="#66ff66" stroke-width="4.0" fill="none"/>
<path d="M 1060,440 L 1100,440 L 1100,400 L 1140,400" stroke="#66ff66" stroke-width="4.0" fill="none"/>
<path d="M 480,300 L 620,300" stroke="#66ff66" stroke-width="4.0" fill="none"/>
<path d="M 860,380 L 880,380 L 880,300 L 980,300" stroke="#66ff66" stroke-width="4.0" fill="none"/>
<path d="M 1220,380 L 1240,380 L 1260,380" stroke="#66ff66" stroke-width="4.0" fill="none"/>
<path d="M 980,420 L 920,420 L 920,520 L 1240,520 L 1240,380" stroke="#66ff66" stroke-width="4.0" fill="none"/>
<path d="M 620,420 L 520,420 L 520,520 L 880,520 L 880,380" stroke="#66ff66" stroke-width="4.0" fill="none"/>
<path d="M 460,110 L 485,110 L 485,135 L 510,135 L 535,135 L 535,110 L 560,110 L 560,135 L 585,135 L 585,110 L 610,110 L 610,135 L 635,135 L 660,135 L 660,110 L 685,110 L 685,135 L 710,135 L 710,110 L 735,110 L 735,135 L 760,135 L 760,110 L 785,110 L 810,110 L 810,135 L 835,135 L 835,110 L 860,110 L 860,135 L 885,135 L 885,110 L 910,110 L 910,135 L 935,135 L 960,135 L 960,110 L 985,110 L 985,135 L 1010,135 L 1010,110 L 1035,110 L 1035,135 L 1060,135 L 1060,110 L 1085,110" stroke="#000000" stroke-width="4.0" fill="none"/>
<path d="M 460,170 L 485,170 L 510,170 L 510,145 L 535,145 L 560,145 L 585,145 L 610,145 L 635,145 L 635,170 L 660,170 L 685,170 L 710,170 L 735,170 L 760,170 L 785,170 L 785,145 L 810,145 L 835,145 L 860,145 L 885,145 L 910,145 L 935,145 L 935,170 L 960,170 L 985,170 L 1010,170 L 1035,170 L 1060,170 L 1085,170" stroke="#000000" stroke-width="4.0" fill="none"/>
<path d="M 460,205 L 485,205 L 510,205 L 535,205 L 560,205 L 585,205 L 610,205 L 635,205 L 660,205 L 685,205 L 710,205 L 735,205 L 760,205 L 785,205 L 785,180 L 810,180 L 835,180 L 860,180 L 885,180 L 910,180 L 935,180 L 960,180 L 985,180 L 1010,180 L 1035,180 L 1060,180 L 1085,180" stroke="#000000" stroke-width="4.0" fill="none"/>
<path d="M 780,360 L 784,360" stroke="#0000b2" stroke-width="4.0" fill="none"/>
<path d="M 780,400 L 784,400" stroke="#0000b2" stroke-width="4.0" fill="none"/>
<path d="M 1140,360 L 1144,360" stroke="#0000b2" stroke-width="4.0" fill="none"/>
<path d="M 1140,400 L 1144,400" stroke="#0000b2" stroke-width="4.0" fill="none"/>
<path d="M 460,140 L 1085,140" stroke-dasharray="4.0,4.0" stroke="#000000" stroke-width="1.0" fill="none"/>
<path d="M 460,175 L 1085,175" stroke-dasharray="4.0,4.0" stroke="#000000" stroke-width="1.0" fill="none"/>
<path d="M 1085,105 L 460,105 L 460,210 L 1085,210 Z" stroke-dasharray="4.0,4.0" stroke="#000000" stroke-width="1.0" fill="none"/>
<path d="M 485,105 L 485,210" stroke-dasharray="4.0,4.0" stroke="#000000" stroke-width="1.0" fill="none"/>
<path d="M 510,105 L 510,210" stroke-dasharray="4.0,4.0" stroke="#000000" stroke-width="1.0" fill="none"/>
<path d="M 535,105 L 535,210" stroke-dasharray="4.0,4.0" stroke="#000000" stroke-width="1.0" fill="none"/>
<path d="M 560,105 L 560,210" stroke-dasharray="4.0,4.0" stroke="#000000" stroke-width="1.0" fill="none"/>
<path d="M 585,105 L 585,210" stroke-dasharray="4.0,4.0" stroke="#000000" stroke-width="1.0" fill="none"/>
<path d="M 610,105 L 610,210" stroke-dasharray="4.0,4.0" stroke="#000000" stroke-width="1.0" fill="none"/>
<path d="M 635,105 L 635,210" stroke-dasharray="4.0,4.0" stroke="#000000" stroke-width="1.0" fill="none"/>
<path d="M 660,105 L 660,210" stroke-dasharray="4.0,4.0" stroke="#000000" stroke-width="1.0" fill="none"/>
<path d="M 685,105 L 685,210" stroke-dasharray="4.0,4.0" stroke="#000000" stroke-width="1.0" fill="none"/>
<path d="M 710,105 L 710,210" stroke-dasharray="4.0,4.0" stroke="#000000" stroke-width="1.0" fill="none"/>
<path d="M 735,105 L 735,210" stroke-dasharray="4.0,4.0" stroke="#000000" stroke-width="1.0" fill="none"/>
<path d="M 760,105 L 760,210" stroke-dasharray="4.0,4.0" stroke="#000000" stroke-width="1.0" fill="none"/>
<path d="M 785,105 L 785,210" stroke-dasharray="4.0,4.0" stroke="#000000" stroke-width="1.0" fill="none"/>
<path d="M 810,105 L 810,210" stroke-dasharray="4.0,4.0" stroke="#000000" stroke-width="1.0" fill="none"/>
<path d="M 835,105 L 835,210" stroke-dasharray="4.0,4.0" stroke="#000000" stroke-width="1.0" fill="none"/>
<path d="M 860,105 L 860,210" stroke-dasharray="4.0,4.0" stroke="#000000" stroke-width="1.0" fill="none"/>
<path d="M 885,105 L 885,210" stroke-dasharray="4.0,4.0" stroke="#000000" stroke-width="1.0" fill="none"/>
<path d="M 910,105 L 910,210" stroke-dasharray="4.0,4.0" stroke="#000000" stroke-width="1.0" fill="none"/>
<path d="M 935,105 L 935,210" stroke-dasharray="4.0,4.0" stroke="#000000" stroke-width="1.0" fill="none"/>
<path d="M 960,105 L 960,210" stroke-dasharray="4.0,4.0" stroke="#000000" stroke-width="1.0" fill="none"/>
<path d="M 985,105 L 985,210" stroke-dasharray="4.0,4.0" stroke="#000000" stroke-width="1.0" fill="none"/>
<path d="M 1010,105 L 1010,210" stroke-dasharray="4.0,4.0" stroke="#000000" stroke-width="1.0" fill="none"/>
<path d="M 1035,105 L 1035,210" stroke-dasharray="4.0,4.0" stroke="#000000" stroke-width="1.0" fill="none"/>
<path d="M 1060,105 L 1060,210" stroke-dasharray="4.0,4.0" stroke="#000000" stroke-width="1.0" fill="none"/>
<path d="M 1060,320 L 1100,320 L 1100,360 L 1140,360" stroke="#008e00" stroke-width="4.0" fill="none"/>
<path d="M 700,440 L 740,440 L 740,400 L 780,400" stroke="#008e00" stroke-width="4.0" fill="none"/>
<path d="M 480,460 L 580,460 L 620,460" stroke="#008e00" stroke-width="4.0" fill="none"/>
<path d="M 600,340 L 580,340 L 580,460 L 580,500 L 940,500 L 940,460" stroke="#008e00" stroke-width="4.0" fill="none"/>
<path d="M 980,340 L 940,340 L 940,460 L 960,460" stroke="#008e00" stroke-width="4.0" fill="none"/>
<g>
<circle cx="940.0" cy="460.0" r="4.0" stroke="#008e00" stroke-width="4.0" fill="#008e00" />
<circle cx="580.0" cy="460.0" r="4.0" stroke="#008e00" stroke-width="4.0" fill="#008e00" />
<circle cx="880.0" cy="380.0" r="4.0" stroke="#66ff66" stroke-width="4.0" fill="#66ff66" />
<circle cx="1240.0" cy="380.0" r="4.0" stroke="#66ff66" stroke-width="4.0" fill="#66ff66" />
</g>
<g>
<path d="M 449,285 L 479,285 L 479,315 L 449,315 Z" stroke="#000000" stroke-width="4.0" fill="none"/>
<circle cx="464.0" cy="300.0" r="9.0" stroke="#66ff66" stroke-width="4.0" fill="#66ff66" />
<text text-anchor="end" x="435.0" y="309.0" fill="#000000" style="font-size:24px"><tspan style="font-style:italic;">D</tspan></text>
<circle cx="480.0" cy="300.0" r="2.0" stroke="#b20000" stroke-width="4.0" fill="#b20000" />
</g>
<g>
<text text-anchor="end" x="458.0" y="131.0" fill="#000000" style="font-size:24px">D</text>
<text text-anchor="end" x="458.0" y="166.0" fill="#000000" style="font-size:24px">clock</text>
<text text-anchor="end" x="458.0" y="201.0" fill="#000000" style="font-size:24px">Q</text>
</g>
<g>
<path d="M 449,445 L 479,445 L 479,475 L 449,475 Z" stroke="#000000" stroke-width="4.0" fill="none"/>
<circle cx="464.0" cy="460.0" r="9.0" stroke="#008e00" stroke-width="4.0" fill="#008e00" />
<text text-anchor="end" x="435.0" y="469.0" fill="#000000" style="font-size:24px"><tspan style="font-style:italic;">clock</tspan></text>
<circle cx="480.0" cy="460.0" r="2.0" stroke="#b20000" stroke-width="4.0" fill="#b20000" />
</g>
<g>
<circle cx="1276.0" cy="380.0" r="9.0" stroke="#66ff66" stroke-width="4.0" fill="#66ff66" />
<circle cx="1276.0" cy="380.0" r="15.0" stroke="#000000" stroke-width="4.0" fill="none" />
<text text-anchor="start" x="1305.0" y="389.0" fill="#000000" style="font-size:24px"><tspan style="font-style:italic;">Q</tspan></text>
<circle cx="1260.0" cy="380.0" r="2.0" stroke="#0000b2" stroke-width="4.0" fill="#0000b2" />
</g>
<g>
<path d="M 670,350 L 621,350 L 621,290 L 670,290 C 680,290 700,300 699,320 C 699,340 680,350 670,350 Z" stroke="#000000" stroke-width="4.0" fill="none"/>
<circle cx="610.0" cy="340.0" r="8.0" stroke="#000000" stroke-width="4.0" fill="none" />
<circle cx="620.0" cy="300.0" r="2.0" stroke="#0000b2" stroke-width="4.0" fill="#0000b2" />
<circle cx="600.0" cy="340.0" r="2.0" stroke="#0000b2" stroke-width="4.0" fill="#0000b2" />
<circle cx="700.0" cy="320.0" r="2.0" stroke="#b20000" stroke-width="4.0" fill="#b20000" />
</g>
<g>
<path d="M 670,470 L 621,470 L 621,410 L 670,410 C 680,410 700,420 699,440 C 699,460 680,470 670,470 Z" stroke="#000000" stroke-width="4.0" fill="none"/>
<circle cx="620.0" cy="420.0" r="2.0" stroke="#0000b2" stroke-width="4.0" fill="#0000b2" />
<circle cx="620.0" cy="460.0" r="2.0" stroke="#0000b2" stroke-width="4.0" fill="#0000b2" />
<circle cx="700.0" cy="440.0" r="2.0" stroke="#b20000" stroke-width="4.0" fill="#b20000" />
</g>
<g>
<path d="M 810,410 L 780,410 C 790,394 790,366 780,350 L 800,350 C 830,350 850,360 860,380 C 850,400 830,410 810,410 Z" stroke="#000000" stroke-width="4.0" fill="none"/>
<circle cx="780.0" cy="360.0" r="2.0" stroke="#0000b2" stroke-width="4.0" fill="#0000b2" />
<circle cx="780.0" cy="400.0" r="2.0" stroke="#0000b2" stroke-width="4.0" fill="#0000b2" />
<circle cx="860.0" cy="380.0" r="2.0" stroke="#b20000" stroke-width="4.0" fill="#b20000" />
</g>
<g>
<path d="M 1030,350 L 981,350 L 981,290 L 1030,290 C 1040,290 1060,300 1059,320 C 1059,340 1040,350 1030,350 Z" stroke="#000000" stroke-width="4.0" fill="none"/>
<circle cx="980.0" cy="300.0" r="2.0" stroke="#0000b2" stroke-width="4.0" fill="#0000b2" />
<circle cx="980.0" cy="340.0" r="2.0" stroke="#0000b2" stroke-width="4.0" fill="#0000b2" />
<circle cx="1060.0" cy="320.0" r="2.0" stroke="#b20000" stroke-width="4.0" fill="#b20000" />
</g>
<g>
<path d="M 1030,470 L 981,470 L 981,410 L 1030,410 C 1040,410 1060,420 1059,440 C 1059,460 1040,470 1030,470 Z" stroke="#000000" stroke-width="4.0" fill="none"/>
<circle cx="970.0" cy="460.0" r="8.0" stroke="#000000" stroke-width="4.0" fill="none" />
<circle cx="980.0" cy="420.0" r="2.0" stroke="#0000b2" stroke-width="4.0" fill="#0000b2" />
<circle cx="960.0" cy="460.0" r="2.0" stroke="#0000b2" stroke-width="4.0" fill="#0000b2" />
<circle cx="1060.0" cy="440.0" r="2.0" stroke="#b20000" stroke-width="4.0" fill="#b20000" />
</g>
<g>
<path d="M 1170,410 L 1140,410 C 1150,394 1150,366 1140,350 L 1160,350 C 1190,350 1210,360 1220,380 C 1210,400 1190,410 1170,410 Z" stroke="#000000" stroke-width="4.0" fill="none"/>
<circle cx="1140.0" cy="360.0" r="2.0" stroke="#0000b2" stroke-width="4.0" fill="#0000b2" />
<circle cx="1140.0" cy="400.0" r="2.0" stroke="#0000b2" stroke-width="4.0" fill="#0000b2" />
<circle cx="1220.0" cy="380.0" r="2.0" stroke="#b20000" stroke-width="4.0" fill="#b20000" />
</g>
</g>
</svg>