<?xml version="1.0" encoding="UTF-8" standalone="no"?>
<!-- Created with Digital by H.Neemann -->
<!-- created: Tue Nov 25 04:32:41 BRT 2025 -->

<svg
   xmlns:svg="http://www.w3.org/2000/svg"
   xmlns="http://www.w3.org/2000/svg"
   width="123.45mm"
   height="65.7mm"
   viewBox="399 66 823 438">
<g stroke-linecap="square">
<path d="M 520,160 L 560,160" stroke="#66ff66" stroke-width="4.0" fill="none"/>
<path d="M 540,480 L 600,480" stroke="#66ff66" stroke-width="4.0" fill="none"/>
<path d="M 640,260 L 680,260" stroke="#66ff66" stroke-width="4.0" fill="none"/>
<path d="M 1080,300 L 1120,300" stroke="#66ff66" stroke-width="4.0" fill="none"/>
<path d="M 500,240 L 540,240 L 680,240" stroke="#66ff66" stroke-width="4.0" fill="none"/>
<path d="M 540,240 L 540,280 L 1120,280" stroke="#66ff66" stroke-width="4.0" fill="none"/>
<path d="M 520,460 L 530,460 L 540,460" stroke="#000000" stroke-width="4.0" fill="none"/>
<path d="M 540,480 L 530,480" stroke="#000000" stroke-width="4.0" fill="none"/>
<path d="M 540,500 L 530,500" stroke="#000000" stroke-width="4.0" fill="none"/>
<path d="M 1080,320 L 1120,320" stroke="#0000b2" stroke-width="4.0" fill="none"/>
<path d="M 820,240 L 820,360 L 1120,360" stroke="#0000b2" stroke-width="4.0" fill="none"/>
<path d="M 520,140 L 560,140" stroke="#0000b2" stroke-width="4.0" fill="none"/>
<path d="M 540,460 L 740,460" stroke="#0000b2" stroke-width="4.0" fill="none"/>
<path d="M 740,240 L 820,240 L 820,80 L 540,80 L 540,120 L 560,120" stroke="#0000b2" stroke-width="4.0" fill="none"/>
<path d="M 1080,340 L 1120,340" stroke="#0000b2" stroke-width="4.0" fill="none"/>
<path d="M 620,120 L 660,120 L 660,220 L 680,220" stroke="#0000b2" stroke-width="4.0" fill="none"/>
<path d="M 1180,280 L 1220,280 L 1220,420 L 420,420 L 420,460 L 520,460" stroke="#0000b2" stroke-width="4.0" fill="none"/>
<path d="M 1080,260 L 1120,260" stroke="#008e00" stroke-width="4.0" fill="none"/>
<path d="M 540,500 L 600,500" stroke="#008e00" stroke-width="4.0" fill="none"/>
<g>
<text text-anchor="middle" x="810.0" y="417.0" fill="#32a232" style="font-size:12px">0x7777</text>
<text text-anchor="middle" x="970.0" y="357.0" fill="#32a232" style="font-size:12px">2</text>
<text text-anchor="middle" x="470.0" y="457.0" fill="#32a232" style="font-size:12px">0x7777</text>
<text text-anchor="middle" x="630.0" y="457.0" fill="#32a232" style="font-size:12px">0x3777</text>
<circle cx="540.0" cy="240.0" r="4.0" stroke="#66ff66" stroke-width="4.0" fill="#66ff66" />
<circle cx="820.0" cy="240.0" r="4.0" stroke="#0000b2" stroke-width="4.0" fill="#0000b2" />
<text text-anchor="middle" x="670.0" y="77.0" fill="#32a232" style="font-size:12px">2</text>
</g>
<g>
<path d="M 681,210 L 739,210 L 739,270 L 681,270 Z" stroke="#000000" stroke-width="4.0" fill="none"/>
<text text-anchor="middle" x="710.0" y="202.0" fill="#000000" style="font-size:24px">PC</text>
<text text-anchor="start" x="684.0" y="226.75" fill="#808080" style="font-size:18px">D</text>
<path d="M 681,247 L 688,240 L 681,233" stroke="#000000" stroke-width="2.0" fill="none"/>
<text text-anchor="start" x="691.0" y="246.75" fill="#808080" style="font-size:18px">C</text>
<text text-anchor="start" x="684.0" y="266.75" fill="#808080" style="font-size:18px">en</text>
<text text-anchor="end" x="736.0" y="246.75" fill="#808080" style="font-size:18px">Q</text>
<text text-anchor="middle" x="710.0" y="287.5" fill="#808080" style="font-size:18px">Reg</text>
<circle cx="680.0" cy="220.0" r="2.0" stroke="#0000b2" stroke-width="4.0" fill="#0000b2" />
<circle cx="680.0" cy="240.0" r="2.0" stroke="#0000b2" stroke-width="4.0" fill="#0000b2" />
<circle cx="680.0" cy="260.0" r="2.0" stroke="#0000b2" stroke-width="4.0" fill="#0000b2" />
<circle cx="740.0" cy="240.0" r="2.0" stroke="#b20000" stroke-width="4.0" fill="#b20000" />
</g>
<g>
<path d="M 469,225 L 499,225 L 499,255 L 469,255 Z" stroke="#000000" stroke-width="4.0" fill="none"/>
<text text-anchor="end" x="455.0" y="249.0" fill="#000000" style="font-size:24px"><tspan style="font-style:italic;">clock</tspan></text>
<path d="M 475,245 L 480,245 L 480,235 L 485,235 L 485,245 L 490,245 L 490,235 L 495,235" stroke="#000000" stroke-width="2.0" fill="none"/>
<circle cx="500.0" cy="240.0" r="2.0" stroke="#b20000" stroke-width="4.0" fill="#b20000" />
</g>
<g>
<path d="M 561,110 L 619,110 L 619,170 L 561,170 Z" stroke="#000000" stroke-width="4.0" fill="none"/>
<text text-anchor="start" x="564.0" y="126.75" fill="#808080" style="font-size:18px">a</text>
<text text-anchor="start" x="564.0" y="146.75" fill="#808080" style="font-size:18px">b</text>
<text text-anchor="start" x="564.0" y="166.75" fill="#808080" style="font-size:18px">c<tspan style="font-size:80%;baseline-shift:sub;">i</tspan></text>
<text text-anchor="end" x="616.0" y="126.75" fill="#808080" style="font-size:18px">s</text>
<text text-anchor="end" x="616.0" y="146.75" fill="#808080" style="font-size:18px">c<tspan style="font-size:80%;baseline-shift:sub;">o</tspan></text>
<text text-anchor="middle" x="590.0" y="187.5" fill="#808080" style="font-size:18px">Soma</text>
<circle cx="560.0" cy="120.0" r="2.0" stroke="#0000b2" stroke-width="4.0" fill="#0000b2" />
<circle cx="560.0" cy="140.0" r="2.0" stroke="#0000b2" stroke-width="4.0" fill="#0000b2" />
<circle cx="560.0" cy="160.0" r="2.0" stroke="#0000b2" stroke-width="4.0" fill="#0000b2" />
<circle cx="620.0" cy="120.0" r="2.0" stroke="#b20000" stroke-width="4.0" fill="#b20000" />
<circle cx="620.0" cy="140.0" r="2.0" stroke="#b20000" stroke-width="4.0" fill="#b20000" />
</g>
<g>
<text text-anchor="end" x="517.0" y="149.0" fill="#000000" style="font-size:24px">0</text>
<circle cx="520.0" cy="140.0" r="2.0" stroke="#b20000" stroke-width="4.0" fill="#b20000" />
</g>
<g>
<text text-anchor="end" x="517.0" y="169.0" fill="#000000" style="font-size:24px">1</text>
<circle cx="520.0" cy="160.0" r="2.0" stroke="#b20000" stroke-width="4.0" fill="#b20000" />
</g>
<g>
<text text-anchor="end" x="637.0" y="269.0" fill="#000000" style="font-size:24px">1</text>
<circle cx="640.0" cy="260.0" r="2.0" stroke="#b20000" stroke-width="4.0" fill="#b20000" />
</g>
<g>
<path d="M 1121,250 L 1179,250 L 1179,370 L 1121,370 Z" stroke="#000000" stroke-width="4.0" fill="none"/>
<text text-anchor="start" x="1124.0" y="266.75" fill="#808080" style="font-size:18px">str</text>
<path d="M 1121,287 L 1128,280 L 1121,273" stroke="#000000" stroke-width="2.0" fill="none"/>
<text text-anchor="start" x="1131.0" y="286.75" fill="#808080" style="font-size:18px">C</text>
<text text-anchor="start" x="1124.0" y="306.75" fill="#808080" style="font-size:18px">ld</text>
<text text-anchor="start" x="1124.0" y="326.75" fill="#808080" style="font-size:18px">1A</text>
<text text-anchor="start" x="1124.0" y="346.75" fill="#808080" style="font-size:18px">1Din</text>
<text text-anchor="start" x="1124.0" y="366.75" fill="#808080" style="font-size:18px">2A</text>
<text text-anchor="end" x="1176.0" y="266.75" fill="#808080" style="font-size:18px">1D</text>
<text text-anchor="end" x="1176.0" y="286.75" fill="#808080" style="font-size:18px">2D</text>
<text text-anchor="middle" x="1150.0" y="387.5" fill="#808080" style="font-size:18px">RAM</text>
<circle cx="1120.0" cy="260.0" r="2.0" stroke="#0000b2" stroke-width="4.0" fill="#0000b2" />
<circle cx="1120.0" cy="280.0" r="2.0" stroke="#0000b2" stroke-width="4.0" fill="#0000b2" />
<circle cx="1120.0" cy="300.0" r="2.0" stroke="#0000b2" stroke-width="4.0" fill="#0000b2" />
<circle cx="1120.0" cy="320.0" r="2.0" stroke="#0000b2" stroke-width="4.0" fill="#0000b2" />
<circle cx="1120.0" cy="340.0" r="2.0" stroke="#0000b2" stroke-width="4.0" fill="#0000b2" />
<circle cx="1120.0" cy="360.0" r="2.0" stroke="#0000b2" stroke-width="4.0" fill="#0000b2" />
<circle cx="1180.0" cy="260.0" r="2.0" stroke="#b20000" stroke-width="4.0" fill="#b20000" />
<circle cx="1180.0" cy="280.0" r="2.0" stroke="#b20000" stroke-width="4.0" fill="#b20000" />
</g>
<g>
<text text-anchor="end" x="1077.0" y="269.0" fill="#000000" style="font-size:24px">0</text>
<circle cx="1080.0" cy="260.0" r="2.0" stroke="#b20000" stroke-width="4.0" fill="#b20000" />
</g>
<g>
<text text-anchor="end" x="1077.0" y="309.0" fill="#000000" style="font-size:24px">1</text>
<circle cx="1080.0" cy="300.0" r="2.0" stroke="#b20000" stroke-width="4.0" fill="#b20000" />
</g>
<g>
<text text-anchor="end" x="1077.0" y="329.0" fill="#000000" style="font-size:24px">0</text>
<circle cx="1080.0" cy="320.0" r="2.0" stroke="#b20000" stroke-width="4.0" fill="#b20000" />
</g>
<g>
<text text-anchor="end" x="1077.0" y="349.0" fill="#000000" style="font-size:24px">0</text>
<circle cx="1080.0" cy="340.0" r="2.0" stroke="#b20000" stroke-width="4.0" fill="#b20000" />
</g>
<g>
<text text-anchor="end" x="518.0" y="457.0" fill="#808080" style="font-size:12px">0-15</text>
<text text-anchor="start" x="542.0" y="457.0" fill="#808080" style="font-size:12px">0-13</text>
<text text-anchor="start" x="542.0" y="477.0" fill="#808080" style="font-size:12px">14</text>
<text text-anchor="start" x="542.0" y="497.0" fill="#808080" style="font-size:12px">15</text>
<path d="M 528,458 L 532,458 L 532,502 L 528,502 Z" stroke="#000000" stroke-width="4.0" fill="#000000" fill-opacity="1.0"/>
<circle cx="520.0" cy="460.0" r="2.0" stroke="#0000b2" stroke-width="4.0" fill="#0000b2" />
<circle cx="540.0" cy="460.0" r="2.0" stroke="#b20000" stroke-width="4.0" fill="#b20000" />
<circle cx="540.0" cy="480.0" r="2.0" stroke="#b20000" stroke-width="4.0" fill="#b20000" />
<circle cx="540.0" cy="500.0" r="2.0" stroke="#b20000" stroke-width="4.0" fill="#b20000" />
</g>
</g>
</svg>