<?xml version="1.0" encoding="UTF-8" standalone="no"?>
<!-- Created with Digital by H.Neemann -->
<!-- created: Thu Nov 27 06:00:14 BRT 2025 -->

<svg
   xmlns:svg="http://www.w3.org/2000/svg"
   xmlns="http://www.w3.org/2000/svg"
   width="222.6mm"
   height="77.7mm"
   viewBox="298 66 1484 518">
<g stroke-linecap="square">
<path d="M 1200,360 L 1210,360 L 1220,360" stroke="#000000" stroke-width="4.0" fill="none"/>
<path d="M 1220,380 L 1210,380" stroke="#000000" stroke-width="4.0" fill="none"/>
<path d="M 1220,400 L 1210,400" stroke="#000000" stroke-width="4.0" fill="none"/>
<path d="M 400,540 L 410,540 L 420,540" stroke="#000000" stroke-width="4.0" fill="none"/>
<path d="M 420,560 L 410,560" stroke="#000000" stroke-width="4.0" fill="none"/>
<path d="M 420,580 L 410,580" stroke="#000000" stroke-width="4.0" fill="none"/>
<path d="M 360,160 L 400,160" stroke="#008e00" stroke-width="4.0" fill="none"/>
<path d="M 560,380 L 600,380 L 600,160" stroke="#008e00" stroke-width="4.0" fill="none"/>
<path d="M 640,260 L 680,260" stroke="#66ff66" stroke-width="4.0" fill="none"/>
<path d="M 1480,260 L 1520,260" stroke="#66ff66" stroke-width="4.0" fill="none"/>
<path d="M 1480,300 L 1520,300" stroke="#66ff66" stroke-width="4.0" fill="none"/>
<path d="M 420,240 L 460,240 L 680,240" stroke="#66ff66" stroke-width="4.0" fill="none"/>
<path d="M 460,240 L 460,280 L 1520,280" stroke="#66ff66" stroke-width="4.0" fill="none"/>
<path d="M 540,160 L 580,160" stroke="#0000b2" stroke-width="4.0" fill="none"/>
<path d="M 1480,320 L 1520,320" stroke="#0000b2" stroke-width="4.0" fill="none"/>
<path d="M 1580,260 L 1780,260" stroke="#0000b2" stroke-width="4.0" fill="none"/>
<path d="M 360,140 L 400,140" stroke="#0000b2" stroke-width="4.0" fill="none"/>
<path d="M 620,140 L 660,140 L 660,220 L 680,220" stroke="#0000b2" stroke-width="4.0" fill="none"/>
<path d="M 740,240 L 820,240 L 880,240" stroke="#0000b2" stroke-width="4.0" fill="none"/>
<path d="M 420,560 L 580,560" stroke="#0000b2" stroke-width="4.0" fill="none"/>
<path d="M 1480,340 L 1520,340" stroke="#0000b2" stroke-width="4.0" fill="none"/>
<path d="M 460,120 L 580,120" stroke="#0000b2" stroke-width="4.0" fill="none"/>
<path d="M 1220,380 L 1420,380 L 1420,360 L 1520,360" stroke="#0000b2" stroke-width="4.0" fill="none"/>
<path d="M 1200,360 L 820,360 L 820,240 L 820,80 L 380,80 L 380,120 L 400,120" stroke="#0000b2" stroke-width="4.0" fill="none"/>
<path d="M 1580,280 L 1620,280 L 1620,480 L 300,480 L 300,540 L 400,540" stroke="#0000b2" stroke-width="4.0" fill="none"/>
<g>
<text text-anchor="middle" x="950.0" y="477.0" fill="#32a232" style="font-size:12px">7183B3</text>
<text text-anchor="middle" x="1670.0" y="257.0" fill="#32a232" style="font-size:12px">0</text>
<text text-anchor="middle" x="1010.0" y="357.0" fill="#32a232" style="font-size:12px">0x18</text>
<text text-anchor="middle" x="1470.0" y="357.0" fill="#32a232" style="font-size:12px">6</text>
<text text-anchor="middle" x="590.0" y="77.0" fill="#32a232" style="font-size:12px">0x18</text>
<circle cx="460.0" cy="240.0" r="4.0" stroke="#66ff66" stroke-width="4.0" fill="#66ff66" />
<circle cx="820.0" cy="240.0" r="4.0" stroke="#0000b2" stroke-width="4.0" fill="#0000b2" />
<text text-anchor="middle" x="490.0" y="557.0" fill="#32a232" style="font-size:12px">C</text>
<text text-anchor="middle" x="510.0" y="117.0" fill="#32a232" style="font-size:12px">1C</text>
<text text-anchor="middle" x="1310.0" y="377.0" fill="#32a232" style="font-size:12px">6</text>
<text text-anchor="middle" x="350.0" y="537.0" fill="#32a232" style="font-size:12px">7183B3</text>
</g>
<g>
<path d="M 681,210 L 739,210 L 739,270 L 681,270 Z" stroke="#000000" stroke-width="4.0" fill="none"/>
<text text-anchor="middle" x="710.0" y="202.0" fill="#000000" style="font-size:24px">PC</text>
<text text-anchor="start" x="684.0" y="226.75" fill="#808080" style="font-size:18px">D</text>
<path d="M 681,247 L 688,240 L 681,233" stroke="#000000" stroke-width="2.0" fill="none"/>
<text text-anchor="start" x="691.0" y="246.75" fill="#808080" style="font-size:18px">C</text>
<text text-anchor="start" x="684.0" y="266.75" fill="#808080" style="font-size:18px">en</text>
<text text-anchor="end" x="736.0" y="246.75" fill="#808080" style="font-size:18px">Q</text>
<text text-anchor="middle" x="710.0" y="287.5" fill="#808080" style="font-size:18px">Reg</text>
<circle cx="680.0" cy="220.0" r="2.0" stroke="#0000b2" stroke-width="4.0" fill="#0000b2" />
<circle cx="680.0" cy="240.0" r="2.0" stroke="#0000b2" stroke-width="4.0" fill="#0000b2" />
<circle cx="680.0" cy="260.0" r="2.0" stroke="#0000b2" stroke-width="4.0" fill="#0000b2" />
<circle cx="740.0" cy="240.0" r="2.0" stroke="#b20000" stroke-width="4.0" fill="#b20000" />
</g>
<g>
<path d="M 389,225 L 419,225 L 419,255 L 389,255 Z" stroke="#000000" stroke-width="4.0" fill="none"/>
<text text-anchor="end" x="375.0" y="249.0" fill="#000000" style="font-size:24px"><tspan style="font-style:italic;">clock</tspan></text>
<path d="M 395,245 L 400,245 L 400,235 L 405,235 L 405,245 L 410,245 L 410,235 L 415,235" stroke="#000000" stroke-width="2.0" fill="none"/>
<circle cx="420.0" cy="240.0" r="2.0" stroke="#b20000" stroke-width="4.0" fill="#b20000" />
</g>
<g>
<path d="M 401,110 L 459,110 L 459,170 L 401,170 Z" stroke="#000000" stroke-width="4.0" fill="none"/>
<text text-anchor="start" x="404.0" y="126.75" fill="#808080" style="font-size:18px">a</text>
<text text-anchor="start" x="404.0" y="146.75" fill="#808080" style="font-size:18px">b</text>
<text text-anchor="start" x="404.0" y="166.75" fill="#808080" style="font-size:18px">c<tspan style="font-size:80%;baseline-shift:sub;">i</tspan></text>
<text text-anchor="end" x="456.0" y="126.75" fill="#808080" style="font-size:18px">s</text>
<text text-anchor="end" x="456.0" y="146.75" fill="#808080" style="font-size:18px">c<tspan style="font-size:80%;baseline-shift:sub;">o</tspan></text>
<text text-anchor="middle" x="430.0" y="187.5" fill="#808080" style="font-size:18px">Soma</text>
<circle cx="400.0" cy="120.0" r="2.0" stroke="#0000b2" stroke-width="4.0" fill="#0000b2" />
<circle cx="400.0" cy="140.0" r="2.0" stroke="#0000b2" stroke-width="4.0" fill="#0000b2" />
<circle cx="400.0" cy="160.0" r="2.0" stroke="#0000b2" stroke-width="4.0" fill="#0000b2" />
<circle cx="460.0" cy="120.0" r="2.0" stroke="#b20000" stroke-width="4.0" fill="#b20000" />
<circle cx="460.0" cy="140.0" r="2.0" stroke="#b20000" stroke-width="4.0" fill="#b20000" />
</g>
<g>
<text text-anchor="end" x="357.0" y="149.0" fill="#000000" style="font-size:24px">4</text>
<circle cx="360.0" cy="140.0" r="2.0" stroke="#b20000" stroke-width="4.0" fill="#b20000" />
</g>
<g>
<text text-anchor="end" x="357.0" y="169.0" fill="#000000" style="font-size:24px">0</text>
<circle cx="360.0" cy="160.0" r="2.0" stroke="#b20000" stroke-width="4.0" fill="#b20000" />
</g>
<g>
<text text-anchor="end" x="637.0" y="269.0" fill="#000000" style="font-size:24px">1</text>
<circle cx="640.0" cy="260.0" r="2.0" stroke="#b20000" stroke-width="4.0" fill="#b20000" />
</g>
<g>
<path d="M 1521,250 L 1579,250 L 1579,370 L 1521,370 Z" stroke="#000000" stroke-width="4.0" fill="none"/>
<text text-anchor="start" x="1524.0" y="266.75" fill="#808080" style="font-size:18px">str</text>
<path d="M 1521,287 L 1528,280 L 1521,273" stroke="#000000" stroke-width="2.0" fill="none"/>
<text text-anchor="start" x="1531.0" y="286.75" fill="#808080" style="font-size:18px">C</text>
<text text-anchor="start" x="1524.0" y="306.75" fill="#808080" style="font-size:18px">ld</text>
<text text-anchor="start" x="1524.0" y="326.75" fill="#808080" style="font-size:18px">1A</text>
<text text-anchor="start" x="1524.0" y="346.75" fill="#808080" style="font-size:18px">1Din</text>
<text text-anchor="start" x="1524.0" y="366.75" fill="#808080" style="font-size:18px">2A</text>
<text text-anchor="end" x="1576.0" y="266.75" fill="#808080" style="font-size:18px">1D</text>
<text text-anchor="end" x="1576.0" y="286.75" fill="#808080" style="font-size:18px">2D</text>
<text text-anchor="middle" x="1550.0" y="387.5" fill="#808080" style="font-size:18px">RAM</text>
<circle cx="1520.0" cy="260.0" r="2.0" stroke="#0000b2" stroke-width="4.0" fill="#0000b2" />
<circle cx="1520.0" cy="280.0" r="2.0" stroke="#0000b2" stroke-width="4.0" fill="#0000b2" />
<circle cx="1520.0" cy="300.0" r="2.0" stroke="#0000b2" stroke-width="4.0" fill="#0000b2" />
<circle cx="1520.0" cy="320.0" r="2.0" stroke="#0000b2" stroke-width="4.0" fill="#0000b2" />
<circle cx="1520.0" cy="340.0" r="2.0" stroke="#0000b2" stroke-width="4.0" fill="#0000b2" />
<circle cx="1520.0" cy="360.0" r="2.0" stroke="#0000b2" stroke-width="4.0" fill="#0000b2" />
<circle cx="1580.0" cy="260.0" r="2.0" stroke="#b20000" stroke-width="4.0" fill="#b20000" />
<circle cx="1580.0" cy="280.0" r="2.0" stroke="#b20000" stroke-width="4.0" fill="#b20000" />
</g>
<g>
<text text-anchor="end" x="1477.0" y="309.0" fill="#000000" style="font-size:24px">1</text>
<circle cx="1480.0" cy="300.0" r="2.0" stroke="#b20000" stroke-width="4.0" fill="#b20000" />
</g>
<g>
<path d="M 581,116 L 619,125 L 619,155 L 581,164 Z" stroke="#000000" stroke-width="4.0" fill="none"/>
<text text-anchor="start" x="583.0" y="135.5" fill="#808080" style="font-size:18px">0</text>
<circle cx="580.0" cy="120.0" r="5.0" stroke="#000000" stroke-width="2.0" fill="none" />
<circle cx="600.0" cy="160.0" r="2.0" stroke="#0000b2" stroke-width="4.0" fill="#0000b2" />
<circle cx="580.0" cy="120.0" r="2.0" stroke="#0000b2" stroke-width="4.0" fill="#0000b2" />
<circle cx="580.0" cy="160.0" r="2.0" stroke="#0000b2" stroke-width="4.0" fill="#0000b2" />
<circle cx="620.0" cy="140.0" r="2.0" stroke="#b20000" stroke-width="4.0" fill="#b20000" />
</g>
<g>
<text text-anchor="middle" x="896.0" y="221.0" fill="#000000" style="font-size:24px">0x18</text>
<circle cx="896.0" cy="240.0" r="9.0" stroke="#0000b2" stroke-width="4.0" fill="#0000b2" />
<circle cx="896.0" cy="240.0" r="15.0" stroke="#000000" stroke-width="4.0" fill="none" />
<text text-anchor="start" x="925.0" y="249.0" fill="#000000" style="font-size:24px"><tspan style="font-style:italic;">PC</tspan></text>
<circle cx="880.0" cy="240.0" r="2.0" stroke="#0000b2" stroke-width="4.0" fill="#0000b2" />
</g>
<g>
<text text-anchor="end" x="1198.0" y="357.0" fill="#808080" style="font-size:12px">0-31</text>
<text text-anchor="start" x="1222.0" y="357.0" fill="#808080" style="font-size:12px">0,1</text>
<text text-anchor="start" x="1222.0" y="377.0" fill="#808080" style="font-size:12px">2-22</text>
<text text-anchor="start" x="1222.0" y="397.0" fill="#808080" style="font-size:12px">23-31</text>
<path d="M 1208,358 L 1212,358 L 1212,402 L 1208,402 Z" stroke="#000000" stroke-width="4.0" fill="#000000" fill-opacity="1.0"/>
<circle cx="1200.0" cy="360.0" r="2.0" stroke="#0000b2" stroke-width="4.0" fill="#0000b2" />
<circle cx="1220.0" cy="360.0" r="2.0" stroke="#b20000" stroke-width="4.0" fill="#b20000" />
<circle cx="1220.0" cy="380.0" r="2.0" stroke="#b20000" stroke-width="4.0" fill="#b20000" />
<circle cx="1220.0" cy="400.0" r="2.0" stroke="#b20000" stroke-width="4.0" fill="#b20000" />
</g>
<g>
<text text-anchor="end" x="1477.0" y="269.0" fill="#000000" style="font-size:24px">1</text>
<circle cx="1480.0" cy="260.0" r="2.0" stroke="#b20000" stroke-width="4.0" fill="#b20000" />
</g>
<g>
<text text-anchor="end" x="1477.0" y="329.0" fill="#000000" style="font-size:24px">0</text>
<circle cx="1480.0" cy="320.0" r="2.0" stroke="#b20000" stroke-width="4.0" fill="#b20000" />
</g>
<g>
<text text-anchor="end" x="1477.0" y="349.0" fill="#000000" style="font-size:24px">0</text>
<circle cx="1480.0" cy="340.0" r="2.0" stroke="#b20000" stroke-width="4.0" fill="#b20000" />
</g>
<g>
<text text-anchor="end" x="537.0" y="169.0" fill="#000000" style="font-size:24px">0</text>
<circle cx="540.0" cy="160.0" r="2.0" stroke="#b20000" stroke-width="4.0" fill="#b20000" />
</g>
<g>
<text text-anchor="end" x="557.0" y="389.0" fill="#000000" style="font-size:24px">0</text>
<circle cx="560.0" cy="380.0" r="2.0" stroke="#b20000" stroke-width="4.0" fill="#b20000" />
</g>
<g>
<text text-anchor="end" x="398.0" y="537.0" fill="#808080" style="font-size:12px">0-31</text>
<text text-anchor="start" x="422.0" y="537.0" fill="#808080" style="font-size:12px">0,1</text>
<text text-anchor="start" x="422.0" y="557.0" fill="#808080" style="font-size:12px">2-6</text>
<text text-anchor="start" x="422.0" y="577.0" fill="#808080" style="font-size:12px">7-31</text>
<path d="M 408,538 L 412,538 L 412,582 L 408,582 Z" stroke="#000000" stroke-width="4.0" fill="#000000" fill-opacity="1.0"/>
<circle cx="400.0" cy="540.0" r="2.0" stroke="#0000b2" stroke-width="4.0" fill="#0000b2" />
<circle cx="420.0" cy="540.0" r="2.0" stroke="#b20000" stroke-width="4.0" fill="#b20000" />
<circle cx="420.0" cy="560.0" r="2.0" stroke="#b20000" stroke-width="4.0" fill="#b20000" />
<circle cx="420.0" cy="580.0" r="2.0" stroke="#b20000" stroke-width="4.0" fill="#b20000" />
</g>
</g>
</svg>