<?xml version="1.0" encoding="UTF-8" standalone="no"?>
<!-- Created with Digital by H.Neemann -->
<!-- created: Fri Nov 28 16:17:29 BRT 2025 -->

<svg
   xmlns:svg="http://www.w3.org/2000/svg"
   xmlns="http://www.w3.org/2000/svg"
   width="139.65mm"
   height="77.1mm"
   viewBox="442 100 931 514">
<g stroke-linecap="square">
<path d="M 1060,160 L 1080,160 L 1100,160" stroke="#0000b2" stroke-width="4.0" fill="none"/>
<path d="M 900,420 L 1020,420" stroke="#0000b2" stroke-width="4.0" fill="none"/>
<path d="M 1000,280 L 1000,260 L 1160,260 L 1174,260" stroke="#0000b2" stroke-width="4.0" fill="none"/>
<path d="M 760,580 L 840,580" stroke="#0000b2" stroke-width="4.0" fill="none"/>
<path d="M 520,360 L 700,360 L 700,540 L 840,540" stroke="#0000b2" stroke-width="4.0" fill="none"/>
<path d="M 900,300 L 960,300 L 980,300 L 980,340 L 1180,340" stroke="#0000b2" stroke-width="4.0" fill="none"/>
<path d="M 520,300 L 600,300 L 600,320 L 660,320 L 660,420 L 840,420" stroke="#0000b2" stroke-width="4.0" fill="none"/>
<path d="M 1240,240 L 1280,240" stroke="#0000b2" stroke-width="4.0" fill="none"/>
<path d="M 520,240 L 800,240 L 800,280 L 840,280" stroke="#0000b2" stroke-width="4.0" fill="none"/>
<path d="M 520,560 L 560,560" stroke="#0000b2" stroke-width="4.0" fill="none"/>
<path d="M 600,560 L 840,560" stroke="#0000b2" stroke-width="4.0" fill="none"/>
<path d="M 900,560 L 920,560 L 920,500 L 820,500 L 820,460 L 840,460" stroke="#0000b2" stroke-width="4.0" fill="none"/>
<path d="M 1220,340 L 1280,340" stroke="#0000b2" stroke-width="4.0" fill="none"/>
<path d="M 520,500 L 560,500" stroke="#0000b2" stroke-width="4.0" fill="none"/>
<path d="M 600,500 L 640,500 L 640,440 L 840,440" stroke="#0000b2" stroke-width="4.0" fill="none"/>
<path d="M 520,440 L 560,440" stroke="#0000b2" stroke-width="4.0" fill="none"/>
<path d="M 900,440 L 940,440 L 940,380 L 940,180 L 980,180 L 994,180" stroke="#0000b2" stroke-width="4.0" fill="none"/>
<path d="M 600,440 L 620,440 L 620,300 L 840,300" stroke="#0000b2" stroke-width="4.0" fill="none"/>
<path d="M 900,280 L 1000,280 L 1020,280" stroke="#0000b2" stroke-width="4.0" fill="none"/>
<path d="M 1080,160 L 1080,220 L 1160,220 L 1174,220" stroke="#0000b2" stroke-width="4.0" fill="none"/>
<path d="M 900,540 L 1020,540" stroke="#0000b2" stroke-width="4.0" fill="none"/>
<path d="M 994,140 L 980,140 L 960,140 L 960,240 L 1020,240" stroke="#0000b2" stroke-width="4.0" fill="none"/>
<path d="M 960,240 L 960,300" stroke="#0000b2" stroke-width="4.0" fill="none"/>
<path d="M 840,320 L 820,320 L 820,380 L 940,380 L 1020,380" stroke="#0000b2" stroke-width="4.0" fill="none"/>
<g>
<circle cx="1080.0" cy="160.0" r="4.0" stroke="#0000b2" stroke-width="4.0" fill="#0000b2" />
<circle cx="960.0" cy="300.0" r="4.0" stroke="#0000b2" stroke-width="4.0" fill="#0000b2" />
<circle cx="960.0" cy="240.0" r="4.0" stroke="#0000b2" stroke-width="4.0" fill="#0000b2" />
<circle cx="1000.0" cy="280.0" r="4.0" stroke="#0000b2" stroke-width="4.0" fill="#0000b2" />
<circle cx="940.0" cy="380.0" r="4.0" stroke="#0000b2" stroke-width="4.0" fill="#0000b2" />
</g>
<g>
<path d="M 841,410 L 899,410 L 899,470 L 841,470 Z" stroke="#000000" stroke-width="4.0" fill="none"/>
<text text-anchor="start" x="844.0" y="426.75" fill="#808080" style="font-size:18px">a</text>
<text text-anchor="start" x="844.0" y="446.75" fill="#808080" style="font-size:18px">b</text>
<text text-anchor="start" x="844.0" y="466.75" fill="#808080" style="font-size:18px">c<tspan style="font-size:80%;baseline-shift:sub;">i</tspan></text>
<text text-anchor="end" x="896.0" y="426.75" fill="#808080" style="font-size:18px">s</text>
<text text-anchor="end" x="896.0" y="446.75" fill="#808080" style="font-size:18px">c<tspan style="font-size:80%;baseline-shift:sub;">o</tspan></text>
<text text-anchor="middle" x="870.0" y="487.5" fill="#808080" style="font-size:18px">Soma</text>
<circle cx="840.0" cy="420.0" r="2.0" stroke="#0000b2" stroke-width="4.0" fill="#0000b2" />
<circle cx="840.0" cy="440.0" r="2.0" stroke="#0000b2" stroke-width="4.0" fill="#0000b2" />
<circle cx="840.0" cy="460.0" r="2.0" stroke="#0000b2" stroke-width="4.0" fill="#0000b2" />
<circle cx="900.0" cy="420.0" r="2.0" stroke="#b20000" stroke-width="4.0" fill="#b20000" />
<circle cx="900.0" cy="440.0" r="2.0" stroke="#b20000" stroke-width="4.0" fill="#b20000" />
</g>
<g>
<path d="M 841,270 L 899,270 L 899,330 L 841,330 Z" stroke="#000000" stroke-width="4.0" fill="none"/>
<text text-anchor="start" x="844.0" y="286.75" fill="#808080" style="font-size:18px">a</text>
<text text-anchor="start" x="844.0" y="306.75" fill="#808080" style="font-size:18px">b</text>
<text text-anchor="start" x="844.0" y="326.75" fill="#808080" style="font-size:18px">c<tspan style="font-size:80%;baseline-shift:sub;">i</tspan></text>
<text text-anchor="end" x="896.0" y="286.75" fill="#808080" style="font-size:18px">s</text>
<text text-anchor="end" x="896.0" y="306.75" fill="#808080" style="font-size:18px">c<tspan style="font-size:80%;baseline-shift:sub;">o</tspan></text>
<text text-anchor="middle" x="870.0" y="347.5" fill="#808080" style="font-size:18px">Soma</text>
<circle cx="840.0" cy="280.0" r="2.0" stroke="#0000b2" stroke-width="4.0" fill="#0000b2" />
<circle cx="840.0" cy="300.0" r="2.0" stroke="#0000b2" stroke-width="4.0" fill="#0000b2" />
<circle cx="840.0" cy="320.0" r="2.0" stroke="#0000b2" stroke-width="4.0" fill="#0000b2" />
<circle cx="900.0" cy="280.0" r="2.0" stroke="#b20000" stroke-width="4.0" fill="#b20000" />
<circle cx="900.0" cy="300.0" r="2.0" stroke="#b20000" stroke-width="4.0" fill="#b20000" />
</g>
<g>
<path d="M 489,345 L 519,345 L 519,375 L 489,375 Z" stroke="#000000" stroke-width="4.0" fill="none"/>
<circle cx="504.0" cy="360.0" r="9.0" stroke="#000000" stroke-width="4.0" fill="none" />
<text text-anchor="end" x="475.0" y="369.0" fill="#000000" style="font-size:24px"><tspan style="font-style:italic;">A<tspan style="font-size:80%;baseline-shift:sub;">0</tspan></tspan></text>
<circle cx="520.0" cy="360.0" r="2.0" stroke="#b20000" stroke-width="4.0" fill="#b20000" />
</g>
<g>
<path d="M 489,425 L 519,425 L 519,455 L 489,455 Z" stroke="#000000" stroke-width="4.0" fill="none"/>
<circle cx="504.0" cy="440.0" r="9.0" stroke="#000000" stroke-width="4.0" fill="none" />
<text text-anchor="end" x="475.0" y="449.0" fill="#000000" style="font-size:24px"><tspan style="font-style:italic;">B<tspan style="font-size:80%;baseline-shift:sub;">2</tspan></tspan></text>
<circle cx="520.0" cy="440.0" r="2.0" stroke="#b20000" stroke-width="4.0" fill="#b20000" />
</g>
<g>
<path d="M 561,428 L 579,440 L 561,452 Z" stroke="#000000" stroke-width="4.0" fill="none"/>
<circle cx="590.0" cy="440.0" r="9.0" stroke="#000000" stroke-width="4.0" fill="none" />
<circle cx="560.0" cy="440.0" r="2.0" stroke="#0000b2" stroke-width="4.0" fill="#0000b2" />
<circle cx="600.0" cy="440.0" r="2.0" stroke="#b20000" stroke-width="4.0" fill="#b20000" />
</g>
<g>
<circle cx="1036.0" cy="280.0" r="9.0" stroke="#000000" stroke-width="4.0" fill="none" />
<circle cx="1036.0" cy="280.0" r="15.0" stroke="#000000" stroke-width="4.0" fill="none" />
<text text-anchor="start" x="1065.0" y="289.0" fill="#000000" style="font-size:24px"><tspan style="font-style:italic;">S2</tspan></text>
<circle cx="1020.0" cy="280.0" r="2.0" stroke="#0000b2" stroke-width="4.0" fill="#0000b2" />
</g>
<g>
<circle cx="1036.0" cy="240.0" r="9.0" stroke="#000000" stroke-width="4.0" fill="none" />
<circle cx="1036.0" cy="240.0" r="15.0" stroke="#000000" stroke-width="4.0" fill="none" />
<text text-anchor="start" x="1065.0" y="249.0" fill="#000000" style="font-size:24px"><tspan style="font-style:italic;">C2</tspan></text>
<circle cx="1020.0" cy="240.0" r="2.0" stroke="#0000b2" stroke-width="4.0" fill="#0000b2" />
</g>
<g>
<circle cx="1036.0" cy="380.0" r="9.0" stroke="#000000" stroke-width="4.0" fill="none" />
<circle cx="1036.0" cy="380.0" r="15.0" stroke="#000000" stroke-width="4.0" fill="none" />
<text text-anchor="start" x="1065.0" y="389.0" fill="#000000" style="font-size:24px"><tspan style="font-style:italic;">C1</tspan></text>
<circle cx="1020.0" cy="380.0" r="2.0" stroke="#0000b2" stroke-width="4.0" fill="#0000b2" />
</g>
<g>
<text text-anchor="end" x="757.0" y="589.0" fill="#000000" style="font-size:24px">1</text>
<circle cx="760.0" cy="580.0" r="2.0" stroke="#b20000" stroke-width="4.0" fill="#b20000" />
</g>
<g>
<path d="M 1010,190 L 990,190 C 1000,174 1000,146 990,130 L 1010,130 C 1030,130 1050,140 1060,160 C 1050,180 1030,190 1010,190 Z" stroke="#000000" stroke-width="4.0" fill="none"/>
<path d="M 980,190 C 990,180 990,140 980,130" stroke="#000000" stroke-width="4.0" fill="none"/>
<circle cx="980.0" cy="140.0" r="2.0" stroke="#0000b2" stroke-width="4.0" fill="#0000b2" />
<circle cx="980.0" cy="180.0" r="2.0" stroke="#0000b2" stroke-width="4.0" fill="#0000b2" />
<circle cx="1060.0" cy="160.0" r="2.0" stroke="#b20000" stroke-width="4.0" fill="#b20000" />
</g>
<g>
<circle cx="1116.0" cy="160.0" r="9.0" stroke="#000000" stroke-width="4.0" fill="none" />
<circle cx="1116.0" cy="160.0" r="15.0" stroke="#000000" stroke-width="4.0" fill="none" />
<text text-anchor="start" x="1145.0" y="169.0" fill="#000000" style="font-size:24px"><tspan style="font-style:italic;">V</tspan></text>
<circle cx="1100.0" cy="160.0" r="2.0" stroke="#0000b2" stroke-width="4.0" fill="#0000b2" />
</g>
<g>
<path d="M 1190,270 L 1170,270 C 1180,254 1180,226 1170,210 L 1190,210 C 1210,210 1230,220 1240,240 C 1230,260 1210,270 1190,270 Z" stroke="#000000" stroke-width="4.0" fill="none"/>
<path d="M 1160,270 C 1170,260 1170,220 1160,210" stroke="#000000" stroke-width="4.0" fill="none"/>
<circle cx="1160.0" cy="220.0" r="2.0" stroke="#0000b2" stroke-width="4.0" fill="#0000b2" />
<circle cx="1160.0" cy="260.0" r="2.0" stroke="#0000b2" stroke-width="4.0" fill="#0000b2" />
<circle cx="1240.0" cy="240.0" r="2.0" stroke="#b20000" stroke-width="4.0" fill="#b20000" />
</g>
<g>
<circle cx="1296.0" cy="240.0" r="9.0" stroke="#000000" stroke-width="4.0" fill="none" />
<circle cx="1296.0" cy="240.0" r="15.0" stroke="#000000" stroke-width="4.0" fill="none" />
<text text-anchor="start" x="1325.0" y="249.0" fill="#000000" style="font-size:24px"><tspan style="font-style:italic;">LT</tspan></text>
<circle cx="1280.0" cy="240.0" r="2.0" stroke="#0000b2" stroke-width="4.0" fill="#0000b2" />
</g>
<g>
<path d="M 490,130 L 570,130 L 570,170 L 490,170 Z" stroke="#b4ffb4" stroke-width="0.0" fill="#b4ffb4" fill-opacity="0.7843137254901961"/>
<path d="M 490,130 L 570,130 L 570,170 L 490,170 Z" stroke="#000000" stroke-width="2.0" fill="none"/>
<text text-anchor="middle" x="530.0" y="159.0" fill="#000000" style="font-size:24px">Test</text>
<text text-anchor="middle" x="530.0" y="120.0" fill="#000000" style="font-size:24px">LTU</text>
</g>
<g>
<path d="M 1181,328 L 1199,340 L 1181,352 Z" stroke="#000000" stroke-width="4.0" fill="none"/>
<circle cx="1210.0" cy="340.0" r="9.0" stroke="#000000" stroke-width="4.0" fill="none" />
<circle cx="1180.0" cy="340.0" r="2.0" stroke="#0000b2" stroke-width="4.0" fill="#0000b2" />
<circle cx="1220.0" cy="340.0" r="2.0" stroke="#b20000" stroke-width="4.0" fill="#b20000" />
</g>
<g>
<circle cx="1296.0" cy="340.0" r="9.0" stroke="#000000" stroke-width="4.0" fill="none" />
<circle cx="1296.0" cy="340.0" r="15.0" stroke="#000000" stroke-width="4.0" fill="none" />
<text text-anchor="start" x="1325.0" y="349.0" fill="#000000" style="font-size:24px"><tspan style="font-style:italic;">LTU</tspan></text>
<circle cx="1280.0" cy="340.0" r="2.0" stroke="#0000b2" stroke-width="4.0" fill="#0000b2" />
</g>
<g>
<circle cx="1036.0" cy="420.0" r="9.0" stroke="#000000" stroke-width="4.0" fill="none" />
<circle cx="1036.0" cy="420.0" r="15.0" stroke="#000000" stroke-width="4.0" fill="none" />
<text text-anchor="start" x="1065.0" y="429.0" fill="#000000" style="font-size:24px"><tspan style="font-style:italic;">S1</tspan></text>
<circle cx="1020.0" cy="420.0" r="2.0" stroke="#0000b2" stroke-width="4.0" fill="#0000b2" />
</g>
<g>
<circle cx="1036.0" cy="540.0" r="9.0" stroke="#000000" stroke-width="4.0" fill="none" />
<circle cx="1036.0" cy="540.0" r="15.0" stroke="#000000" stroke-width="4.0" fill="none" />
<text text-anchor="start" x="1065.0" y="549.0" fill="#000000" style="font-size:24px"><tspan style="font-style:italic;">S0</tspan></text>
<circle cx="1020.0" cy="540.0" r="2.0" stroke="#0000b2" stroke-width="4.0" fill="#0000b2" />
</g>
<g>
<path d="M 841,530 L 899,530 L 899,590 L 841,590 Z" stroke="#000000" stroke-width="4.0" fill="none"/>
<text text-anchor="start" x="844.0" y="546.75" fill="#808080" style="font-size:18px">a</text>
<text text-anchor="start" x="844.0" y="566.75" fill="#808080" style="font-size:18px">b</text>
<text text-anchor="start" x="844.0" y="586.75" fill="#808080" style="font-size:18px">c<tspan style="font-size:80%;baseline-shift:sub;">i</tspan></text>
<text text-anchor="end" x="896.0" y="546.75" fill="#808080" style="font-size:18px">s</text>
<text text-anchor="end" x="896.0" y="566.75" fill="#808080" style="font-size:18px">c<tspan style="font-size:80%;baseline-shift:sub;">o</tspan></text>
<text text-anchor="middle" x="870.0" y="607.5" fill="#808080" style="font-size:18px">Soma</text>
<circle cx="840.0" cy="540.0" r="2.0" stroke="#0000b2" stroke-width="4.0" fill="#0000b2" />
<circle cx="840.0" cy="560.0" r="2.0" stroke="#0000b2" stroke-width="4.0" fill="#0000b2" />
<circle cx="840.0" cy="580.0" r="2.0" stroke="#0000b2" stroke-width="4.0" fill="#0000b2" />
<circle cx="900.0" cy="540.0" r="2.0" stroke="#b20000" stroke-width="4.0" fill="#b20000" />
<circle cx="900.0" cy="560.0" r="2.0" stroke="#b20000" stroke-width="4.0" fill="#b20000" />
</g>
<g>
<path d="M 489,485 L 519,485 L 519,515 L 489,515 Z" stroke="#000000" stroke-width="4.0" fill="none"/>
<circle cx="504.0" cy="500.0" r="9.0" stroke="#000000" stroke-width="4.0" fill="none" />
<text text-anchor="end" x="475.0" y="509.0" fill="#000000" style="font-size:24px"><tspan style="font-style:italic;">B<tspan style="font-size:80%;baseline-shift:sub;">1</tspan></tspan></text>
<circle cx="520.0" cy="500.0" r="2.0" stroke="#b20000" stroke-width="4.0" fill="#b20000" />
</g>
<g>
<path d="M 561,488 L 579,500 L 561,512 Z" stroke="#000000" stroke-width="4.0" fill="none"/>
<circle cx="590.0" cy="500.0" r="9.0" stroke="#000000" stroke-width="4.0" fill="none" />
<circle cx="560.0" cy="500.0" r="2.0" stroke="#0000b2" stroke-width="4.0" fill="#0000b2" />
<circle cx="600.0" cy="500.0" r="2.0" stroke="#b20000" stroke-width="4.0" fill="#b20000" />
</g>
<g>
<path d="M 489,545 L 519,545 L 519,575 L 489,575 Z" stroke="#000000" stroke-width="4.0" fill="none"/>
<circle cx="504.0" cy="560.0" r="9.0" stroke="#000000" stroke-width="4.0" fill="none" />
<text text-anchor="end" x="475.0" y="569.0" fill="#000000" style="font-size:24px"><tspan style="font-style:italic;">B<tspan style="font-size:80%;baseline-shift:sub;">0</tspan></tspan></text>
<circle cx="520.0" cy="560.0" r="2.0" stroke="#b20000" stroke-width="4.0" fill="#b20000" />
</g>
<g>
<path d="M 561,548 L 579,560 L 561,572 Z" stroke="#000000" stroke-width="4.0" fill="none"/>
<circle cx="590.0" cy="560.0" r="9.0" stroke="#000000" stroke-width="4.0" fill="none" />
<circle cx="560.0" cy="560.0" r="2.0" stroke="#0000b2" stroke-width="4.0" fill="#0000b2" />
<circle cx="600.0" cy="560.0" r="2.0" stroke="#b20000" stroke-width="4.0" fill="#b20000" />
</g>
<g>
<path d="M 489,285 L 519,285 L 519,315 L 489,315 Z" stroke="#000000" stroke-width="4.0" fill="none"/>
<circle cx="504.0" cy="300.0" r="9.0" stroke="#000000" stroke-width="4.0" fill="none" />
<text text-anchor="end" x="475.0" y="309.0" fill="#000000" style="font-size:24px"><tspan style="font-style:italic;">A<tspan style="font-size:80%;baseline-shift:sub;">1</tspan></tspan></text>
<circle cx="520.0" cy="300.0" r="2.0" stroke="#b20000" stroke-width="4.0" fill="#b20000" />
</g>
<g>
<path d="M 489,225 L 519,225 L 519,255 L 489,255 Z" stroke="#000000" stroke-width="4.0" fill="none"/>
<circle cx="504.0" cy="240.0" r="9.0" stroke="#000000" stroke-width="4.0" fill="none" />
<text text-anchor="end" x="475.0" y="249.0" fill="#000000" style="font-size:24px"><tspan style="font-style:italic;">A<tspan style="font-size:80%;baseline-shift:sub;">2</tspan></tspan></text>
<circle cx="520.0" cy="240.0" r="2.0" stroke="#b20000" stroke-width="4.0" fill="#b20000" />
</g>
<g>
<path d="M 650,130 L 730,130 L 730,170 L 650,170 Z" stroke="#b4ffb4" stroke-width="0.0" fill="#b4ffb4" fill-opacity="0.7843137254901961"/>
<path d="M 650,130 L 730,130 L 730,170 L 650,170 Z" stroke="#000000" stroke-width="2.0" fill="none"/>
<text text-anchor="middle" x="690.0" y="159.0" fill="#000000" style="font-size:24px">Test</text>
<text text-anchor="middle" x="690.0" y="120.0" fill="#000000" style="font-size:24px">LT</text>
</g>
</g>
</svg>