<?xml version="1.0" encoding="UTF-8" standalone="no"?>
<!-- Created with Digital by H.Neemann -->
<!-- created: Sat Nov 29 00:26:29 BRT 2025 -->

<svg
   xmlns:svg="http://www.w3.org/2000/svg"
   xmlns="http://www.w3.org/2000/svg"
   width="153.0mm"
   height="98.55mm"
   viewBox="464 80 1020 657">
<g stroke-linecap="square">
<path d="M 640,420 L 650,420 L 660,420" stroke="#000000" stroke-width="4.0" fill="none"/>
<path d="M 660,440 L 650,440" stroke="#000000" stroke-width="4.0" fill="none"/>
<path d="M 660,460 L 650,460" stroke="#000000" stroke-width="4.0" fill="none"/>
<path d="M 600,300 L 610,300 L 620,300" stroke="#000000" stroke-width="4.0" fill="none"/>
<path d="M 620,320 L 610,320" stroke="#000000" stroke-width="4.0" fill="none"/>
<path d="M 680,280 L 690,280 L 700,280" stroke="#000000" stroke-width="4.0" fill="none"/>
<path d="M 680,300 L 690,300" stroke="#000000" stroke-width="4.0" fill="none"/>
<path d="M 860,300 L 870,300 L 880,300" stroke="#000000" stroke-width="4.0" fill="none"/>
<path d="M 880,320 L 870,320" stroke="#000000" stroke-width="4.0" fill="none"/>
<path d="M 940,280 L 950,280 L 960,280" stroke="#000000" stroke-width="4.0" fill="none"/>
<path d="M 940,300 L 950,300" stroke="#000000" stroke-width="4.0" fill="none"/>
<path d="M 1120,300 L 1130,300 L 1140,300" stroke="#000000" stroke-width="4.0" fill="none"/>
<path d="M 1140,320 L 1130,320" stroke="#000000" stroke-width="4.0" fill="none"/>
<path d="M 1200,280 L 1210,280 L 1220,280" stroke="#000000" stroke-width="4.0" fill="none"/>
<path d="M 1200,300 L 1210,300" stroke="#000000" stroke-width="4.0" fill="none"/>
<path d="M 600,600 L 610,600 L 620,600" stroke="#000000" stroke-width="4.0" fill="none"/>
<path d="M 620,620 L 610,620" stroke="#000000" stroke-width="4.0" fill="none"/>
<path d="M 620,640 L 610,640" stroke="#000000" stroke-width="4.0" fill="none"/>
<path d="M 700,580 L 710,580 L 720,580" stroke="#000000" stroke-width="4.0" fill="none"/>
<path d="M 700,600 L 710,600" stroke="#000000" stroke-width="4.0" fill="none"/>
<path d="M 700,620 L 710,620" stroke="#000000" stroke-width="4.0" fill="none"/>
<path d="M 860,600 L 870,600 L 880,600" stroke="#000000" stroke-width="4.0" fill="none"/>
<path d="M 880,620 L 870,620" stroke="#000000" stroke-width="4.0" fill="none"/>
<path d="M 960,580 L 970,580 L 980,580" stroke="#000000" stroke-width="4.0" fill="none"/>
<path d="M 960,600 L 970,600" stroke="#000000" stroke-width="4.0" fill="none"/>
<path d="M 1120,600 L 1130,600 L 1140,600" stroke="#000000" stroke-width="4.0" fill="none"/>
<path d="M 1140,620 L 1130,620" stroke="#000000" stroke-width="4.0" fill="none"/>
<path d="M 1220,580 L 1230,580 L 1240,580" stroke="#000000" stroke-width="4.0" fill="none"/>
<path d="M 1220,600 L 1230,600" stroke="#000000" stroke-width="4.0" fill="none"/>
<path d="M 860,700 L 870,700 L 880,700" stroke="#000000" stroke-width="4.0" fill="none"/>
<path d="M 860,720 L 870,720" stroke="#000000" stroke-width="4.0" fill="none"/>
<path d="M 1120,700 L 1130,700 L 1140,700" stroke="#000000" stroke-width="4.0" fill="none"/>
<path d="M 1120,720 L 1130,720" stroke="#000000" stroke-width="4.0" fill="none"/>
<path d="M 620,640 L 640,640 L 660,640 L 660,600 L 700,600" stroke="#0000b2" stroke-width="4.0" fill="none"/>
<path d="M 1300,260 L 1420,260" stroke="#0000b2" stroke-width="4.0" fill="none"/>
<path d="M 780,260 L 820,260 L 880,260 L 880,240 L 1000,240" stroke="#0000b2" stroke-width="4.0" fill="none"/>
<path d="M 1040,260 L 1080,260 L 1140,260 L 1140,240 L 1260,240" stroke="#0000b2" stroke-width="4.0" fill="none"/>
<path d="M 560,420 L 640,420" stroke="#0000b2" stroke-width="4.0" fill="none"/>
<path d="M 660,420 L 760,420 L 760,280" stroke="#0000b2" stroke-width="4.0" fill="none"/>
<path d="M 720,580 L 740,580" stroke="#0000b2" stroke-width="4.0" fill="none"/>
<path d="M 980,580 L 1000,580" stroke="#0000b2" stroke-width="4.0" fill="none"/>
<path d="M 1240,580 L 1260,580" stroke="#0000b2" stroke-width="4.0" fill="none"/>
<path d="M 640,640 L 640,680 L 660,680" stroke="#0000b2" stroke-width="4.0" fill="none"/>
<path d="M 660,460 L 1280,460 L 1280,280" stroke="#0000b2" stroke-width="4.0" fill="none"/>
<path d="M 580,240 L 580,300 L 600,300" stroke="#0000b2" stroke-width="4.0" fill="none"/>
<path d="M 620,300 L 680,300" stroke="#0000b2" stroke-width="4.0" fill="none"/>
<path d="M 880,300 L 940,300" stroke="#0000b2" stroke-width="4.0" fill="none"/>
<path d="M 820,260 L 820,300 L 860,300" stroke="#0000b2" stroke-width="4.0" fill="none"/>
<path d="M 1140,300 L 1200,300" stroke="#0000b2" stroke-width="4.0" fill="none"/>
<path d="M 1080,260 L 1080,300 L 1120,300" stroke="#0000b2" stroke-width="4.0" fill="none"/>
<path d="M 620,620 L 640,620 L 640,580 L 700,580" stroke="#0000b2" stroke-width="4.0" fill="none"/>
<path d="M 880,620 L 920,620 L 920,580 L 960,580" stroke="#0000b2" stroke-width="4.0" fill="none"/>
<path d="M 1140,620 L 1180,620 L 1180,580 L 1220,580" stroke="#0000b2" stroke-width="4.0" fill="none"/>
<path d="M 560,240 L 580,240 L 740,240" stroke="#0000b2" stroke-width="4.0" fill="none"/>
<path d="M 1300,560 L 1420,560" stroke="#0000b2" stroke-width="4.0" fill="none"/>
<path d="M 780,560 L 820,560 L 880,560 L 880,540 L 1000,540" stroke="#0000b2" stroke-width="4.0" fill="none"/>
<path d="M 1040,560 L 1080,560 L 1140,560 L 1140,540 L 1260,540" stroke="#0000b2" stroke-width="4.0" fill="none"/>
<path d="M 560,720 L 660,720" stroke="#0000b2" stroke-width="4.0" fill="none"/>
<path d="M 1080,700 L 1080,720 L 1120,720" stroke="#0000b2" stroke-width="4.0" fill="none"/>
<path d="M 820,700 L 820,720 L 860,720" stroke="#0000b2" stroke-width="4.0" fill="none"/>
<path d="M 940,700 L 940,600 L 960,600" stroke="#0000b2" stroke-width="4.0" fill="none"/>
<path d="M 820,560 L 820,600 L 860,600" stroke="#0000b2" stroke-width="4.0" fill="none"/>
<path d="M 1080,560 L 1080,600 L 1120,600" stroke="#0000b2" stroke-width="4.0" fill="none"/>
<path d="M 660,440 L 1020,440 L 1020,280" stroke="#0000b2" stroke-width="4.0" fill="none"/>
<path d="M 700,280 L 740,280" stroke="#0000b2" stroke-width="4.0" fill="none"/>
<path d="M 620,280 L 680,280" stroke="#0000b2" stroke-width="4.0" fill="none"/>
<path d="M 880,280 L 940,280" stroke="#0000b2" stroke-width="4.0" fill="none"/>
<path d="M 960,280 L 1000,280" stroke="#0000b2" stroke-width="4.0" fill="none"/>
<path d="M 1140,280 L 1200,280" stroke="#0000b2" stroke-width="4.0" fill="none"/>
<path d="M 1220,280 L 1260,280" stroke="#0000b2" stroke-width="4.0" fill="none"/>
<path d="M 1140,700 L 1200,700 L 1200,600 L 1220,600" stroke="#0000b2" stroke-width="4.0" fill="none"/>
<path d="M 880,700 L 940,700 L 1080,700 L 1120,700" stroke="#0000b2" stroke-width="4.0" fill="none"/>
<path d="M 740,700 L 760,700 L 820,700 L 860,700" stroke="#0000b2" stroke-width="4.0" fill="none"/>
<path d="M 1280,460 L 1280,540" stroke="#0000b2" stroke-width="4.0" fill="none"/>
<path d="M 600,600 L 580,600 L 580,540 L 740,540" stroke="#0000b2" stroke-width="4.0" fill="none"/>
<path d="M 580,300 L 580,540" stroke="#0000b2" stroke-width="4.0" fill="none"/>
<path d="M 700,620 L 680,620 L 680,660 L 760,660 L 760,700" stroke="#0000b2" stroke-width="4.0" fill="none"/>
<path d="M 760,420 L 760,540" stroke="#0000b2" stroke-width="4.0" fill="none"/>
<path d="M 1020,440 L 1020,540" stroke="#0000b2" stroke-width="4.0" fill="none"/>
<g>
<circle cx="640.0" cy="640.0" r="4.0" stroke="#0000b2" stroke-width="4.0" fill="#0000b2" />
<circle cx="820.0" cy="260.0" r="4.0" stroke="#0000b2" stroke-width="4.0" fill="#0000b2" />
<circle cx="1080.0" cy="260.0" r="4.0" stroke="#0000b2" stroke-width="4.0" fill="#0000b2" />
<circle cx="760.0" cy="420.0" r="4.0" stroke="#0000b2" stroke-width="4.0" fill="#0000b2" />
<circle cx="1280.0" cy="460.0" r="4.0" stroke="#0000b2" stroke-width="4.0" fill="#0000b2" />
<circle cx="580.0" cy="300.0" r="4.0" stroke="#0000b2" stroke-width="4.0" fill="#0000b2" />
<circle cx="580.0" cy="240.0" r="4.0" stroke="#0000b2" stroke-width="4.0" fill="#0000b2" />
<circle cx="820.0" cy="560.0" r="4.0" stroke="#0000b2" stroke-width="4.0" fill="#0000b2" />
<circle cx="1080.0" cy="560.0" r="4.0" stroke="#0000b2" stroke-width="4.0" fill="#0000b2" />
<circle cx="1020.0" cy="440.0" r="4.0" stroke="#0000b2" stroke-width="4.0" fill="#0000b2" />
<circle cx="580.0" cy="540.0" r="4.0" stroke="#0000b2" stroke-width="4.0" fill="#0000b2" />
<circle cx="940.0" cy="700.0" r="4.0" stroke="#0000b2" stroke-width="4.0" fill="#0000b2" />
<circle cx="760.0" cy="700.0" r="4.0" stroke="#0000b2" stroke-width="4.0" fill="#0000b2" />
<circle cx="1080.0" cy="700.0" r="4.0" stroke="#0000b2" stroke-width="4.0" fill="#0000b2" />
<circle cx="820.0" cy="700.0" r="4.0" stroke="#0000b2" stroke-width="4.0" fill="#0000b2" />
</g>
<g>
<path d="M 741,236 L 779,245 L 779,275 L 741,284 Z" stroke="#000000" stroke-width="4.0" fill="none"/>
<text text-anchor="start" x="743.0" y="255.5" fill="#808080" style="font-size:18px">0</text>
<circle cx="760.0" cy="280.0" r="2.0" stroke="#0000b2" stroke-width="4.0" fill="#0000b2" />
<circle cx="740.0" cy="240.0" r="2.0" stroke="#0000b2" stroke-width="4.0" fill="#0000b2" />
<circle cx="740.0" cy="280.0" r="2.0" stroke="#0000b2" stroke-width="4.0" fill="#0000b2" />
<circle cx="780.0" cy="260.0" r="2.0" stroke="#b20000" stroke-width="4.0" fill="#b20000" />
</g>
<g>
<path d="M 1001,236 L 1039,245 L 1039,275 L 1001,284 Z" stroke="#000000" stroke-width="4.0" fill="none"/>
<text text-anchor="start" x="1003.0" y="255.5" fill="#808080" style="font-size:18px">0</text>
<circle cx="1020.0" cy="280.0" r="2.0" stroke="#0000b2" stroke-width="4.0" fill="#0000b2" />
<circle cx="1000.0" cy="240.0" r="2.0" stroke="#0000b2" stroke-width="4.0" fill="#0000b2" />
<circle cx="1000.0" cy="280.0" r="2.0" stroke="#0000b2" stroke-width="4.0" fill="#0000b2" />
<circle cx="1040.0" cy="260.0" r="2.0" stroke="#b20000" stroke-width="4.0" fill="#b20000" />
</g>
<g>
<path d="M 1261,236 L 1299,245 L 1299,275 L 1261,284 Z" stroke="#000000" stroke-width="4.0" fill="none"/>
<text text-anchor="start" x="1263.0" y="255.5" fill="#808080" style="font-size:18px">0</text>
<circle cx="1280.0" cy="280.0" r="2.0" stroke="#0000b2" stroke-width="4.0" fill="#0000b2" />
<circle cx="1260.0" cy="240.0" r="2.0" stroke="#0000b2" stroke-width="4.0" fill="#0000b2" />
<circle cx="1260.0" cy="280.0" r="2.0" stroke="#0000b2" stroke-width="4.0" fill="#0000b2" />
<circle cx="1300.0" cy="260.0" r="2.0" stroke="#b20000" stroke-width="4.0" fill="#b20000" />
</g>
<g>
<path d="M 529,225 L 559,225 L 559,255 L 529,255 Z" stroke="#000000" stroke-width="4.0" fill="none"/>
<circle cx="544.0" cy="240.0" r="9.0" stroke="#000000" stroke-width="4.0" fill="none" />
<text text-anchor="end" x="515.0" y="249.0" fill="#000000" style="font-size:24px"><tspan style="font-style:italic;">D</tspan></text>
<circle cx="560.0" cy="240.0" r="2.0" stroke="#b20000" stroke-width="4.0" fill="#b20000" />
</g>
<g>
<path d="M 529,405 L 559,405 L 559,435 L 529,435 Z" stroke="#000000" stroke-width="4.0" fill="none"/>
<circle cx="544.0" cy="420.0" r="9.0" stroke="#000000" stroke-width="4.0" fill="none" />
<text text-anchor="end" x="515.0" y="429.0" fill="#000000" style="font-size:24px"><tspan style="font-style:italic;">shft</tspan></text>
<circle cx="560.0" cy="420.0" r="2.0" stroke="#b20000" stroke-width="4.0" fill="#b20000" />
</g>
<g>
<text text-anchor="end" x="638.0" y="417.0" fill="#808080" style="font-size:12px">0-2</text>
<text text-anchor="start" x="662.0" y="417.0" fill="#808080" style="font-size:12px">0</text>
<text text-anchor="start" x="662.0" y="437.0" fill="#808080" style="font-size:12px">1</text>
<text text-anchor="start" x="662.0" y="457.0" fill="#808080" style="font-size:12px">2</text>
<path d="M 648,418 L 652,418 L 652,462 L 648,462 Z" stroke="#000000" stroke-width="4.0" fill="#000000" fill-opacity="1.0"/>
<circle cx="640.0" cy="420.0" r="2.0" stroke="#0000b2" stroke-width="4.0" fill="#0000b2" />
<circle cx="660.0" cy="420.0" r="2.0" stroke="#b20000" stroke-width="4.0" fill="#b20000" />
<circle cx="660.0" cy="440.0" r="2.0" stroke="#b20000" stroke-width="4.0" fill="#b20000" />
<circle cx="660.0" cy="460.0" r="2.0" stroke="#b20000" stroke-width="4.0" fill="#b20000" />
</g>
<g>
<circle cx="1436.0" cy="260.0" r="9.0" stroke="#000000" stroke-width="4.0" fill="none" />
<circle cx="1436.0" cy="260.0" r="15.0" stroke="#000000" stroke-width="4.0" fill="none" />
<text text-anchor="start" x="1465.0" y="269.0" fill="#000000" style="font-size:24px"><tspan style="font-style:italic;">R</tspan></text>
<circle cx="1420.0" cy="260.0" r="2.0" stroke="#0000b2" stroke-width="4.0" fill="#0000b2" />
</g>
<g>
<text text-anchor="end" x="598.0" y="297.0" fill="#808080" style="font-size:12px">0-7</text>
<text text-anchor="start" x="622.0" y="297.0" fill="#808080" style="font-size:12px">0-6</text>
<text text-anchor="start" x="622.0" y="317.0" fill="#808080" style="font-size:12px">7</text>
<path d="M 608,298 L 612,298 L 612,322 L 608,322 Z" stroke="#000000" stroke-width="4.0" fill="#000000" fill-opacity="1.0"/>
<circle cx="600.0" cy="300.0" r="2.0" stroke="#0000b2" stroke-width="4.0" fill="#0000b2" />
<circle cx="620.0" cy="300.0" r="2.0" stroke="#b20000" stroke-width="4.0" fill="#b20000" />
<circle cx="620.0" cy="320.0" r="2.0" stroke="#b20000" stroke-width="4.0" fill="#b20000" />
</g>
<g>
<text text-anchor="end" x="678.0" y="277.0" fill="#808080" style="font-size:12px">0</text>
<text text-anchor="end" x="678.0" y="297.0" fill="#808080" style="font-size:12px">1-7</text>
<text text-anchor="start" x="702.0" y="277.0" fill="#808080" style="font-size:12px">0-7</text>
<path d="M 688,278 L 692,278 L 692,302 L 688,302 Z" stroke="#000000" stroke-width="4.0" fill="#000000" fill-opacity="1.0"/>
<circle cx="680.0" cy="280.0" r="2.0" stroke="#0000b2" stroke-width="4.0" fill="#0000b2" />
<circle cx="680.0" cy="300.0" r="2.0" stroke="#0000b2" stroke-width="4.0" fill="#0000b2" />
<circle cx="700.0" cy="280.0" r="2.0" stroke="#b20000" stroke-width="4.0" fill="#b20000" />
</g>
<g>
<text text-anchor="end" x="617.0" y="289.0" fill="#000000" style="font-size:24px">0</text>
<circle cx="620.0" cy="280.0" r="2.0" stroke="#b20000" stroke-width="4.0" fill="#b20000" />
</g>
<g>
<text text-anchor="end" x="858.0" y="297.0" fill="#808080" style="font-size:12px">0-7</text>
<text text-anchor="start" x="882.0" y="297.0" fill="#808080" style="font-size:12px">0-5</text>
<text text-anchor="start" x="882.0" y="317.0" fill="#808080" style="font-size:12px">6,7</text>
<path d="M 868,298 L 872,298 L 872,322 L 868,322 Z" stroke="#000000" stroke-width="4.0" fill="#000000" fill-opacity="1.0"/>
<circle cx="860.0" cy="300.0" r="2.0" stroke="#0000b2" stroke-width="4.0" fill="#0000b2" />
<circle cx="880.0" cy="300.0" r="2.0" stroke="#b20000" stroke-width="4.0" fill="#b20000" />
<circle cx="880.0" cy="320.0" r="2.0" stroke="#b20000" stroke-width="4.0" fill="#b20000" />
</g>
<g>
<text text-anchor="end" x="938.0" y="277.0" fill="#808080" style="font-size:12px">0,1</text>
<text text-anchor="end" x="938.0" y="297.0" fill="#808080" style="font-size:12px">2-7</text>
<text text-anchor="start" x="962.0" y="277.0" fill="#808080" style="font-size:12px">0-7</text>
<path d="M 948,278 L 952,278 L 952,302 L 948,302 Z" stroke="#000000" stroke-width="4.0" fill="#000000" fill-opacity="1.0"/>
<circle cx="940.0" cy="280.0" r="2.0" stroke="#0000b2" stroke-width="4.0" fill="#0000b2" />
<circle cx="940.0" cy="300.0" r="2.0" stroke="#0000b2" stroke-width="4.0" fill="#0000b2" />
<circle cx="960.0" cy="280.0" r="2.0" stroke="#b20000" stroke-width="4.0" fill="#b20000" />
</g>
<g>
<text text-anchor="end" x="877.0" y="289.0" fill="#000000" style="font-size:24px">0</text>
<circle cx="880.0" cy="280.0" r="2.0" stroke="#b20000" stroke-width="4.0" fill="#b20000" />
</g>
<g>
<text text-anchor="end" x="1118.0" y="297.0" fill="#808080" style="font-size:12px">0-7</text>
<text text-anchor="start" x="1142.0" y="297.0" fill="#808080" style="font-size:12px">0-3</text>
<text text-anchor="start" x="1142.0" y="317.0" fill="#808080" style="font-size:12px">4-7</text>
<path d="M 1128,298 L 1132,298 L 1132,322 L 1128,322 Z" stroke="#000000" stroke-width="4.0" fill="#000000" fill-opacity="1.0"/>
<circle cx="1120.0" cy="300.0" r="2.0" stroke="#0000b2" stroke-width="4.0" fill="#0000b2" />
<circle cx="1140.0" cy="300.0" r="2.0" stroke="#b20000" stroke-width="4.0" fill="#b20000" />
<circle cx="1140.0" cy="320.0" r="2.0" stroke="#b20000" stroke-width="4.0" fill="#b20000" />
</g>
<g>
<text text-anchor="end" x="1198.0" y="277.0" fill="#808080" style="font-size:12px">0-3</text>
<text text-anchor="end" x="1198.0" y="297.0" fill="#808080" style="font-size:12px">4-7</text>
<text text-anchor="start" x="1222.0" y="277.0" fill="#808080" style="font-size:12px">0-7</text>
<path d="M 1208,278 L 1212,278 L 1212,302 L 1208,302 Z" stroke="#000000" stroke-width="4.0" fill="#000000" fill-opacity="1.0"/>
<circle cx="1200.0" cy="280.0" r="2.0" stroke="#0000b2" stroke-width="4.0" fill="#0000b2" />
<circle cx="1200.0" cy="300.0" r="2.0" stroke="#0000b2" stroke-width="4.0" fill="#0000b2" />
<circle cx="1220.0" cy="280.0" r="2.0" stroke="#b20000" stroke-width="4.0" fill="#b20000" />
</g>
<g>
<text text-anchor="end" x="1137.0" y="289.0" fill="#000000" style="font-size:24px">0</text>
<circle cx="1140.0" cy="280.0" r="2.0" stroke="#b20000" stroke-width="4.0" fill="#b20000" />
</g>
<g>
<path d="M 630,110 L 710,110 L 710,150 L 630,150 Z" stroke="#b4ffb4" stroke-width="0.0" fill="#b4ffb4" fill-opacity="0.7843137254901961"/>
<path d="M 630,110 L 710,110 L 710,150 L 630,150 Z" stroke="#000000" stroke-width="2.0" fill="none"/>
<text text-anchor="middle" x="670.0" y="139.0" fill="#000000" style="font-size:24px">Test</text>
<text text-anchor="middle" x="670.0" y="100.0" fill="#000000" style="font-size:24px">shift</text>
</g>
<g>
<path d="M 741,536 L 779,545 L 779,575 L 741,584 Z" stroke="#000000" stroke-width="4.0" fill="none"/>
<text text-anchor="start" x="743.0" y="555.5" fill="#808080" style="font-size:18px">0</text>
<circle cx="760.0" cy="540.0" r="2.0" stroke="#0000b2" stroke-width="4.0" fill="#0000b2" />
<circle cx="740.0" cy="540.0" r="2.0" stroke="#0000b2" stroke-width="4.0" fill="#0000b2" />
<circle cx="740.0" cy="580.0" r="2.0" stroke="#0000b2" stroke-width="4.0" fill="#0000b2" />
<circle cx="780.0" cy="560.0" r="2.0" stroke="#b20000" stroke-width="4.0" fill="#b20000" />
</g>
<g>
<path d="M 1001,536 L 1039,545 L 1039,575 L 1001,584 Z" stroke="#000000" stroke-width="4.0" fill="none"/>
<text text-anchor="start" x="1003.0" y="555.5" fill="#808080" style="font-size:18px">0</text>
<circle cx="1020.0" cy="540.0" r="2.0" stroke="#0000b2" stroke-width="4.0" fill="#0000b2" />
<circle cx="1000.0" cy="540.0" r="2.0" stroke="#0000b2" stroke-width="4.0" fill="#0000b2" />
<circle cx="1000.0" cy="580.0" r="2.0" stroke="#0000b2" stroke-width="4.0" fill="#0000b2" />
<circle cx="1040.0" cy="560.0" r="2.0" stroke="#b20000" stroke-width="4.0" fill="#b20000" />
</g>
<g>
<path d="M 1261,536 L 1299,545 L 1299,575 L 1261,584 Z" stroke="#000000" stroke-width="4.0" fill="none"/>
<text text-anchor="start" x="1263.0" y="555.5" fill="#808080" style="font-size:18px">0</text>
<circle cx="1280.0" cy="540.0" r="2.0" stroke="#0000b2" stroke-width="4.0" fill="#0000b2" />
<circle cx="1260.0" cy="540.0" r="2.0" stroke="#0000b2" stroke-width="4.0" fill="#0000b2" />
<circle cx="1260.0" cy="580.0" r="2.0" stroke="#0000b2" stroke-width="4.0" fill="#0000b2" />
<circle cx="1300.0" cy="560.0" r="2.0" stroke="#b20000" stroke-width="4.0" fill="#b20000" />
</g>
<g>
<circle cx="1436.0" cy="560.0" r="9.0" stroke="#000000" stroke-width="4.0" fill="none" />
<circle cx="1436.0" cy="560.0" r="15.0" stroke="#000000" stroke-width="4.0" fill="none" />
<text text-anchor="start" x="1465.0" y="569.0" fill="#000000" style="font-size:24px"><tspan style="font-style:italic;">Z</tspan></text>
<circle cx="1420.0" cy="560.0" r="2.0" stroke="#0000b2" stroke-width="4.0" fill="#0000b2" />
</g>
<g>
<text text-anchor="end" x="598.0" y="597.0" fill="#808080" style="font-size:12px">0-7</text>
<text text-anchor="start" x="622.0" y="597.0" fill="#808080" style="font-size:12px">0</text>
<text text-anchor="start" x="622.0" y="617.0" fill="#808080" style="font-size:12px">1-6</text>
<text text-anchor="start" x="622.0" y="637.0" fill="#808080" style="font-size:12px">7</text>
<path d="M 608,598 L 612,598 L 612,642 L 608,642 Z" stroke="#000000" stroke-width="4.0" fill="#000000" fill-opacity="1.0"/>
<circle cx="600.0" cy="600.0" r="2.0" stroke="#0000b2" stroke-width="4.0" fill="#0000b2" />
<circle cx="620.0" cy="600.0" r="2.0" stroke="#b20000" stroke-width="4.0" fill="#b20000" />
<circle cx="620.0" cy="620.0" r="2.0" stroke="#b20000" stroke-width="4.0" fill="#b20000" />
<circle cx="620.0" cy="640.0" r="2.0" stroke="#b20000" stroke-width="4.0" fill="#b20000" />
</g>
<g>
<text text-anchor="end" x="698.0" y="577.0" fill="#808080" style="font-size:12px">0-5</text>
<text text-anchor="end" x="698.0" y="597.0" fill="#808080" style="font-size:12px">6</text>
<text text-anchor="end" x="698.0" y="617.0" fill="#808080" style="font-size:12px">7</text>
<text text-anchor="start" x="722.0" y="577.0" fill="#808080" style="font-size:12px">0-7</text>
<path d="M 708,578 L 712,578 L 712,622 L 708,622 Z" stroke="#000000" stroke-width="4.0" fill="#000000" fill-opacity="1.0"/>
<circle cx="700.0" cy="580.0" r="2.0" stroke="#0000b2" stroke-width="4.0" fill="#0000b2" />
<circle cx="700.0" cy="600.0" r="2.0" stroke="#0000b2" stroke-width="4.0" fill="#0000b2" />
<circle cx="700.0" cy="620.0" r="2.0" stroke="#0000b2" stroke-width="4.0" fill="#0000b2" />
<circle cx="720.0" cy="580.0" r="2.0" stroke="#b20000" stroke-width="4.0" fill="#b20000" />
</g>
<g>
<text text-anchor="end" x="858.0" y="597.0" fill="#808080" style="font-size:12px">0-7</text>
<text text-anchor="start" x="882.0" y="597.0" fill="#808080" style="font-size:12px">0,1</text>
<text text-anchor="start" x="882.0" y="617.0" fill="#808080" style="font-size:12px">2-7</text>
<path d="M 868,598 L 872,598 L 872,622 L 868,622 Z" stroke="#000000" stroke-width="4.0" fill="#000000" fill-opacity="1.0"/>
<circle cx="860.0" cy="600.0" r="2.0" stroke="#0000b2" stroke-width="4.0" fill="#0000b2" />
<circle cx="880.0" cy="600.0" r="2.0" stroke="#b20000" stroke-width="4.0" fill="#b20000" />
<circle cx="880.0" cy="620.0" r="2.0" stroke="#b20000" stroke-width="4.0" fill="#b20000" />
</g>
<g>
<text text-anchor="end" x="958.0" y="577.0" fill="#808080" style="font-size:12px">0-5</text>
<text text-anchor="end" x="958.0" y="597.0" fill="#808080" style="font-size:12px">6,7</text>
<text text-anchor="start" x="982.0" y="577.0" fill="#808080" style="font-size:12px">0-7</text>
<path d="M 968,578 L 972,578 L 972,602 L 968,602 Z" stroke="#000000" stroke-width="4.0" fill="#000000" fill-opacity="1.0"/>
<circle cx="960.0" cy="580.0" r="2.0" stroke="#0000b2" stroke-width="4.0" fill="#0000b2" />
<circle cx="960.0" cy="600.0" r="2.0" stroke="#0000b2" stroke-width="4.0" fill="#0000b2" />
<circle cx="980.0" cy="580.0" r="2.0" stroke="#b20000" stroke-width="4.0" fill="#b20000" />
</g>
<g>
<text text-anchor="end" x="1118.0" y="597.0" fill="#808080" style="font-size:12px">0-7</text>
<text text-anchor="start" x="1142.0" y="597.0" fill="#808080" style="font-size:12px">0-3</text>
<text text-anchor="start" x="1142.0" y="617.0" fill="#808080" style="font-size:12px">4-7</text>
<path d="M 1128,598 L 1132,598 L 1132,622 L 1128,622 Z" stroke="#000000" stroke-width="4.0" fill="#000000" fill-opacity="1.0"/>
<circle cx="1120.0" cy="600.0" r="2.0" stroke="#0000b2" stroke-width="4.0" fill="#0000b2" />
<circle cx="1140.0" cy="600.0" r="2.0" stroke="#b20000" stroke-width="4.0" fill="#b20000" />
<circle cx="1140.0" cy="620.0" r="2.0" stroke="#b20000" stroke-width="4.0" fill="#b20000" />
</g>
<g>
<text text-anchor="end" x="1218.0" y="577.0" fill="#808080" style="font-size:12px">0-3</text>
<text text-anchor="end" x="1218.0" y="597.0" fill="#808080" style="font-size:12px">4-7</text>
<text text-anchor="start" x="1242.0" y="577.0" fill="#808080" style="font-size:12px">0-7</text>
<path d="M 1228,578 L 1232,578 L 1232,602 L 1228,602 Z" stroke="#000000" stroke-width="4.0" fill="#000000" fill-opacity="1.0"/>
<circle cx="1220.0" cy="580.0" r="2.0" stroke="#0000b2" stroke-width="4.0" fill="#0000b2" />
<circle cx="1220.0" cy="600.0" r="2.0" stroke="#0000b2" stroke-width="4.0" fill="#0000b2" />
<circle cx="1240.0" cy="580.0" r="2.0" stroke="#b20000" stroke-width="4.0" fill="#b20000" />
</g>
<g>
<path d="M 710,730 L 661,730 L 661,670 L 710,670 C 720,670 740,680 739,700 C 739,720 720,730 710,730 Z" stroke="#000000" stroke-width="4.0" fill="none"/>
<circle cx="660.0" cy="680.0" r="2.0" stroke="#0000b2" stroke-width="4.0" fill="#0000b2" />
<circle cx="660.0" cy="720.0" r="2.0" stroke="#0000b2" stroke-width="4.0" fill="#0000b2" />
<circle cx="740.0" cy="700.0" r="2.0" stroke="#b20000" stroke-width="4.0" fill="#b20000" />
</g>
<g>
<path d="M 529,705 L 559,705 L 559,735 L 529,735 Z" stroke="#000000" stroke-width="4.0" fill="none"/>
<circle cx="544.0" cy="720.0" r="9.0" stroke="#000000" stroke-width="4.0" fill="none" />
<text text-anchor="end" x="515.0" y="729.0" fill="#000000" style="font-size:24px"><tspan style="font-style:italic;">sign</tspan></text>
<circle cx="560.0" cy="720.0" r="2.0" stroke="#b20000" stroke-width="4.0" fill="#b20000" />
</g>
<g>
<text text-anchor="end" x="858.0" y="697.0" fill="#808080" style="font-size:12px">0</text>
<text text-anchor="end" x="858.0" y="717.0" fill="#808080" style="font-size:12px">1</text>
<text text-anchor="start" x="882.0" y="697.0" fill="#808080" style="font-size:12px">0,1</text>
<path d="M 868,698 L 872,698 L 872,722 L 868,722 Z" stroke="#000000" stroke-width="4.0" fill="#000000" fill-opacity="1.0"/>
<circle cx="860.0" cy="700.0" r="2.0" stroke="#0000b2" stroke-width="4.0" fill="#0000b2" />
<circle cx="860.0" cy="720.0" r="2.0" stroke="#0000b2" stroke-width="4.0" fill="#0000b2" />
<circle cx="880.0" cy="700.0" r="2.0" stroke="#b20000" stroke-width="4.0" fill="#b20000" />
</g>
<g>
<text text-anchor="end" x="1118.0" y="697.0" fill="#808080" style="font-size:12px">0,1</text>
<text text-anchor="end" x="1118.0" y="717.0" fill="#808080" style="font-size:12px">2,3</text>
<text text-anchor="start" x="1142.0" y="697.0" fill="#808080" style="font-size:12px">0-3</text>
<path d="M 1128,698 L 1132,698 L 1132,722 L 1128,722 Z" stroke="#000000" stroke-width="4.0" fill="#000000" fill-opacity="1.0"/>
<circle cx="1120.0" cy="700.0" r="2.0" stroke="#0000b2" stroke-width="4.0" fill="#0000b2" />
<circle cx="1120.0" cy="720.0" r="2.0" stroke="#0000b2" stroke-width="4.0" fill="#0000b2" />
<circle cx="1140.0" cy="700.0" r="2.0" stroke="#b20000" stroke-width="4.0" fill="#b20000" />
</g>
</g>
</svg>